<ttFont>
    <TTGlyph name=".notdef" xMin="50" yMin="0" xMax="450" yMax="750">
      <contour>
        <pt x="50" y="0" on="1"/>
        <pt x="50" y="750" on="1"/>
        <pt x="450" y="750" on="1"/>
        <pt x="450" y="0" on="1"/>
      </contour>
      <contour>
        <pt x="400" y="50" on="1"/>
        <pt x="400" y="700" on="1"/>
        <pt x="100" y="700" on="1"/>
        <pt x="100" y="50" on="1"/>
      </contour>
    </TTGlyph>
    <TTGlyph name="A" xMin="5" yMin="0" xMax="679" yMax="693">
      <contour>
        <pt x="543" y="0" on="1"/>
        <pt x="529" y="41" on="0"/>
        <pt x="499" y="121" on="0"/>
        <pt x="485" y="163" on="1"/>
        <pt x="193" y="163" on="1"/>
        <pt x="179" y="121" on="0"/>
        <pt x="150" y="40" on="0"/>
        <pt x="136" y="0" on="1"/>
        <pt x="5" y="0" on="1"/>
        <pt x="44" y="111" on="0"/>
        <pt x="114" y="299" on="0"/>
        <pt x="181" y="467" on="0"/>
        <pt x="247" y="619" on="0"/>
        <pt x="282" y="693" on="1"/>
        <pt x="401" y="693" on="1"/>
        <pt x="436" y="619" on="0"/>
        <pt x="502" y="467" on="0"/>
        <pt x="569" y="299" on="0"/>
        <pt x="640" y="111" on="0"/>
        <pt x="679" y="0" on="1"/>
      </contour>
      <contour>
        <pt x="339" y="559" on="1"/>
        <pt x="316" y="506" on="0"/>
        <pt x="257" y="354" on="0"/>
        <pt x="225" y="265" on="1"/>
        <pt x="453" y="265" on="1"/>
        <pt x="421" y="354" on="0"/>
        <pt x="361" y="508" on="0"/>
      </contour>
    </TTGlyph>
    <TTGlyph name="AE" xMin="3" yMin="0" xMax="923" yMax="693">
      <contour>
        <pt x="478" y="171" on="1"/>
        <pt x="231" y="171" on="1"/>
        <pt x="208" y="129" on="0"/>
        <pt x="160" y="42" on="0"/>
        <pt x="140" y="0" on="1"/>
        <pt x="3" y="0" on="1"/>
        <pt x="121" y="217" on="0"/>
        <pt x="329" y="556" on="0"/>
        <pt x="426" y="693" on="1"/>
        <pt x="899" y="693" on="1"/>
        <pt x="899" y="587" on="1"/>
        <pt x="601" y="587" on="1"/>
        <pt x="601" y="414" on="1"/>
        <pt x="864" y="414" on="1"/>
        <pt x="864" y="311" on="1"/>
        <pt x="601" y="311" on="1"/>
        <pt x="601" y="106" on="1"/>
        <pt x="923" y="106" on="1"/>
        <pt x="923" y="0" on="1"/>
        <pt x="478" y="0" on="1"/>
      </contour>
      <contour>
        <pt x="478" y="579" on="1"/>
        <pt x="457" y="549" on="0"/>
        <pt x="409" y="477" on="0"/>
        <pt x="359" y="397" on="0"/>
        <pt x="309" y="313" on="0"/>
        <pt x="285" y="272" on="1"/>
        <pt x="478" y="272" on="1"/>
      </contour>
    </TTGlyph>
    <TTGlyph name="AEacute" xMin="3" yMin="0" xMax="923" yMax="970">
      <component glyphName="AE" x="0" y="0" flags="0x204"/>
      <component glyphName="acute" x="405" y="162" flags="0x4"/>
    </TTGlyph>
    <TTGlyph name="Aacute" xMin="5" yMin="0" xMax="679" yMax="970">
      <component glyphName="A" x="0" y="0" flags="0x204"/>
      <component glyphName="acute" x="185" y="162" flags="0x4"/>
    </TTGlyph>
    <TTGlyph name="Abreve" xMin="5" yMin="0" xMax="679" yMax="910">
      <component glyphName="A" x="0" y="0" flags="0x204"/>
      <component glyphName="breve" x="144" y="154" flags="0x4"/>
    </TTGlyph>
    <TTGlyph name="Acircumflex" xMin="5" yMin="0" xMax="679" yMax="936">
      <component glyphName="A" x="0" y="0" flags="0x204"/>
      <component glyphName="circumflex" x="146" y="161" flags="0x4"/>
    </TTGlyph>
    <TTGlyph name="Adieresis" xMin="5" yMin="0" xMax="679" yMax="902">
      <component glyphName="A" x="0" y="0" flags="0x204"/>
      <component glyphName="dieresis" x="135" y="158" flags="0x4"/>
    </TTGlyph>
    <TTGlyph name="Agrave" xMin="5" yMin="0" xMax="679" yMax="970">
      <component glyphName="A" x="0" y="0" flags="0x204"/>
      <component glyphName="grave" x="108" y="162" flags="0x4"/>
    </TTGlyph>
    <TTGlyph name="Alpha" xMin="5" yMin="0" xMax="679" yMax="693">
      <component glyphName="A" x="0" y="0" flags="0x204"/>
    </TTGlyph>
    <TTGlyph name="Alphatonos" xMin="5" yMin="0" xMax="679" yMax="712">
      <component glyphName="A" x="0" y="0" flags="0x204"/>
      <component glyphName="tonos.cap" x="-86" y="0" flags="0x4"/>
    </TTGlyph>
    <TTGlyph name="Amacron" xMin="5" yMin="0" xMax="679" yMax="872">
      <component glyphName="A" x="0" y="0" flags="0x204"/>
      <component glyphName="macron" x="146" y="154" flags="0x4"/>
    </TTGlyph>
    <TTGlyph name="Aogonek" xMin="5" yMin="-204" xMax="690" yMax="693">
      <contour>
        <pt x="339" y="559" on="1"/>
        <pt x="316" y="506" on="0"/>
        <pt x="257" y="354" on="0"/>
        <pt x="225" y="265" on="1"/>
        <pt x="453" y="265" on="1"/>
        <pt x="421" y="354" on="0"/>
        <pt x="362" y="506" on="0"/>
      </contour>
      <contour>
        <pt x="543" y="0" on="1"/>
        <pt x="529" y="41" on="0"/>
        <pt x="499" y="121" on="0"/>
        <pt x="485" y="163" on="1"/>
        <pt x="193" y="163" on="1"/>
        <pt x="179" y="121" on="0"/>
        <pt x="150" y="40" on="0"/>
        <pt x="136" y="0" on="1"/>
        <pt x="5" y="0" on="1"/>
        <pt x="44" y="111" on="0"/>
        <pt x="114" y="299" on="0"/>
        <pt x="181" y="467" on="0"/>
        <pt x="247" y="619" on="0"/>
        <pt x="282" y="693" on="1"/>
        <pt x="401" y="693" on="1"/>
        <pt x="436" y="619" on="0"/>
        <pt x="502" y="467" on="0"/>
        <pt x="569" y="300" on="0"/>
        <pt x="639" y="112" on="0"/>
        <pt x="678" y="1" on="1"/>
        <pt x="668" y="-6" on="0"/>
        <pt x="641" y="-28" on="0"/>
        <pt x="617" y="-53" on="0"/>
        <pt x="600" y="-79" on="0"/>
        <pt x="600" y="-91" on="1"/>
        <pt x="600" y="-118" on="0"/>
        <pt x="635" y="-118" on="1"/>
        <pt x="643" y="-118" on="0"/>
        <pt x="667" y="-115" on="0"/>
        <pt x="681" y="-110" on="1"/>
        <pt x="690" y="-191" on="1"/>
        <pt x="675" y="-197" on="0"/>
        <pt x="629" y="-204" on="0"/>
        <pt x="608" y="-204" on="1"/>
        <pt x="546" y="-204" on="0"/>
        <pt x="490" y="-159" on="0"/>
        <pt x="490" y="-121" on="1"/>
        <pt x="490" y="-102" on="0"/>
        <pt x="508" y="-64" on="0"/>
        <pt x="535" y="-33" on="0"/>
        <pt x="564" y="-8" on="0"/>
        <pt x="575" y="0" on="1"/>
      </contour>
    </TTGlyph>
    <TTGlyph name="Aring" xMin="5" yMin="0" xMax="679" yMax="860">
      <contour>
        <pt x="452" y="752" on="1"/>
        <pt x="452" y="723" on="0"/>
        <pt x="431" y="681" on="0"/>
        <pt x="413" y="667" on="1"/>
        <pt x="446" y="596" on="0"/>
        <pt x="509" y="449" on="0"/>
        <pt x="574" y="287" on="0"/>
        <pt x="641" y="106" on="0"/>
        <pt x="679" y="0" on="1"/>
        <pt x="543" y="0" on="1"/>
        <pt x="529" y="41" on="0"/>
        <pt x="499" y="121" on="0"/>
        <pt x="485" y="163" on="1"/>
        <pt x="193" y="163" on="1"/>
        <pt x="179" y="121" on="0"/>
        <pt x="150" y="40" on="0"/>
        <pt x="136" y="0" on="1"/>
        <pt x="5" y="0" on="1"/>
        <pt x="42" y="106" on="0"/>
        <pt x="109" y="287" on="0"/>
        <pt x="173" y="449" on="0"/>
        <pt x="236" y="596" on="0"/>
        <pt x="269" y="667" on="1"/>
        <pt x="252" y="681" on="0"/>
        <pt x="231" y="723" on="0"/>
        <pt x="231" y="752" on="1"/>
        <pt x="231" y="777" on="0"/>
        <pt x="249" y="818" on="0"/>
        <pt x="279" y="845" on="0"/>
        <pt x="319" y="860" on="0"/>
        <pt x="341" y="860" on="1"/>
        <pt x="363" y="860" on="0"/>
        <pt x="403" y="845" on="0"/>
        <pt x="434" y="818" on="0"/>
        <pt x="452" y="777" on="0"/>
      </contour>
      <contour>
        <pt x="339" y="559" on="1"/>
        <pt x="316" y="506" on="0"/>
        <pt x="257" y="354" on="0"/>
        <pt x="225" y="265" on="1"/>
        <pt x="453" y="265" on="1"/>
        <pt x="421" y="354" on="0"/>
        <pt x="361" y="508" on="0"/>
      </contour>
      <contour>
        <pt x="392" y="752" on="1"/>
        <pt x="392" y="777" on="0"/>
        <pt x="362" y="806" on="0"/>
        <pt x="341" y="806" on="1"/>
        <pt x="321" y="806" on="0"/>
        <pt x="291" y="777" on="0"/>
        <pt x="291" y="752" on="1"/>
        <pt x="291" y="726" on="0"/>
        <pt x="321" y="698" on="0"/>
        <pt x="341" y="698" on="1"/>
        <pt x="362" y="698" on="0"/>
        <pt x="392" y="726" on="0"/>
      </contour>
    </TTGlyph>
    <TTGlyph name="Aringacute" xMin="5" yMin="0" xMax="679" yMax="962">
      <contour>
        <pt x="416" y="660" on="1"/>
        <pt x="449" y="590" on="0"/>
        <pt x="511" y="444" on="0"/>
        <pt x="574" y="284" on="0"/>
        <pt x="641" y="104" on="0"/>
        <pt x="679" y="0" on="1"/>
        <pt x="543" y="0" on="1"/>
        <pt x="529" y="41" on="0"/>
        <pt x="499" y="121" on="0"/>
        <pt x="485" y="163" on="1"/>
        <pt x="193" y="163" on="1"/>
        <pt x="179" y="121" on="0"/>
        <pt x="150" y="40" on="0"/>
        <pt x="136" y="0" on="1"/>
        <pt x="5" y="0" on="1"/>
        <pt x="41" y="103" on="0"/>
        <pt x="107" y="282" on="0"/>
        <pt x="170" y="442" on="0"/>
        <pt x="232" y="587" on="0"/>
        <pt x="265" y="656" on="1"/>
        <pt x="241" y="682" on="0"/>
        <pt x="241" y="720" on="1"/>
        <pt x="241" y="766" on="0"/>
        <pt x="299" y="817" on="0"/>
        <pt x="339" y="817" on="1"/>
        <pt x="379" y="817" on="0"/>
        <pt x="438" y="766" on="0"/>
        <pt x="438" y="720" on="1"/>
        <pt x="438" y="700" on="0"/>
        <pt x="427" y="671" on="0"/>
      </contour>
      <contour>
        <pt x="339" y="559" on="1"/>
        <pt x="316" y="506" on="0"/>
        <pt x="257" y="354" on="0"/>
        <pt x="225" y="265" on="1"/>
        <pt x="453" y="265" on="1"/>
        <pt x="421" y="354" on="0"/>
        <pt x="361" y="508" on="0"/>
      </contour>
      <contour>
        <pt x="435" y="885" on="1"/>
        <pt x="272" y="823" on="1"/>
        <pt x="245" y="881" on="1"/>
        <pt x="402" y="962" on="1"/>
      </contour>
      <contour>
        <pt x="382" y="720" on="1"/>
        <pt x="382" y="740" on="0"/>
        <pt x="356" y="763" on="0"/>
        <pt x="339" y="763" on="1"/>
        <pt x="322" y="763" on="0"/>
        <pt x="297" y="740" on="0"/>
        <pt x="297" y="720" on="1"/>
        <pt x="297" y="699" on="0"/>
        <pt x="322" y="676" on="0"/>
        <pt x="339" y="676" on="1"/>
        <pt x="356" y="676" on="0"/>
        <pt x="382" y="699" on="0"/>
      </contour>
    </TTGlyph>
    <TTGlyph name="At" xMin="62" yMin="-90" xMax="909" yMax="782">
      <component glyphName="at" x="0" y="69" flags="0x214"/>
    </TTGlyph>
    <TTGlyph name="Atilde" xMin="5" yMin="0" xMax="679" yMax="905">
      <component glyphName="A" x="0" y="0" flags="0x204"/>
      <component glyphName="tilde" x="148" y="159" flags="0x4"/>
    </TTGlyph>
    <TTGlyph name="B" xMin="83" yMin="-8" xMax="609" yMax="700">
      <contour>
        <pt x="292" y="-8" on="1"/>
        <pt x="237" y="-8" on="0"/>
        <pt x="125" y="-1" on="0"/>
        <pt x="83" y="10" on="1"/>
        <pt x="83" y="683" on="1"/>
        <pt x="105" y="687" on="0"/>
        <pt x="155" y="694" on="0"/>
        <pt x="207" y="698" on="0"/>
        <pt x="258" y="700" on="0"/>
        <pt x="281" y="700" on="1"/>
        <pt x="344" y="700" on="0"/>
        <pt x="452" y="681" on="0"/>
        <pt x="531" y="637" on="0"/>
        <pt x="575" y="565" on="0"/>
        <pt x="575" y="512" on="1"/>
        <pt x="575" y="463" on="0"/>
        <pt x="528" y="393" on="0"/>
        <pt x="486" y="372" on="1"/>
        <pt x="549" y="351" on="0"/>
        <pt x="609" y="269" on="0"/>
        <pt x="609" y="206" on="1"/>
        <pt x="609" y="99" on="0"/>
        <pt x="453" y="-8" on="0"/>
      </contour>
      <contour>
        <pt x="207" y="312" on="1"/>
        <pt x="207" y="101" on="1"/>
        <pt x="228" y="99" on="0"/>
        <pt x="276" y="97" on="0"/>
        <pt x="296" y="97" on="1"/>
        <pt x="335" y="97" on="0"/>
        <pt x="402" y="107" on="0"/>
        <pt x="451" y="132" on="0"/>
        <pt x="480" y="174" on="0"/>
        <pt x="480" y="207" on="1"/>
        <pt x="480" y="266" on="0"/>
        <pt x="394" y="312" on="0"/>
        <pt x="318" y="312" on="1"/>
      </contour>
      <contour>
        <pt x="207" y="411" on="1"/>
        <pt x="296" y="411" on="1"/>
        <pt x="368" y="411" on="0"/>
        <pt x="450" y="452" on="0"/>
        <pt x="450" y="505" on="1"/>
        <pt x="450" y="555" on="0"/>
        <pt x="365" y="597" on="0"/>
        <pt x="297" y="597" on="1"/>
        <pt x="268" y="597" on="0"/>
        <pt x="223" y="595" on="0"/>
        <pt x="207" y="593" on="1"/>
      </contour>
    </TTGlyph>
    <TTGlyph name="Backslash" xMin="-17" yMin="-138" xMax="443" yMax="830">
      <component glyphName="backslash" x="0" y="47" flags="0x214"/>
    </TTGlyph>
    <TTGlyph name="Beta" xMin="83" yMin="-8" xMax="609" yMax="700">
      <component glyphName="B" x="0" y="0" flags="0x204"/>
    </TTGlyph>
    <TTGlyph name="Braceleft" xMin="37" yMin="-138" xMax="343" yMax="830">
      <component glyphName="braceleft" x="0" y="47" flags="0x214"/>
    </TTGlyph>
    <TTGlyph name="Braceright" xMin="5" yMin="-138" xMax="311" yMax="830">
      <component glyphName="braceright" x="0" y="47" flags="0x214"/>
    </TTGlyph>
    <TTGlyph name="Bracketleft" xMin="93" yMin="-138" xMax="341" yMax="830">
      <component glyphName="bracketleft" x="0" y="47" flags="0x214"/>
    </TTGlyph>
    <TTGlyph name="Bracketright" xMin="5" yMin="-138" xMax="253" yMax="830">
      <component glyphName="bracketright" x="0" y="47" flags="0x214"/>
    </TTGlyph>
    <TTGlyph name="Bullet" xMin="49" yMin="213" xMax="321" yMax="482">
      <component glyphName="bullet" x="0" y="-5" flags="0x214"/>
    </TTGlyph>
    <TTGlyph name="C" xMin="57" yMin="-15" xMax="610" yMax="709">
      <contour>
        <pt x="391" y="-15" on="1"/>
        <pt x="313" y="-15" on="0"/>
        <pt x="189" y="33" on="0"/>
        <pt x="103" y="126" on="0"/>
        <pt x="57" y="260" on="0"/>
        <pt x="57" y="347" on="1"/>
        <pt x="57" y="434" on="0"/>
        <pt x="110" y="568" on="0"/>
        <pt x="202" y="661" on="0"/>
        <pt x="326" y="709" on="0"/>
        <pt x="397" y="709" on="1"/>
        <pt x="440" y="709" on="0"/>
        <pt x="510" y="696" on="0"/>
        <pt x="562" y="680" on="0"/>
        <pt x="596" y="662" on="0"/>
        <pt x="603" y="658" on="1"/>
        <pt x="566" y="555" on="1"/>
        <pt x="542" y="570" on="0"/>
        <pt x="453" y="597" on="0"/>
        <pt x="401" y="597" on="1"/>
        <pt x="356" y="597" on="0"/>
        <pt x="278" y="566" on="0"/>
        <pt x="221" y="504" on="0"/>
        <pt x="189" y="410" on="0"/>
        <pt x="189" y="348" on="1"/>
        <pt x="189" y="293" on="0"/>
        <pt x="214" y="201" on="0"/>
        <pt x="266" y="134" on="0"/>
        <pt x="346" y="97" on="0"/>
        <pt x="402" y="97" on="1"/>
        <pt x="469" y="97" on="0"/>
        <pt x="553" y="124" on="0"/>
        <pt x="576" y="136" on="1"/>
        <pt x="610" y="33" on="1"/>
        <pt x="598" y="25" on="0"/>
        <pt x="557" y="9" on="0"/>
        <pt x="501" y="-6" on="0"/>
        <pt x="431" y="-15" on="0"/>
      </contour>
    </TTGlyph>
    <TTGlyph name="Cacute" xMin="57" yMin="-15" xMax="610" yMax="970">
      <component glyphName="C" x="0" y="0" flags="0x204"/>
      <component glyphName="acute" x="197" y="162" flags="0x4"/>
    </TTGlyph>
    <TTGlyph name="Ccaron" xMin="57" yMin="-15" xMax="610" yMax="937">
      <component glyphName="C" x="0" y="0" flags="0x204"/>
      <component glyphName="caron" x="187" y="158" flags="0x4"/>
    </TTGlyph>
    <TTGlyph name="Ccedilla" xMin="57" yMin="-205" xMax="610" yMax="709">
      <contour>
        <pt x="401" y="-39" on="1"/>
        <pt x="433" y="-54" on="0"/>
        <pt x="458" y="-92" on="0"/>
        <pt x="458" y="-120" on="1"/>
        <pt x="458" y="-155" on="0"/>
        <pt x="398" y="-205" on="0"/>
        <pt x="338" y="-205" on="1"/>
        <pt x="290" y="-205" on="0"/>
        <pt x="253" y="-192" on="1"/>
        <pt x="267" y="-120" on="1"/>
        <pt x="277" y="-123" on="0"/>
        <pt x="309" y="-131" on="0"/>
        <pt x="326" y="-131" on="1"/>
        <pt x="343" y="-131" on="0"/>
        <pt x="362" y="-119" on="0"/>
        <pt x="362" y="-107" on="1"/>
        <pt x="362" y="-91" on="0"/>
        <pt x="334" y="-76" on="0"/>
        <pt x="320" y="-71" on="1"/>
        <pt x="310" y="-68" on="1"/>
        <pt x="314" y="-56" on="0"/>
        <pt x="327" y="-25" on="0"/>
        <pt x="334" y="-11" on="1"/>
        <pt x="203" y="5" on="0"/>
        <pt x="57" y="189" on="0"/>
        <pt x="57" y="347" on="1"/>
        <pt x="57" y="434" on="0"/>
        <pt x="110" y="568" on="0"/>
        <pt x="202" y="661" on="0"/>
        <pt x="326" y="709" on="0"/>
        <pt x="397" y="709" on="1"/>
        <pt x="440" y="709" on="0"/>
        <pt x="510" y="696" on="0"/>
        <pt x="562" y="680" on="0"/>
        <pt x="596" y="662" on="0"/>
        <pt x="603" y="658" on="1"/>
        <pt x="566" y="555" on="1"/>
        <pt x="542" y="570" on="0"/>
        <pt x="453" y="597" on="0"/>
        <pt x="401" y="597" on="1"/>
        <pt x="356" y="597" on="0"/>
        <pt x="278" y="566" on="0"/>
        <pt x="221" y="504" on="0"/>
        <pt x="189" y="410" on="0"/>
        <pt x="189" y="348" on="1"/>
        <pt x="189" y="293" on="0"/>
        <pt x="214" y="201" on="0"/>
        <pt x="266" y="134" on="0"/>
        <pt x="346" y="97" on="0"/>
        <pt x="402" y="97" on="1"/>
        <pt x="469" y="97" on="0"/>
        <pt x="553" y="124" on="0"/>
        <pt x="576" y="136" on="1"/>
        <pt x="610" y="33" on="1"/>
        <pt x="588" y="19" on="0"/>
        <pt x="484" y="-12" on="0"/>
        <pt x="412" y="-15" on="1"/>
        <pt x="408" y="-22" on="0"/>
        <pt x="403" y="-34" on="0"/>
      </contour>
    </TTGlyph>
    <TTGlyph name="Ccircumflex" xMin="57" yMin="-15" xMax="610" yMax="936">
      <component glyphName="C" x="0" y="0" flags="0x204"/>
      <component glyphName="circumflex" x="188" y="161" flags="0x4"/>
    </TTGlyph>
    <TTGlyph name="Cdotaccent" xMin="57" yMin="-15" xMax="610" yMax="909">
      <component glyphName="C" x="0" y="0" flags="0x204"/>
      <component glyphName="dotaccent" x="180" y="158" flags="0x4"/>
    </TTGlyph>
    <TTGlyph name="Chi" xMin="20" yMin="0" xMax="642" yMax="693">
      <component glyphName="X" x="0" y="0" flags="0x204"/>
    </TTGlyph>
    <TTGlyph name="D" xMin="83" yMin="-8" xMax="671" yMax="700">
      <contour>
        <pt x="209" y="104" on="1"/>
        <pt x="220" y="103" on="0"/>
        <pt x="256" y="102" on="0"/>
        <pt x="287" y="102" on="1"/>
        <pt x="414" y="102" on="0"/>
        <pt x="539" y="231" on="0"/>
        <pt x="539" y="347" on="1"/>
        <pt x="539" y="465" on="0"/>
        <pt x="417" y="591" on="0"/>
        <pt x="289" y="591" on="1"/>
        <pt x="233" y="591" on="0"/>
        <pt x="209" y="588" on="1"/>
      </contour>
      <contour>
        <pt x="671" y="347" on="1"/>
        <pt x="671" y="257" on="0"/>
        <pt x="615" y="124" on="0"/>
        <pt x="512" y="35" on="0"/>
        <pt x="367" y="-8" on="0"/>
        <pt x="279" y="-8" on="1"/>
        <pt x="237" y="-8" on="0"/>
        <pt x="131" y="-1" on="0"/>
        <pt x="83" y="10" on="1"/>
        <pt x="83" y="683" on="1"/>
        <pt x="131" y="694" on="0"/>
        <pt x="239" y="700" on="0"/>
        <pt x="281" y="700" on="1"/>
        <pt x="368" y="700" on="0"/>
        <pt x="512" y="659" on="0"/>
        <pt x="615" y="572" on="0"/>
        <pt x="671" y="439" on="0"/>
      </contour>
    </TTGlyph>
    <TTGlyph name="Dcaron" xMin="83" yMin="-8" xMax="671" yMax="937">
      <component glyphName="D" x="0" y="0" flags="0x204"/>
      <component glyphName="caron" x="141" y="158" flags="0x4"/>
    </TTGlyph>
    <TTGlyph name="Dcroat" xMin="16" yMin="-8" xMax="685" yMax="700">
      <component glyphName="Eth" x="0" y="0" flags="0x204"/>
    </TTGlyph>
    <TTGlyph name="Delta" xMin="5" yMin="0" xMax="659" yMax="693">
      <contour>
        <pt x="494" y="106" on="1"/>
        <pt x="437" y="275" on="0"/>
        <pt x="352" y="496" on="0"/>
        <pt x="329" y="545" on="1"/>
        <pt x="306" y="495" on="0"/>
        <pt x="221" y="275" on="0"/>
        <pt x="165" y="106" on="1"/>
      </contour>
      <contour>
        <pt x="5" y="0" on="1"/>
        <pt x="39" y="109" on="0"/>
        <pt x="104" y="292" on="0"/>
        <pt x="170" y="457" on="0"/>
        <pt x="239" y="612" on="0"/>
        <pt x="277" y="693" on="1"/>
        <pt x="386" y="693" on="1"/>
        <pt x="424" y="612" on="0"/>
        <pt x="493" y="456" on="0"/>
        <pt x="559" y="291" on="0"/>
        <pt x="624" y="108" on="0"/>
        <pt x="659" y="0" on="1"/>
      </contour>
    </TTGlyph>
    <TTGlyph name="E" xMin="83" yMin="0" xMax="552" yMax="693">
      <contour>
        <pt x="83" y="0" on="1"/>
        <pt x="83" y="693" on="1"/>
        <pt x="528" y="693" on="1"/>
        <pt x="528" y="586" on="1"/>
        <pt x="209" y="586" on="1"/>
        <pt x="209" y="415" on="1"/>
        <pt x="493" y="415" on="1"/>
        <pt x="493" y="310" on="1"/>
        <pt x="209" y="310" on="1"/>
        <pt x="209" y="107" on="1"/>
        <pt x="552" y="107" on="1"/>
        <pt x="552" y="0" on="1"/>
      </contour>
    </TTGlyph>
    <TTGlyph name="Eacute" xMin="83" yMin="0" xMax="552" yMax="970">
      <component glyphName="E" x="0" y="0" flags="0x204"/>
      <component glyphName="acute" x="163" y="162" flags="0x4"/>
    </TTGlyph>
    <TTGlyph name="Ebreve" xMin="83" yMin="0" xMax="552" yMax="910">
      <component glyphName="E" x="0" y="0" flags="0x204"/>
      <component glyphName="breve" x="101" y="154" flags="0x4"/>
    </TTGlyph>
    <TTGlyph name="Ecaron" xMin="83" yMin="0" xMax="552" yMax="937">
      <component glyphName="E" x="0" y="0" flags="0x204"/>
      <component glyphName="caron" x="112" y="158" flags="0x4"/>
    </TTGlyph>
    <TTGlyph name="Ecircumflex" xMin="83" yMin="0" xMax="552" yMax="936">
      <component glyphName="E" x="0" y="0" flags="0x204"/>
      <component glyphName="circumflex" x="111" y="161" flags="0x4"/>
    </TTGlyph>
    <TTGlyph name="Edieresis" xMin="83" yMin="0" xMax="552" yMax="902">
      <component glyphName="E" x="0" y="0" flags="0x204"/>
      <component glyphName="dieresis" x="101" y="158" flags="0x4"/>
    </TTGlyph>
    <TTGlyph name="Edotaccent" xMin="83" yMin="0" xMax="552" yMax="909">
      <component glyphName="E" x="0" y="0" flags="0x204"/>
      <component glyphName="dotaccent" x="109" y="158" flags="0x4"/>
    </TTGlyph>
    <TTGlyph name="Egrave" xMin="83" yMin="0" xMax="552" yMax="970">
      <component glyphName="E" x="0" y="0" flags="0x204"/>
      <component glyphName="grave" x="80" y="162" flags="0x4"/>
    </TTGlyph>
    <TTGlyph name="Emacron" xMin="83" yMin="0" xMax="552" yMax="872">
      <component glyphName="E" x="0" y="0" flags="0x204"/>
      <component glyphName="macron" x="111" y="154" flags="0x4"/>
    </TTGlyph>
    <TTGlyph name="Emdash" xMin="0" yMin="280" xMax="1000" yMax="382">
      <component glyphName="emdash" x="0" y="45" flags="0x214"/>
    </TTGlyph>
    <TTGlyph name="Endash" xMin="0" yMin="280" xMax="500" yMax="382">
      <component glyphName="endash" x="0" y="45" flags="0x214"/>
    </TTGlyph>
    <TTGlyph name="Eng" xMin="83" yMin="-187" xMax="657" yMax="693">
      <contour>
        <pt x="532" y="33" on="1"/>
        <pt x="497" y="88" on="0"/>
        <pt x="417" y="212" on="0"/>
        <pt x="331" y="335" on="0"/>
        <pt x="246" y="450" on="0"/>
        <pt x="207" y="496" on="1"/>
        <pt x="207" y="0" on="1"/>
        <pt x="83" y="0" on="1"/>
        <pt x="83" y="693" on="1"/>
        <pt x="185" y="693" on="1"/>
        <pt x="225" y="651" on="0"/>
        <pt x="318" y="537" on="0"/>
        <pt x="411" y="413" on="0"/>
        <pt x="497" y="287" on="0"/>
        <pt x="532" y="233" on="1"/>
        <pt x="532" y="693" on="1"/>
        <pt x="657" y="693" on="1"/>
        <pt x="657" y="8" on="1"/>
        <pt x="657" y="-41" on="0"/>
        <pt x="640" y="-114" on="0"/>
        <pt x="599" y="-163" on="0"/>
        <pt x="533" y="-187" on="0"/>
        <pt x="485" y="-187" on="1"/>
        <pt x="471" y="-187" on="0"/>
        <pt x="428" y="-182" on="0"/>
        <pt x="410" y="-177" on="1"/>
        <pt x="425" y="-80" on="1"/>
        <pt x="436" y="-84" on="0"/>
        <pt x="459" y="-86" on="0"/>
        <pt x="473" y="-86" on="1"/>
        <pt x="507" y="-86" on="0"/>
        <pt x="532" y="-41" on="0"/>
        <pt x="532" y="2" on="1"/>
      </contour>
    </TTGlyph>
    <TTGlyph name="Eogonek" xMin="83" yMin="-204" xMax="564" yMax="693">
      <contour>
        <pt x="482" y="-204" on="1"/>
        <pt x="420" y="-204" on="0"/>
        <pt x="364" y="-159" on="0"/>
        <pt x="364" y="-121" on="1"/>
        <pt x="364" y="-98" on="0"/>
        <pt x="385" y="-57" on="0"/>
        <pt x="402" y="-39" on="1"/>
        <pt x="412" y="-27" on="0"/>
        <pt x="431" y="-8" on="0"/>
        <pt x="442" y="0" on="1"/>
        <pt x="83" y="0" on="1"/>
        <pt x="83" y="693" on="1"/>
        <pt x="528" y="693" on="1"/>
        <pt x="528" y="586" on="1"/>
        <pt x="209" y="586" on="1"/>
        <pt x="209" y="415" on="1"/>
        <pt x="493" y="415" on="1"/>
        <pt x="493" y="310" on="1"/>
        <pt x="209" y="310" on="1"/>
        <pt x="209" y="107" on="1"/>
        <pt x="552" y="107" on="1"/>
        <pt x="552" y="1" on="1"/>
        <pt x="543" y="-6" on="0"/>
        <pt x="516" y="-26" on="0"/>
        <pt x="503" y="-40" on="1"/>
        <pt x="489" y="-54" on="0"/>
        <pt x="474" y="-78" on="0"/>
        <pt x="474" y="-91" on="1"/>
        <pt x="474" y="-118" on="0"/>
        <pt x="509" y="-118" on="1"/>
        <pt x="517" y="-118" on="0"/>
        <pt x="541" y="-115" on="0"/>
        <pt x="555" y="-110" on="1"/>
        <pt x="564" y="-191" on="1"/>
        <pt x="549" y="-197" on="0"/>
        <pt x="503" y="-204" on="0"/>
      </contour>
    </TTGlyph>
    <TTGlyph name="Epsilon" xMin="83" yMin="0" xMax="552" yMax="693">
      <component glyphName="E" x="0" y="0" flags="0x204"/>
    </TTGlyph>
    <TTGlyph name="Epsilontonos" xMin="-8" yMin="0" xMax="662" yMax="712">
      <component glyphName="E" x="110" y="0" flags="0x4"/>
      <component glyphName="tonos.cap" x="-124" y="0" flags="0x4"/>
    </TTGlyph>
    <TTGlyph name="Eta" xMin="83" yMin="0" xMax="636" yMax="693">
      <component glyphName="H" x="0" y="0" flags="0x204"/>
    </TTGlyph>
    <TTGlyph name="Etatonos" xMin="-32" yMin="0" xMax="724" yMax="712">
      <component glyphName="H" x="88" y="0" flags="0x4"/>
      <component glyphName="tonos.cap" x="-148" y="0" flags="0x4"/>
    </TTGlyph>
    <TTGlyph name="Eth" xMin="16" yMin="-8" xMax="685" yMax="700">
      <contour>
        <pt x="16" y="408" on="1"/>
        <pt x="97" y="408" on="1"/>
        <pt x="97" y="683" on="1"/>
        <pt x="145" y="694" on="0"/>
        <pt x="253" y="700" on="0"/>
        <pt x="295" y="700" on="1"/>
        <pt x="382" y="700" on="0"/>
        <pt x="526" y="659" on="0"/>
        <pt x="629" y="572" on="0"/>
        <pt x="685" y="439" on="0"/>
        <pt x="685" y="347" on="1"/>
        <pt x="685" y="257" on="0"/>
        <pt x="629" y="124" on="0"/>
        <pt x="526" y="35" on="0"/>
        <pt x="381" y="-8" on="0"/>
        <pt x="293" y="-8" on="1"/>
        <pt x="251" y="-8" on="0"/>
        <pt x="145" y="-1" on="0"/>
        <pt x="97" y="10" on="1"/>
        <pt x="97" y="313" on="1"/>
        <pt x="16" y="313" on="1"/>
      </contour>
      <contour>
        <pt x="223" y="408" on="1"/>
        <pt x="351" y="408" on="1"/>
        <pt x="351" y="313" on="1"/>
        <pt x="223" y="313" on="1"/>
        <pt x="223" y="104" on="1"/>
        <pt x="234" y="103" on="0"/>
        <pt x="270" y="102" on="0"/>
        <pt x="301" y="102" on="1"/>
        <pt x="428" y="102" on="0"/>
        <pt x="553" y="231" on="0"/>
        <pt x="553" y="347" on="1"/>
        <pt x="553" y="465" on="0"/>
        <pt x="431" y="591" on="0"/>
        <pt x="303" y="591" on="1"/>
        <pt x="247" y="591" on="0"/>
        <pt x="223" y="588" on="1"/>
      </contour>
    </TTGlyph>
    <TTGlyph name="Euro" xMin="38" yMin="-13" xMax="551" yMax="706">
      <contour>
        <pt x="122" y="476" on="1"/>
        <pt x="147" y="591" on="0"/>
        <pt x="288" y="706" on="0"/>
        <pt x="398" y="706" on="1"/>
        <pt x="442" y="706" on="0"/>
        <pt x="503" y="694" on="0"/>
        <pt x="534" y="683" on="1"/>
        <pt x="508" y="585" on="1"/>
        <pt x="484" y="594" on="0"/>
        <pt x="431" y="605" on="0"/>
        <pt x="397" y="605" on="1"/>
        <pt x="329" y="605" on="0"/>
        <pt x="256" y="536" on="0"/>
        <pt x="242" y="476" on="1"/>
        <pt x="469" y="476" on="1"/>
        <pt x="453" y="391" on="1"/>
        <pt x="230" y="391" on="1"/>
        <pt x="229" y="379" on="0"/>
        <pt x="229" y="358" on="0"/>
        <pt x="229" y="347" on="1"/>
        <pt x="229" y="337" on="0"/>
        <pt x="229" y="319" on="0"/>
        <pt x="230" y="308" on="1"/>
        <pt x="437" y="308" on="1"/>
        <pt x="420" y="222" on="1"/>
        <pt x="241" y="222" on="1"/>
        <pt x="257" y="148" on="0"/>
        <pt x="336" y="89" on="0"/>
        <pt x="395" y="89" on="1"/>
        <pt x="433" y="89" on="0"/>
        <pt x="497" y="103" on="0"/>
        <pt x="526" y="116" on="1"/>
        <pt x="551" y="19" on="1"/>
        <pt x="528" y="8" on="0"/>
        <pt x="444" y="-13" on="0"/>
        <pt x="390" y="-13" on="1"/>
        <pt x="269" y="-13" on="0"/>
        <pt x="139" y="111" on="0"/>
        <pt x="119" y="222" on="1"/>
        <pt x="38" y="222" on="1"/>
        <pt x="38" y="308" on="1"/>
        <pt x="111" y="308" on="1"/>
        <pt x="110" y="319" on="0"/>
        <pt x="110" y="337" on="0"/>
        <pt x="110" y="347" on="1"/>
        <pt x="110" y="358" on="0"/>
        <pt x="110" y="380" on="0"/>
        <pt x="111" y="391" on="1"/>
        <pt x="38" y="391" on="1"/>
        <pt x="38" y="476" on="1"/>
      </contour>
    </TTGlyph>
    <TTGlyph name="Exclamdown" xMin="73" yMin="-7" xMax="233" yMax="699">
      <component glyphName="exclamdown" x="0" y="176" flags="0x214"/>
    </TTGlyph>
    <TTGlyph name="F" xMin="83" yMin="0" xMax="521" yMax="693">
      <contour>
        <pt x="83" y="0" on="1"/>
        <pt x="83" y="693" on="1"/>
        <pt x="521" y="693" on="1"/>
        <pt x="521" y="586" on="1"/>
        <pt x="209" y="586" on="1"/>
        <pt x="209" y="409" on="1"/>
        <pt x="486" y="409" on="1"/>
        <pt x="486" y="302" on="1"/>
        <pt x="209" y="302" on="1"/>
        <pt x="209" y="0" on="1"/>
      </contour>
    </TTGlyph>
    <TTGlyph name="G" xMin="55" yMin="-14" xMax="620" yMax="709">
      <contour>
        <pt x="407" y="598" on="1"/>
        <pt x="300" y="598" on="0"/>
        <pt x="187" y="465" on="0"/>
        <pt x="187" y="347" on="1"/>
        <pt x="187" y="291" on="0"/>
        <pt x="214" y="198" on="0"/>
        <pt x="267" y="132" on="0"/>
        <pt x="346" y="95" on="0"/>
        <pt x="399" y="95" on="1"/>
        <pt x="432" y="95" on="0"/>
        <pt x="480" y="100" on="0"/>
        <pt x="494" y="104" on="1"/>
        <pt x="494" y="353" on="1"/>
        <pt x="620" y="353" on="1"/>
        <pt x="620" y="20" on="1"/>
        <pt x="594" y="10" on="0"/>
        <pt x="470" y="-14" on="0"/>
        <pt x="389" y="-14" on="1"/>
        <pt x="314" y="-14" on="0"/>
        <pt x="190" y="34" on="0"/>
        <pt x="103" y="126" on="0"/>
        <pt x="55" y="260" on="0"/>
        <pt x="55" y="347" on="1"/>
        <pt x="55" y="434" on="0"/>
        <pt x="108" y="568" on="0"/>
        <pt x="200" y="661" on="0"/>
        <pt x="324" y="709" on="0"/>
        <pt x="394" y="709" on="1"/>
        <pt x="442" y="709" on="0"/>
        <pt x="517" y="696" on="0"/>
        <pt x="571" y="680" on="0"/>
        <pt x="606" y="662" on="0"/>
        <pt x="613" y="658" on="1"/>
        <pt x="575" y="555" on="1"/>
        <pt x="545" y="573" on="0"/>
        <pt x="456" y="598" on="0"/>
      </contour>
    </TTGlyph>
    <TTGlyph name="Gamma" xMin="83" yMin="0" xMax="523" yMax="693">
      <component glyphName="afii10020" x="0" y="0" flags="0x204"/>
    </TTGlyph>
    <TTGlyph name="Gbreve" xMin="55" yMin="-14" xMax="620" yMax="910">
      <component glyphName="G" x="0" y="0" flags="0x204"/>
      <component glyphName="breve" x="179" y="154" flags="0x4"/>
    </TTGlyph>
    <TTGlyph name="Gcaron" xMin="55" yMin="-14" xMax="620" yMax="937">
      <component glyphName="G" x="0" y="0" flags="0x204"/>
      <component glyphName="caron" x="193" y="158" flags="0x4"/>
    </TTGlyph>
    <TTGlyph name="Gcircumflex" xMin="55" yMin="-14" xMax="620" yMax="936">
      <component glyphName="G" x="0" y="0" flags="0x204"/>
      <component glyphName="circumflex" x="188" y="161" flags="0x4"/>
    </TTGlyph>
    <TTGlyph name="Gcommaaccent" xMin="55" yMin="-204" xMax="620" yMax="709">
      <component glyphName="G" x="0" y="0" flags="0x204"/>
      <component glyphName="commaaccent" x="255" y="0" flags="0x4"/>
    </TTGlyph>
    <TTGlyph name="Gdotaccent" xMin="55" yMin="-14" xMax="620" yMax="909">
      <component glyphName="G" x="0" y="0" flags="0x204"/>
      <component glyphName="dotaccent" x="183" y="158" flags="0x4"/>
    </TTGlyph>
    <TTGlyph name="Guillemotleft" xMin="27" yMin="115" xMax="515" yMax="576">
      <component glyphName="guilsinglleft" x="239" y="62" flags="0x4"/>
      <component glyphName="guilsinglleft" x="0" y="62" flags="0x4"/>
    </TTGlyph>
    <TTGlyph name="Guillemotright" xMin="37" yMin="115" xMax="525" yMax="576">
      <component glyphName="guilsinglright" x="0" y="62" flags="0x4"/>
      <component glyphName="guilsinglright" x="239" y="62" flags="0x4"/>
    </TTGlyph>
    <TTGlyph name="Guilsinglleft" xMin="27" yMin="115" xMax="276" yMax="576">
      <component glyphName="guilsinglleft" x="0" y="62" flags="0x214"/>
    </TTGlyph>
    <TTGlyph name="Guilsinglright" xMin="37" yMin="115" xMax="286" yMax="576">
      <component glyphName="guilsinglright" x="0" y="62" flags="0x214"/>
    </TTGlyph>
    <TTGlyph name="H" xMin="83" yMin="0" xMax="636" yMax="693">
      <contour>
        <pt x="510" y="693" on="1"/>
        <pt x="636" y="693" on="1"/>
        <pt x="636" y="0" on="1"/>
        <pt x="510" y="0" on="1"/>
        <pt x="510" y="307" on="1"/>
        <pt x="209" y="307" on="1"/>
        <pt x="209" y="0" on="1"/>
        <pt x="83" y="0" on="1"/>
        <pt x="83" y="693" on="1"/>
        <pt x="209" y="693" on="1"/>
        <pt x="209" y="416" on="1"/>
        <pt x="510" y="416" on="1"/>
      </contour>
    </TTGlyph>
    <TTGlyph name="Hbar" xMin="16" yMin="0" xMax="731" yMax="693">
      <contour>
        <pt x="16" y="603" on="1"/>
        <pt x="97" y="603" on="1"/>
        <pt x="97" y="693" on="1"/>
        <pt x="223" y="693" on="1"/>
        <pt x="223" y="603" on="1"/>
        <pt x="524" y="603" on="1"/>
        <pt x="524" y="693" on="1"/>
        <pt x="650" y="693" on="1"/>
        <pt x="650" y="603" on="1"/>
        <pt x="731" y="603" on="1"/>
        <pt x="731" y="512" on="1"/>
        <pt x="650" y="512" on="1"/>
        <pt x="650" y="0" on="1"/>
        <pt x="524" y="0" on="1"/>
        <pt x="524" y="307" on="1"/>
        <pt x="223" y="307" on="1"/>
        <pt x="223" y="0" on="1"/>
        <pt x="97" y="0" on="1"/>
        <pt x="97" y="512" on="1"/>
        <pt x="16" y="512" on="1"/>
      </contour>
      <contour>
        <pt x="524" y="512" on="1"/>
        <pt x="223" y="512" on="1"/>
        <pt x="223" y="416" on="1"/>
        <pt x="524" y="416" on="1"/>
      </contour>
    </TTGlyph>
    <TTGlyph name="Hcircumflex" xMin="83" yMin="0" xMax="636" yMax="936">
      <component glyphName="H" x="0" y="0" flags="0x204"/>
      <component glyphName="circumflex" x="164" y="161" flags="0x4"/>
    </TTGlyph>
    <TTGlyph name="Hyphen" xMin="23" yMin="290" xMax="292" yMax="401">
      <component glyphName="hyphen" x="0" y="60" flags="0x214"/>
    </TTGlyph>
    <TTGlyph name="I" xMin="83" yMin="0" xMax="209" yMax="693">
      <contour>
        <pt x="83" y="693" on="1"/>
        <pt x="209" y="693" on="1"/>
        <pt x="209" y="0" on="1"/>
        <pt x="83" y="0" on="1"/>
      </contour>
    </TTGlyph>
    <TTGlyph name="IJ" xMin="83" yMin="-15" xMax="731" yMax="693">
      <component glyphName="I" x="0" y="0" flags="0x4"/>
      <component glyphName="J" x="296" y="0" flags="0x4"/>
    </TTGlyph>
    <TTGlyph name="Iacute" xMin="83" yMin="0" xMax="309" yMax="970">
      <component glyphName="I" x="0" y="0" flags="0x204"/>
      <component glyphName="acute" x="-7" y="162" flags="0x4"/>
    </TTGlyph>
    <TTGlyph name="Ibreve" xMin="4" yMin="0" xMax="299" yMax="910">
      <component glyphName="I" x="0" y="0" flags="0x204"/>
      <component glyphName="breve" x="-51" y="154" flags="0x4"/>
    </TTGlyph>
    <TTGlyph name="Icircumflex" xMin="1" yMin="0" xMax="293" yMax="936">
      <component glyphName="I" x="0" y="0" flags="0x204"/>
      <component glyphName="circumflex" x="-48" y="161" flags="0x4"/>
    </TTGlyph>
    <TTGlyph name="Idieresis" xMin="-23" yMin="0" xMax="318" yMax="902">
      <component glyphName="I" x="0" y="0" flags="0x204"/>
      <component glyphName="dieresis" x="-55" y="158" flags="0x4"/>
    </TTGlyph>
    <TTGlyph name="Idotaccent" xMin="71" yMin="0" xMax="220" yMax="909">
      <component glyphName="I" x="0" y="0" flags="0x204"/>
      <component glyphName="dotaccent" x="-54" y="158" flags="0x4"/>
    </TTGlyph>
    <TTGlyph name="Igrave" xMin="-13" yMin="0" xMax="209" yMax="970">
      <component glyphName="I" x="0" y="0" flags="0x204"/>
      <component glyphName="grave" x="-90" y="162" flags="0x4"/>
    </TTGlyph>
    <TTGlyph name="Imacron" xMin="-5" yMin="0" xMax="298" yMax="872">
      <component glyphName="I" x="0" y="0" flags="0x204"/>
      <component glyphName="macron" x="-48" y="154" flags="0x4"/>
    </TTGlyph>
    <TTGlyph name="Iogonek" xMin="27" yMin="-204" xMax="227" yMax="693">
      <contour>
        <pt x="86" y="693" on="1"/>
        <pt x="212" y="693" on="1"/>
        <pt x="212" y="0" on="1"/>
        <pt x="201" y="-9" on="0"/>
        <pt x="175" y="-31" on="0"/>
        <pt x="153" y="-56" on="0"/>
        <pt x="137" y="-81" on="0"/>
        <pt x="137" y="-91" on="1"/>
        <pt x="137" y="-118" on="0"/>
        <pt x="172" y="-118" on="1"/>
        <pt x="180" y="-118" on="0"/>
        <pt x="204" y="-115" on="0"/>
        <pt x="218" y="-110" on="1"/>
        <pt x="227" y="-191" on="1"/>
        <pt x="212" y="-197" on="0"/>
        <pt x="166" y="-204" on="0"/>
        <pt x="145" y="-204" on="1"/>
        <pt x="85" y="-204" on="0"/>
        <pt x="27" y="-161" on="0"/>
        <pt x="27" y="-125" on="1"/>
        <pt x="27" y="-104" on="0"/>
        <pt x="44" y="-68" on="0"/>
        <pt x="72" y="-37" on="0"/>
        <pt x="107" y="-11" on="0"/>
        <pt x="125" y="0" on="1"/>
        <pt x="86" y="0" on="1"/>
      </contour>
    </TTGlyph>
    <TTGlyph name="Iota" xMin="83" yMin="0" xMax="209" yMax="693">
      <component glyphName="I" x="0" y="0" flags="0x204"/>
    </TTGlyph>
    <TTGlyph name="Iotadieresis" xMin="-23" yMin="0" xMax="318" yMax="905">
      <component glyphName="I" x="0" y="0" flags="0x204"/>
      <component glyphName="dieresis" x="-55" y="161" flags="0x4"/>
    </TTGlyph>
    <TTGlyph name="Iotatonos" xMin="-32" yMin="0" xMax="297" yMax="712">
      <component glyphName="I" x="88" y="0" flags="0x4"/>
      <component glyphName="tonos.cap" x="-148" y="0" flags="0x204"/>
    </TTGlyph>
    <TTGlyph name="Itilde" xMin="-28" yMin="0" xMax="322" yMax="905">
      <component glyphName="I" x="0" y="0" flags="0x204"/>
      <component glyphName="tilde" x="-48" y="159" flags="0x4"/>
    </TTGlyph>
    <TTGlyph name="J" xMin="5" yMin="-15" xMax="435" yMax="693">
      <contour>
        <pt x="435" y="228" on="1"/>
        <pt x="435" y="177" on="0"/>
        <pt x="413" y="89" on="0"/>
        <pt x="358" y="23" on="0"/>
        <pt x="265" y="-15" on="0"/>
        <pt x="194" y="-15" on="1"/>
        <pt x="128" y="-15" on="0"/>
        <pt x="31" y="22" on="0"/>
        <pt x="5" y="43" on="1"/>
        <pt x="50" y="142" on="1"/>
        <pt x="75" y="125" on="0"/>
        <pt x="148" y="94" on="0"/>
        <pt x="186" y="94" on="1"/>
        <pt x="250" y="94" on="0"/>
        <pt x="308" y="158" on="0"/>
        <pt x="308" y="236" on="1"/>
        <pt x="308" y="693" on="1"/>
        <pt x="435" y="693" on="1"/>
      </contour>
    </TTGlyph>
    <TTGlyph name="Jcircumflex" xMin="5" yMin="-15" xMax="516" yMax="936">
      <component glyphName="J" x="0" y="0" flags="0x204"/>
      <component glyphName="circumflex" x="175" y="161" flags="0x4"/>
    </TTGlyph>
    <TTGlyph name="K" xMin="83" yMin="0" xMax="646" yMax="693">
      <contour>
        <pt x="497" y="0" on="1"/>
        <pt x="471" y="40" on="0"/>
        <pt x="403" y="128" on="0"/>
        <pt x="328" y="210" on="0"/>
        <pt x="248" y="284" on="0"/>
        <pt x="209" y="311" on="1"/>
        <pt x="209" y="0" on="1"/>
        <pt x="83" y="0" on="1"/>
        <pt x="83" y="693" on="1"/>
        <pt x="209" y="693" on="1"/>
        <pt x="209" y="407" on="1"/>
        <pt x="242" y="440" on="0"/>
        <pt x="314" y="515" on="0"/>
        <pt x="385" y="592" on="0"/>
        <pt x="449" y="664" on="0"/>
        <pt x="475" y="693" on="1"/>
        <pt x="626" y="693" on="1"/>
        <pt x="593" y="655" on="0"/>
        <pt x="519" y="573" on="0"/>
        <pt x="441" y="490" on="0"/>
        <pt x="362" y="408" on="0"/>
        <pt x="324" y="371" on="1"/>
        <pt x="366" y="339" on="0"/>
        <pt x="453" y="254" on="0"/>
        <pt x="537" y="157" on="0"/>
        <pt x="614" y="52" on="0"/>
        <pt x="646" y="0" on="1"/>
      </contour>
    </TTGlyph>
    <TTGlyph name="Kappa" xMin="83" yMin="0" xMax="646" yMax="693">
      <component glyphName="K" x="0" y="0" flags="0x204"/>
    </TTGlyph>
    <TTGlyph name="Kcommaaccent" xMin="83" yMin="-204" xMax="646" yMax="693">
      <component glyphName="K" x="0" y="0" flags="0x204"/>
      <component glyphName="commaaccent" x="213" y="0" flags="0x4"/>
    </TTGlyph>
    <TTGlyph name="L" xMin="83" yMin="0" xMax="521" yMax="693">
      <contour>
        <pt x="521" y="109" on="1"/>
        <pt x="521" y="0" on="1"/>
        <pt x="83" y="0" on="1"/>
        <pt x="83" y="693" on="1"/>
        <pt x="209" y="693" on="1"/>
        <pt x="209" y="109" on="1"/>
      </contour>
    </TTGlyph>
    <TTGlyph name="Lacute" xMin="80" yMin="0" xMax="521" yMax="970">
      <component glyphName="L" x="0" y="0" flags="0x204"/>
      <component glyphName="acute" x="-13" y="162" flags="0x4"/>
    </TTGlyph>
    <TTGlyph name="Lambda" xMin="5" yMin="0" xMax="674" yMax="693">
      <contour>
        <pt x="399" y="693" on="1"/>
        <pt x="475" y="530" on="0"/>
        <pt x="613" y="177" on="0"/>
        <pt x="674" y="0" on="1"/>
        <pt x="534" y="0" on="1"/>
        <pt x="511" y="69" on="0"/>
        <pt x="461" y="215" on="0"/>
        <pt x="410" y="356" on="0"/>
        <pt x="360" y="488" on="0"/>
        <pt x="337" y="543" on="1"/>
        <pt x="313" y="488" on="0"/>
        <pt x="263" y="357" on="0"/>
        <pt x="213" y="215" on="0"/>
        <pt x="163" y="69" on="0"/>
        <pt x="140" y="0" on="1"/>
        <pt x="5" y="0" on="1"/>
        <pt x="65" y="177" on="0"/>
        <pt x="204" y="531" on="0"/>
        <pt x="279" y="693" on="1"/>
      </contour>
    </TTGlyph>
    <TTGlyph name="Lcaron" xMin="83" yMin="0" xMax="521" yMax="694">
      <component glyphName="L" x="0" y="0" flags="0x204"/>
      <component glyphName="caron.alt" x="160" y="-82" flags="0x4"/>
    </TTGlyph>
    <TTGlyph name="Lcommaaccent" xMin="83" yMin="-204" xMax="521" yMax="693">
      <component glyphName="L" x="0" y="0" flags="0x204"/>
      <component glyphName="commaaccent" x="179" y="0" flags="0x4"/>
    </TTGlyph>
    <TTGlyph name="Ldot" xMin="83" yMin="0" xMax="521" yMax="693">
      <component glyphName="L" x="0" y="0" flags="0x204"/>
      <component glyphName="dotaccent" x="216" y="-292" flags="0x4"/>
    </TTGlyph>
    <TTGlyph name="Lslash" xMin="-5" yMin="0" xMax="541" yMax="693">
      <contour>
        <pt x="-5" y="319" on="1"/>
        <pt x="103" y="374" on="1"/>
        <pt x="103" y="693" on="1"/>
        <pt x="229" y="693" on="1"/>
        <pt x="229" y="438" on="1"/>
        <pt x="349" y="499" on="1"/>
        <pt x="389" y="416" on="1"/>
        <pt x="229" y="334" on="1"/>
        <pt x="229" y="109" on="1"/>
        <pt x="541" y="109" on="1"/>
        <pt x="541" y="0" on="1"/>
        <pt x="103" y="0" on="1"/>
        <pt x="103" y="270" on="1"/>
        <pt x="36" y="236" on="1"/>
      </contour>
    </TTGlyph>
    <TTGlyph name="M" xMin="64" yMin="0" xMax="820" yMax="693">
      <contour>
        <pt x="234" y="693" on="1"/>
        <pt x="256" y="655" on="0"/>
        <pt x="310" y="545" on="0"/>
        <pt x="366" y="424" on="0"/>
        <pt x="421" y="299" on="0"/>
        <pt x="444" y="246" on="1"/>
        <pt x="467" y="299" on="0"/>
        <pt x="521" y="424" on="0"/>
        <pt x="577" y="545" on="0"/>
        <pt x="631" y="655" on="0"/>
        <pt x="653" y="693" on="1"/>
        <pt x="767" y="693" on="1"/>
        <pt x="776" y="617" on="0"/>
        <pt x="792" y="446" on="0"/>
        <pt x="805" y="267" on="0"/>
        <pt x="816" y="86" on="0"/>
        <pt x="820" y="0" on="1"/>
        <pt x="696" y="0" on="1"/>
        <pt x="692" y="121" on="0"/>
        <pt x="681" y="377" on="0"/>
        <pt x="670" y="497" on="1"/>
        <pt x="659" y="474" on="0"/>
        <pt x="629" y="410" on="0"/>
        <pt x="595" y="335" on="0"/>
        <pt x="560" y="255" on="0"/>
        <pt x="527" y="180" on="0"/>
        <pt x="499" y="115" on="0"/>
        <pt x="489" y="92" on="1"/>
        <pt x="395" y="92" on="1"/>
        <pt x="385" y="115" on="0"/>
        <pt x="357" y="181" on="0"/>
        <pt x="324" y="256" on="0"/>
        <pt x="289" y="336" on="0"/>
        <pt x="255" y="410" on="0"/>
        <pt x="225" y="475" on="0"/>
        <pt x="214" y="497" on="1"/>
        <pt x="203" y="377" on="0"/>
        <pt x="192" y="121" on="0"/>
        <pt x="188" y="0" on="1"/>
        <pt x="64" y="0" on="1"/>
        <pt x="68" y="86" on="0"/>
        <pt x="79" y="270" on="0"/>
        <pt x="92" y="451" on="0"/>
        <pt x="108" y="621" on="0"/>
        <pt x="117" y="693" on="1"/>
      </contour>
    </TTGlyph>
    <TTGlyph name="Mu" xMin="64" yMin="0" xMax="820" yMax="693">
      <component glyphName="M" x="0" y="0" flags="0x204"/>
    </TTGlyph>
    <TTGlyph name="N" xMin="83" yMin="0" xMax="657" yMax="693">
      <contour>
        <pt x="550" y="0" on="1"/>
        <pt x="516" y="57" on="0"/>
        <pt x="432" y="188" on="0"/>
        <pt x="342" y="321" on="0"/>
        <pt x="249" y="446" on="0"/>
        <pt x="207" y="496" on="1"/>
        <pt x="207" y="0" on="1"/>
        <pt x="83" y="0" on="1"/>
        <pt x="83" y="693" on="1"/>
        <pt x="186" y="693" on="1"/>
        <pt x="226" y="651" on="0"/>
        <pt x="318" y="536" on="0"/>
        <pt x="411" y="412" on="0"/>
        <pt x="498" y="287" on="0"/>
        <pt x="532" y="233" on="1"/>
        <pt x="532" y="693" on="1"/>
        <pt x="657" y="693" on="1"/>
        <pt x="657" y="0" on="1"/>
      </contour>
    </TTGlyph>
    <TTGlyph name="Nacute" xMin="83" yMin="0" xMax="657" yMax="970">
      <component glyphName="N" x="0" y="0" flags="0x204"/>
      <component glyphName="acute" x="186" y="162" flags="0x4"/>
    </TTGlyph>
    <TTGlyph name="Ncaron" xMin="83" yMin="0" xMax="657" yMax="937">
      <component glyphName="N" x="0" y="0" flags="0x204"/>
      <component glyphName="caron" x="168" y="158" flags="0x4"/>
    </TTGlyph>
    <TTGlyph name="Ncommaaccent" xMin="83" yMin="-204" xMax="657" yMax="693">
      <component glyphName="N" x="0" y="0" flags="0x204"/>
      <component glyphName="commaaccent" x="242" y="0" flags="0x4"/>
    </TTGlyph>
    <TTGlyph name="Ntilde" xMin="83" yMin="0" xMax="657" yMax="905">
      <component glyphName="N" x="0" y="0" flags="0x204"/>
      <component glyphName="tilde" x="176" y="159" flags="0x4"/>
    </TTGlyph>
    <TTGlyph name="Nu" xMin="83" yMin="0" xMax="657" yMax="693">
      <component glyphName="N" x="0" y="0" flags="0x204"/>
    </TTGlyph>
    <TTGlyph name="O" xMin="55" yMin="-15" xMax="727" yMax="709">
      <contour>
        <pt x="186" y="347" on="1"/>
        <pt x="186" y="290" on="0"/>
        <pt x="214" y="197" on="0"/>
        <pt x="267" y="132" on="0"/>
        <pt x="343" y="96" on="0"/>
        <pt x="391" y="96" on="1"/>
        <pt x="438" y="96" on="0"/>
        <pt x="514" y="132" on="0"/>
        <pt x="567" y="197" on="0"/>
        <pt x="595" y="290" on="0"/>
        <pt x="595" y="347" on="1"/>
        <pt x="595" y="404" on="0"/>
        <pt x="567" y="497" on="0"/>
        <pt x="514" y="562" on="0"/>
        <pt x="438" y="598" on="0"/>
        <pt x="391" y="598" on="1"/>
        <pt x="343" y="598" on="0"/>
        <pt x="267" y="562" on="0"/>
        <pt x="214" y="496" on="0"/>
        <pt x="186" y="404" on="0"/>
      </contour>
      <contour>
        <pt x="727" y="347" on="1"/>
        <pt x="727" y="258" on="0"/>
        <pt x="674" y="122" on="0"/>
        <pt x="583" y="31" on="0"/>
        <pt x="461" y="-15" on="0"/>
        <pt x="392" y="-15" on="1"/>
        <pt x="323" y="-15" on="0"/>
        <pt x="200" y="31" on="0"/>
        <pt x="109" y="122" on="0"/>
        <pt x="55" y="258" on="0"/>
        <pt x="55" y="347" on="1"/>
        <pt x="55" y="436" on="0"/>
        <pt x="109" y="571" on="0"/>
        <pt x="202" y="663" on="0"/>
        <pt x="324" y="709" on="0"/>
        <pt x="392" y="709" on="1"/>
        <pt x="460" y="709" on="0"/>
        <pt x="582" y="663" on="0"/>
        <pt x="673" y="571" on="0"/>
        <pt x="727" y="436" on="0"/>
      </contour>
    </TTGlyph>
    <TTGlyph name="OE" xMin="55" yMin="-7" xMax="960" yMax="699">
      <contour>
        <pt x="544" y="0" on="1"/>
        <pt x="520" y="-3" on="0"/>
        <pt x="463" y="-7" on="0"/>
        <pt x="440" y="-7" on="1"/>
        <pt x="356" y="-7" on="0"/>
        <pt x="214" y="36" on="0"/>
        <pt x="112" y="124" on="0"/>
        <pt x="55" y="257" on="0"/>
        <pt x="55" y="347" on="1"/>
        <pt x="55" y="437" on="0"/>
        <pt x="112" y="569" on="0"/>
        <pt x="215" y="656" on="0"/>
        <pt x="356" y="699" on="0"/>
        <pt x="440" y="699" on="1"/>
        <pt x="463" y="699" on="0"/>
        <pt x="520" y="696" on="0"/>
        <pt x="544" y="693" on="1"/>
        <pt x="936" y="693" on="1"/>
        <pt x="936" y="587" on="1"/>
        <pt x="633" y="587" on="1"/>
        <pt x="633" y="414" on="1"/>
        <pt x="900" y="414" on="1"/>
        <pt x="900" y="311" on="1"/>
        <pt x="633" y="311" on="1"/>
        <pt x="633" y="106" on="1"/>
        <pt x="960" y="106" on="1"/>
        <pt x="960" y="0" on="1"/>
      </contour>
      <contour>
        <pt x="439" y="101" on="1"/>
        <pt x="476" y="101" on="0"/>
        <pt x="509" y="104" on="1"/>
        <pt x="509" y="588" on="1"/>
        <pt x="488" y="590" on="0"/>
        <pt x="456" y="591" on="0"/>
        <pt x="439" y="591" on="1"/>
        <pt x="317" y="591" on="0"/>
        <pt x="186" y="464" on="0"/>
        <pt x="186" y="347" on="1"/>
        <pt x="186" y="229" on="0"/>
        <pt x="317" y="101" on="0"/>
      </contour>
    </TTGlyph>
    <TTGlyph name="Oacute" xMin="55" yMin="-15" xMax="727" yMax="970">
      <component glyphName="O" x="0" y="0" flags="0x204"/>
      <component glyphName="acute" x="233" y="162" flags="0x4"/>
    </TTGlyph>
    <TTGlyph name="Obreve" xMin="55" yMin="-15" xMax="727" yMax="910">
      <component glyphName="O" x="0" y="0" flags="0x204"/>
      <component glyphName="breve" x="188" y="154" flags="0x4"/>
    </TTGlyph>
    <TTGlyph name="Ocircumflex" xMin="55" yMin="-15" xMax="727" yMax="936">
      <component glyphName="O" x="0" y="0" flags="0x204"/>
      <component glyphName="circumflex" x="196" y="161" flags="0x4"/>
    </TTGlyph>
    <TTGlyph name="Odieresis" xMin="55" yMin="-15" xMax="727" yMax="902">
      <component glyphName="O" x="0" y="0" flags="0x204"/>
      <component glyphName="dieresis" x="185" y="158" flags="0x4"/>
    </TTGlyph>
    <TTGlyph name="Ograve" xMin="55" yMin="-15" xMax="727" yMax="970">
      <component glyphName="O" x="0" y="0" flags="0x204"/>
      <component glyphName="grave" x="154" y="162" flags="0x4"/>
    </TTGlyph>
    <TTGlyph name="Ohorn" xMin="55" yMin="-15" xMax="727" yMax="801">
      <contour>
        <pt x="727" y="347" on="1"/>
        <pt x="727" y="258" on="0"/>
        <pt x="674" y="122" on="0"/>
        <pt x="583" y="31" on="0"/>
        <pt x="461" y="-15" on="0"/>
        <pt x="392" y="-15" on="1"/>
        <pt x="323" y="-15" on="0"/>
        <pt x="200" y="31" on="0"/>
        <pt x="109" y="122" on="0"/>
        <pt x="55" y="258" on="0"/>
        <pt x="55" y="347" on="1"/>
        <pt x="55" y="436" on="0"/>
        <pt x="109" y="571" on="0"/>
        <pt x="202" y="663" on="0"/>
        <pt x="324" y="709" on="0"/>
        <pt x="392" y="709" on="1"/>
        <pt x="445" y="709" on="0"/>
        <pt x="541" y="681" on="0"/>
        <pt x="583" y="653" on="1"/>
        <pt x="600" y="679" on="0"/>
        <pt x="610" y="727" on="0"/>
        <pt x="610" y="757" on="1"/>
        <pt x="610" y="768" on="0"/>
        <pt x="609" y="791" on="0"/>
        <pt x="608" y="801" on="1"/>
        <pt x="724" y="801" on="1"/>
        <pt x="727" y="775" on="0"/>
        <pt x="727" y="756" on="1"/>
        <pt x="727" y="659" on="0"/>
        <pt x="653" y="588" on="1"/>
        <pt x="688" y="543" on="0"/>
        <pt x="727" y="423" on="0"/>
      </contour>
      <contour>
        <pt x="186" y="347" on="1"/>
        <pt x="186" y="290" on="0"/>
        <pt x="214" y="197" on="0"/>
        <pt x="267" y="132" on="0"/>
        <pt x="343" y="96" on="0"/>
        <pt x="391" y="96" on="1"/>
        <pt x="438" y="96" on="0"/>
        <pt x="514" y="132" on="0"/>
        <pt x="567" y="197" on="0"/>
        <pt x="595" y="290" on="0"/>
        <pt x="595" y="347" on="1"/>
        <pt x="595" y="404" on="0"/>
        <pt x="567" y="497" on="0"/>
        <pt x="514" y="562" on="0"/>
        <pt x="438" y="598" on="0"/>
        <pt x="391" y="598" on="1"/>
        <pt x="343" y="598" on="0"/>
        <pt x="267" y="562" on="0"/>
        <pt x="214" y="496" on="0"/>
        <pt x="186" y="404" on="0"/>
      </contour>
    </TTGlyph>
    <TTGlyph name="Ohungarumlaut" xMin="55" yMin="-15" xMax="727" yMax="946">
      <component glyphName="O" x="0" y="0" flags="0x204"/>
      <component glyphName="hungarumlaut" x="213" y="159" flags="0x4"/>
    </TTGlyph>
    <TTGlyph name="Omacron" xMin="55" yMin="-15" xMax="727" yMax="872">
      <component glyphName="O" x="0" y="0" flags="0x204"/>
      <component glyphName="macron" x="196" y="154" flags="0x4"/>
    </TTGlyph>
    <TTGlyph name="Omega" xMin="49" yMin="0" xMax="740" yMax="709">
      <contour>
        <pt x="395" y="709" on="1"/>
        <pt x="463" y="709" on="0"/>
        <pt x="583" y="666" on="0"/>
        <pt x="673" y="581" on="0"/>
        <pt x="725" y="457" on="0"/>
        <pt x="725" y="376" on="1"/>
        <pt x="725" y="292" on="0"/>
        <pt x="656" y="156" on="0"/>
        <pt x="607" y="105" on="1"/>
        <pt x="740" y="105" on="1"/>
        <pt x="740" y="0" on="1"/>
        <pt x="455" y="0" on="1"/>
        <pt x="455" y="92" on="1"/>
        <pt x="484" y="116" on="0"/>
        <pt x="534" y="173" on="0"/>
        <pt x="572" y="241" on="0"/>
        <pt x="593" y="323" on="0"/>
        <pt x="593" y="373" on="1"/>
        <pt x="593" y="481" on="0"/>
        <pt x="486" y="599" on="0"/>
        <pt x="395" y="599" on="1"/>
        <pt x="304" y="599" on="0"/>
        <pt x="196" y="481" on="0"/>
        <pt x="196" y="373" on="1"/>
        <pt x="196" y="323" on="0"/>
        <pt x="217" y="241" on="0"/>
        <pt x="254" y="172" on="0"/>
        <pt x="305" y="116" on="0"/>
        <pt x="334" y="92" on="1"/>
        <pt x="334" y="0" on="1"/>
        <pt x="49" y="0" on="1"/>
        <pt x="49" y="105" on="1"/>
        <pt x="182" y="105" on="1"/>
        <pt x="133" y="156" on="0"/>
        <pt x="65" y="292" on="0"/>
        <pt x="65" y="376" on="1"/>
        <pt x="65" y="457" on="0"/>
        <pt x="117" y="581" on="0"/>
        <pt x="207" y="666" on="0"/>
        <pt x="327" y="709" on="0"/>
      </contour>
    </TTGlyph>
    <TTGlyph name="Omegatonos" xMin="-32" yMin="0" xMax="776" yMax="712">
      <component glyphName="Omega" x="36" y="0" flags="0x4"/>
      <component glyphName="tonos.cap" x="-148" y="0" flags="0x4"/>
    </TTGlyph>
    <TTGlyph name="Omicron" xMin="55" yMin="-15" xMax="727" yMax="709">
      <component glyphName="O" x="0" y="0" flags="0x204"/>
    </TTGlyph>
    <TTGlyph name="Omicrontonos" xMin="-32" yMin="-15" xMax="774" yMax="712">
      <component glyphName="O" x="47" y="0" flags="0x4"/>
      <component glyphName="tonos.cap" x="-148" y="0" flags="0x4"/>
    </TTGlyph>
    <TTGlyph name="Oslash" xMin="55" yMin="-41" xMax="727" yMax="734">
      <contour>
        <pt x="727" y="347" on="1"/>
        <pt x="727" y="258" on="0"/>
        <pt x="674" y="122" on="0"/>
        <pt x="583" y="31" on="0"/>
        <pt x="461" y="-15" on="0"/>
        <pt x="392" y="-15" on="1"/>
        <pt x="341" y="-15" on="0"/>
        <pt x="247" y="10" on="0"/>
        <pt x="207" y="35" on="1"/>
        <pt x="149" y="-41" on="1"/>
        <pt x="76" y="14" on="1"/>
        <pt x="138" y="94" on="1"/>
        <pt x="99" y="139" on="0"/>
        <pt x="55" y="266" on="0"/>
        <pt x="55" y="347" on="1"/>
        <pt x="55" y="436" on="0"/>
        <pt x="109" y="571" on="0"/>
        <pt x="202" y="663" on="0"/>
        <pt x="324" y="709" on="0"/>
        <pt x="392" y="709" on="1"/>
        <pt x="442" y="709" on="0"/>
        <pt x="534" y="684" on="0"/>
        <pt x="574" y="659" on="1"/>
        <pt x="632" y="734" on="1"/>
        <pt x="706" y="679" on="1"/>
        <pt x="644" y="599" on="1"/>
        <pt x="682" y="554" on="0"/>
        <pt x="727" y="428" on="0"/>
      </contour>
      <contour>
        <pt x="186" y="347" on="1"/>
        <pt x="186" y="260" on="0"/>
        <pt x="218" y="199" on="1"/>
        <pt x="501" y="565" on="1"/>
        <pt x="454" y="598" on="0"/>
        <pt x="391" y="598" on="1"/>
        <pt x="343" y="598" on="0"/>
        <pt x="267" y="562" on="0"/>
        <pt x="214" y="496" on="0"/>
        <pt x="186" y="404" on="0"/>
      </contour>
      <contour>
        <pt x="595" y="347" on="1"/>
        <pt x="595" y="390" on="0"/>
        <pt x="578" y="464" on="0"/>
        <pt x="563" y="494" on="1"/>
        <pt x="280" y="128" on="1"/>
        <pt x="326" y="96" on="0"/>
        <pt x="391" y="96" on="1"/>
        <pt x="438" y="96" on="0"/>
        <pt x="514" y="132" on="0"/>
        <pt x="567" y="197" on="0"/>
        <pt x="595" y="290" on="0"/>
      </contour>
    </TTGlyph>
    <TTGlyph name="Oslashacute" xMin="55" yMin="-41" xMax="727" yMax="970">
      <component glyphName="Oslash" x="0" y="0" flags="0x204"/>
      <component glyphName="acute" x="233" y="162" flags="0x4"/>
    </TTGlyph>
    <TTGlyph name="Otilde" xMin="55" yMin="-15" xMax="727" yMax="905">
      <component glyphName="O" x="0" y="0" flags="0x204"/>
      <component glyphName="tilde" x="197" y="159" flags="0x4"/>
    </TTGlyph>
    <TTGlyph name="P" xMin="83" yMin="0" xMax="591" yMax="700">
      <contour>
        <pt x="279" y="700" on="1"/>
        <pt x="430" y="700" on="0"/>
        <pt x="591" y="590" on="0"/>
        <pt x="591" y="473" on="1"/>
        <pt x="591" y="412" on="0"/>
        <pt x="548" y="325" on="0"/>
        <pt x="466" y="270" on="0"/>
        <pt x="348" y="244" on="0"/>
        <pt x="272" y="244" on="1"/>
        <pt x="209" y="244" on="1"/>
        <pt x="209" y="0" on="1"/>
        <pt x="83" y="0" on="1"/>
        <pt x="83" y="683" on="1"/>
        <pt x="127" y="693" on="0"/>
        <pt x="234" y="700" on="0"/>
      </contour>
      <contour>
        <pt x="288" y="591" on="1"/>
        <pt x="240" y="591" on="0"/>
        <pt x="209" y="588" on="1"/>
        <pt x="209" y="352" on="1"/>
        <pt x="270" y="352" on="1"/>
        <pt x="361" y="352" on="0"/>
        <pt x="459" y="403" on="0"/>
        <pt x="459" y="474" on="1"/>
        <pt x="459" y="508" on="0"/>
        <pt x="433" y="554" on="0"/>
        <pt x="387" y="580" on="0"/>
        <pt x="324" y="591" on="0"/>
      </contour>
    </TTGlyph>
    <TTGlyph name="Parenleft" xMin="75" yMin="-138" xMax="335" yMax="830">
      <component glyphName="parenleft" x="0" y="47" flags="0x214"/>
    </TTGlyph>
    <TTGlyph name="Parenright" xMin="4" yMin="-138" xMax="264" yMax="830">
      <component glyphName="parenright" x="0" y="47" flags="0x214"/>
    </TTGlyph>
    <TTGlyph name="Phi" xMin="50" yMin="0" xMax="815" yMax="738">
      <contour>
        <pt x="371" y="554" on="1"/>
        <pt x="283" y="549" on="0"/>
        <pt x="178" y="451" on="0"/>
        <pt x="178" y="370" on="1"/>
        <pt x="178" y="329" on="0"/>
        <pt x="205" y="263" on="0"/>
        <pt x="256" y="216" on="0"/>
        <pt x="327" y="189" on="0"/>
        <pt x="371" y="188" on="1"/>
      </contour>
      <contour>
        <pt x="371" y="0" on="1"/>
        <pt x="371" y="83" on="1"/>
        <pt x="299" y="85" on="0"/>
        <pt x="181" y="129" on="0"/>
        <pt x="96" y="205" on="0"/>
        <pt x="50" y="308" on="0"/>
        <pt x="50" y="369" on="1"/>
        <pt x="50" y="429" on="0"/>
        <pt x="96" y="532" on="0"/>
        <pt x="181" y="609" on="0"/>
        <pt x="299" y="655" on="0"/>
        <pt x="371" y="659" on="1"/>
        <pt x="371" y="738" on="1"/>
        <pt x="494" y="738" on="1"/>
        <pt x="494" y="659" on="1"/>
        <pt x="566" y="655" on="0"/>
        <pt x="684" y="609" on="0"/>
        <pt x="768" y="532" on="0"/>
        <pt x="815" y="429" on="0"/>
        <pt x="815" y="369" on="1"/>
        <pt x="815" y="308" on="0"/>
        <pt x="768" y="205" on="0"/>
        <pt x="684" y="129" on="0"/>
        <pt x="566" y="85" on="0"/>
        <pt x="494" y="83" on="1"/>
        <pt x="494" y="0" on="1"/>
      </contour>
      <contour>
        <pt x="494" y="188" on="1"/>
        <pt x="537" y="189" on="0"/>
        <pt x="609" y="216" on="0"/>
        <pt x="659" y="263" on="0"/>
        <pt x="687" y="329" on="0"/>
        <pt x="687" y="370" on="1"/>
        <pt x="687" y="451" on="0"/>
        <pt x="582" y="549" on="0"/>
        <pt x="494" y="554" on="1"/>
      </contour>
    </TTGlyph>
    <TTGlyph name="Pi" xMin="83" yMin="0" xMax="631" yMax="693">
      <component glyphName="afii10033" x="0" y="0" flags="0x204"/>
    </TTGlyph>
    <TTGlyph name="Psi" xMin="62" yMin="0" xMax="762" yMax="693">
      <contour>
        <pt x="472" y="0" on="1"/>
        <pt x="351" y="0" on="1"/>
        <pt x="351" y="171" on="1"/>
        <pt x="274" y="173" on="0"/>
        <pt x="165" y="216" on="0"/>
        <pt x="95" y="291" on="0"/>
        <pt x="62" y="394" on="0"/>
        <pt x="62" y="456" on="1"/>
        <pt x="62" y="693" on="1"/>
        <pt x="184" y="693" on="1"/>
        <pt x="184" y="471" on="1"/>
        <pt x="184" y="370" on="0"/>
        <pt x="270" y="279" on="0"/>
        <pt x="350" y="276" on="1"/>
        <pt x="350" y="693" on="1"/>
        <pt x="473" y="693" on="1"/>
        <pt x="473" y="276" on="1"/>
        <pt x="552" y="279" on="0"/>
        <pt x="639" y="370" on="0"/>
        <pt x="639" y="471" on="1"/>
        <pt x="639" y="693" on="1"/>
        <pt x="762" y="693" on="1"/>
        <pt x="762" y="456" on="1"/>
        <pt x="762" y="394" on="0"/>
        <pt x="729" y="291" on="0"/>
        <pt x="659" y="216" on="0"/>
        <pt x="549" y="173" on="0"/>
        <pt x="472" y="171" on="1"/>
      </contour>
    </TTGlyph>
    <TTGlyph name="Q" xMin="55" yMin="-187" xMax="727" yMax="709">
      <contour>
        <pt x="186" y="347" on="1"/>
        <pt x="186" y="290" on="0"/>
        <pt x="214" y="197" on="0"/>
        <pt x="267" y="132" on="0"/>
        <pt x="343" y="96" on="0"/>
        <pt x="391" y="96" on="1"/>
        <pt x="438" y="96" on="0"/>
        <pt x="514" y="132" on="0"/>
        <pt x="567" y="197" on="0"/>
        <pt x="595" y="290" on="0"/>
        <pt x="595" y="347" on="1"/>
        <pt x="595" y="404" on="0"/>
        <pt x="567" y="497" on="0"/>
        <pt x="514" y="562" on="0"/>
        <pt x="438" y="598" on="0"/>
        <pt x="391" y="598" on="1"/>
        <pt x="343" y="598" on="0"/>
        <pt x="267" y="562" on="0"/>
        <pt x="214" y="496" on="0"/>
        <pt x="186" y="404" on="0"/>
      </contour>
      <contour>
        <pt x="727" y="347" on="1"/>
        <pt x="727" y="272" on="0"/>
        <pt x="689" y="152" on="0"/>
        <pt x="621" y="63" on="0"/>
        <pt x="530" y="7" on="0"/>
        <pt x="476" y="-5" on="1"/>
        <pt x="479" y="-26" on="0"/>
        <pt x="515" y="-56" on="0"/>
        <pt x="570" y="-76" on="0"/>
        <pt x="641" y="-89" on="0"/>
        <pt x="680" y="-92" on="1"/>
        <pt x="652" y="-187" on="1"/>
        <pt x="523" y="-177" on="0"/>
        <pt x="371" y="-98" on="0"/>
        <pt x="350" y="-12" on="1"/>
        <pt x="288" y="-6" on="0"/>
        <pt x="181" y="46" on="0"/>
        <pt x="101" y="136" on="0"/>
        <pt x="55" y="264" on="0"/>
        <pt x="55" y="347" on="1"/>
        <pt x="55" y="436" on="0"/>
        <pt x="109" y="571" on="0"/>
        <pt x="202" y="663" on="0"/>
        <pt x="324" y="709" on="0"/>
        <pt x="392" y="709" on="1"/>
        <pt x="460" y="709" on="0"/>
        <pt x="582" y="663" on="0"/>
        <pt x="673" y="571" on="0"/>
        <pt x="727" y="436" on="0"/>
      </contour>
    </TTGlyph>
    <TTGlyph name="Questiondown" xMin="24" yMin="-15" xMax="408" yMax="707">
      <component glyphName="questiondown" x="0" y="184" flags="0x214"/>
    </TTGlyph>
    <TTGlyph name="R" xMin="83" yMin="0" xMax="625" yMax="700">
      <contour>
        <pt x="274" y="700" on="1"/>
        <pt x="424" y="700" on="0"/>
        <pt x="583" y="590" on="0"/>
        <pt x="583" y="477" on="1"/>
        <pt x="583" y="336" on="0"/>
        <pt x="444" y="286" on="1"/>
        <pt x="463" y="263" on="0"/>
        <pt x="511" y="197" on="0"/>
        <pt x="561" y="120" on="0"/>
        <pt x="607" y="39" on="0"/>
        <pt x="625" y="0" on="1"/>
        <pt x="484" y="0" on="1"/>
        <pt x="465" y="36" on="0"/>
        <pt x="421" y="109" on="0"/>
        <pt x="376" y="178" on="0"/>
        <pt x="332" y="239" on="0"/>
        <pt x="313" y="263" on="1"/>
        <pt x="299" y="262" on="0"/>
        <pt x="279" y="262" on="0"/>
        <pt x="270" y="262" on="1"/>
        <pt x="209" y="262" on="1"/>
        <pt x="209" y="0" on="1"/>
        <pt x="83" y="0" on="1"/>
        <pt x="83" y="683" on="1"/>
        <pt x="129" y="693" on="0"/>
        <pt x="233" y="700" on="0"/>
      </contour>
      <contour>
        <pt x="283" y="591" on="1"/>
        <pt x="243" y="591" on="0"/>
        <pt x="209" y="588" on="1"/>
        <pt x="209" y="364" on="1"/>
        <pt x="264" y="364" on="1"/>
        <pt x="310" y="364" on="0"/>
        <pt x="380" y="374" on="0"/>
        <pt x="427" y="400" on="0"/>
        <pt x="451" y="444" on="0"/>
        <pt x="451" y="478" on="1"/>
        <pt x="451" y="510" on="0"/>
        <pt x="427" y="554" on="0"/>
        <pt x="382" y="580" on="0"/>
        <pt x="320" y="591" on="0"/>
      </contour>
    </TTGlyph>
    <TTGlyph name="Racute" xMin="83" yMin="0" xMax="625" yMax="970">
      <component glyphName="R" x="0" y="0" flags="0x204"/>
      <component glyphName="acute" x="123" y="162" flags="0x4"/>
    </TTGlyph>
    <TTGlyph name="Rcaron" xMin="83" yMin="0" xMax="625" yMax="937">
      <component glyphName="R" x="0" y="0" flags="0x204"/>
      <component glyphName="caron" x="109" y="158" flags="0x4"/>
    </TTGlyph>
    <TTGlyph name="Rcommaaccent" xMin="83" yMin="-204" xMax="625" yMax="700">
      <component glyphName="R" x="0" y="0" flags="0x204"/>
      <component glyphName="commaaccent" x="204" y="0" flags="0x4"/>
    </TTGlyph>
    <TTGlyph name="Rho" xMin="83" yMin="0" xMax="591" yMax="700">
      <component glyphName="P" x="0" y="0" flags="0x204"/>
    </TTGlyph>
    <TTGlyph name="S" xMin="30" yMin="-15" xMax="512" yMax="709">
      <contour>
        <pt x="251" y="94" on="1"/>
        <pt x="319" y="94" on="0"/>
        <pt x="381" y="140" on="0"/>
        <pt x="381" y="182" on="1"/>
        <pt x="381" y="207" on="0"/>
        <pt x="360" y="243" on="0"/>
        <pt x="321" y="272" on="0"/>
        <pt x="265" y="297" on="0"/>
        <pt x="229" y="309" on="1"/>
        <pt x="193" y="322" on="0"/>
        <pt x="126" y="353" on="0"/>
        <pt x="75" y="399" on="0"/>
        <pt x="44" y="463" on="0"/>
        <pt x="44" y="508" on="1"/>
        <pt x="44" y="602" on="0"/>
        <pt x="174" y="709" on="0"/>
        <pt x="286" y="709" on="1"/>
        <pt x="351" y="709" on="0"/>
        <pt x="452" y="680" on="0"/>
        <pt x="481" y="663" on="1"/>
        <pt x="442" y="561" on="1"/>
        <pt x="408" y="580" on="0"/>
        <pt x="327" y="600" on="0"/>
        <pt x="284" y="600" on="1"/>
        <pt x="233" y="600" on="0"/>
        <pt x="176" y="558" on="0"/>
        <pt x="176" y="520" on="1"/>
        <pt x="176" y="497" on="0"/>
        <pt x="195" y="464" on="0"/>
        <pt x="230" y="438" on="0"/>
        <pt x="277" y="416" on="0"/>
        <pt x="305" y="406" on="1"/>
        <pt x="354" y="388" on="0"/>
        <pt x="431" y="351" on="0"/>
        <pt x="484" y="300" on="0"/>
        <pt x="512" y="231" on="0"/>
        <pt x="512" y="182" on="1"/>
        <pt x="512" y="88" on="0"/>
        <pt x="379" y="-15" on="0"/>
        <pt x="251" y="-15" on="1"/>
        <pt x="208" y="-15" on="0"/>
        <pt x="137" y="-4" on="0"/>
        <pt x="82" y="12" on="0"/>
        <pt x="42" y="29" on="0"/>
        <pt x="30" y="36" on="1"/>
        <pt x="67" y="139" on="1"/>
        <pt x="94" y="124" on="0"/>
        <pt x="186" y="94" on="0"/>
      </contour>
    </TTGlyph>
    <TTGlyph name="Sacute" xMin="30" yMin="-15" xMax="512" yMax="970">
      <component glyphName="S" x="0" y="0" flags="0x204"/>
      <component glyphName="acute" x="101" y="162" flags="0x4"/>
    </TTGlyph>
    <TTGlyph name="Scaron" xMin="30" yMin="-15" xMax="512" yMax="937">
      <component glyphName="S" x="0" y="0" flags="0x204"/>
      <component glyphName="caron" x="88" y="158" flags="0x4"/>
    </TTGlyph>
    <TTGlyph name="Scedilla" xMin="30" yMin="-205" xMax="512" yMax="709">
      <contour>
        <pt x="251" y="94" on="1"/>
        <pt x="319" y="94" on="0"/>
        <pt x="381" y="140" on="0"/>
        <pt x="381" y="182" on="1"/>
        <pt x="381" y="207" on="0"/>
        <pt x="360" y="243" on="0"/>
        <pt x="321" y="272" on="0"/>
        <pt x="265" y="297" on="0"/>
        <pt x="229" y="309" on="1"/>
        <pt x="193" y="322" on="0"/>
        <pt x="126" y="353" on="0"/>
        <pt x="75" y="399" on="0"/>
        <pt x="44" y="463" on="0"/>
        <pt x="44" y="508" on="1"/>
        <pt x="44" y="602" on="0"/>
        <pt x="174" y="709" on="0"/>
        <pt x="286" y="709" on="1"/>
        <pt x="351" y="709" on="0"/>
        <pt x="452" y="680" on="0"/>
        <pt x="481" y="663" on="1"/>
        <pt x="442" y="561" on="1"/>
        <pt x="408" y="580" on="0"/>
        <pt x="327" y="600" on="0"/>
        <pt x="284" y="600" on="1"/>
        <pt x="233" y="600" on="0"/>
        <pt x="176" y="558" on="0"/>
        <pt x="176" y="520" on="1"/>
        <pt x="176" y="497" on="0"/>
        <pt x="195" y="464" on="0"/>
        <pt x="230" y="438" on="0"/>
        <pt x="277" y="416" on="0"/>
        <pt x="305" y="406" on="1"/>
        <pt x="354" y="388" on="0"/>
        <pt x="431" y="351" on="0"/>
        <pt x="484" y="300" on="0"/>
        <pt x="512" y="231" on="0"/>
        <pt x="512" y="182" on="1"/>
        <pt x="512" y="98" on="0"/>
        <pt x="408" y="-1" on="0"/>
        <pt x="308" y="-12" on="1"/>
        <pt x="304" y="-20" on="0"/>
        <pt x="297" y="-33" on="0"/>
        <pt x="295" y="-39" on="1"/>
        <pt x="327" y="-54" on="0"/>
        <pt x="352" y="-92" on="0"/>
        <pt x="352" y="-120" on="1"/>
        <pt x="352" y="-155" on="0"/>
        <pt x="292" y="-205" on="0"/>
        <pt x="232" y="-205" on="1"/>
        <pt x="184" y="-205" on="0"/>
        <pt x="147" y="-192" on="1"/>
        <pt x="161" y="-120" on="1"/>
        <pt x="171" y="-123" on="0"/>
        <pt x="203" y="-131" on="0"/>
        <pt x="220" y="-131" on="1"/>
        <pt x="237" y="-131" on="0"/>
        <pt x="256" y="-119" on="0"/>
        <pt x="256" y="-107" on="1"/>
        <pt x="256" y="-91" on="0"/>
        <pt x="228" y="-76" on="0"/>
        <pt x="214" y="-71" on="1"/>
        <pt x="204" y="-68" on="1"/>
        <pt x="208" y="-57" on="0"/>
        <pt x="220" y="-28" on="0"/>
        <pt x="226" y="-14" on="1"/>
        <pt x="150" y="-11" on="0"/>
        <pt x="53" y="23" on="0"/>
        <pt x="30" y="36" on="1"/>
        <pt x="67" y="139" on="1"/>
        <pt x="94" y="124" on="0"/>
        <pt x="186" y="94" on="0"/>
      </contour>
    </TTGlyph>
    <TTGlyph name="Scircumflex" xMin="30" yMin="-15" xMax="512" yMax="936">
      <component glyphName="S" x="0" y="0" flags="0x204"/>
      <component glyphName="circumflex" x="87" y="161" flags="0x4"/>
    </TTGlyph>
    <TTGlyph name="Scommaaccent" xMin="30" yMin="-204" xMax="512" yMax="709">
      <component glyphName="S" x="0" y="0" flags="0x204"/>
      <component glyphName="commaaccent" x="137" y="0" flags="0x4"/>
    </TTGlyph>
    <TTGlyph name="Sigma" xMin="30" yMin="0" xMax="537" yMax="693">
      <component glyphName="uni01A9" x="0" y="0" flags="0x204"/>
    </TTGlyph>
    <TTGlyph name="Slash" xMin="-27" yMin="-138" xMax="433" yMax="830">
      <component glyphName="slash" x="0" y="47" flags="0x214"/>
    </TTGlyph>
    <TTGlyph name="T" xMin="13" yMin="0" xMax="566" yMax="693">
      <contour>
        <pt x="566" y="693" on="1"/>
        <pt x="566" y="584" on="1"/>
        <pt x="353" y="584" on="1"/>
        <pt x="353" y="0" on="1"/>
        <pt x="226" y="0" on="1"/>
        <pt x="226" y="584" on="1"/>
        <pt x="13" y="584" on="1"/>
        <pt x="13" y="693" on="1"/>
      </contour>
    </TTGlyph>
    <TTGlyph name="Tau" xMin="13" yMin="0" xMax="566" yMax="693">
      <component glyphName="T" x="0" y="0" flags="0x204"/>
    </TTGlyph>
    <TTGlyph name="Tbar" xMin="13" yMin="0" xMax="566" yMax="693">
      <contour>
        <pt x="566" y="693" on="1"/>
        <pt x="566" y="584" on="1"/>
        <pt x="353" y="584" on="1"/>
        <pt x="353" y="385" on="1"/>
        <pt x="488" y="385" on="1"/>
        <pt x="488" y="292" on="1"/>
        <pt x="353" y="292" on="1"/>
        <pt x="353" y="0" on="1"/>
        <pt x="226" y="0" on="1"/>
        <pt x="226" y="292" on="1"/>
        <pt x="91" y="292" on="1"/>
        <pt x="91" y="385" on="1"/>
        <pt x="226" y="385" on="1"/>
        <pt x="226" y="584" on="1"/>
        <pt x="13" y="584" on="1"/>
        <pt x="13" y="693" on="1"/>
      </contour>
    </TTGlyph>
    <TTGlyph name="Tcaron" xMin="13" yMin="0" xMax="566" yMax="937">
      <component glyphName="T" x="0" y="0" flags="0x204"/>
      <component glyphName="caron" x="94" y="158" flags="0x4"/>
    </TTGlyph>
    <TTGlyph name="Theta" xMin="55" yMin="-15" xMax="727" yMax="709">
      <contour>
        <pt x="262" y="399" on="1"/>
        <pt x="519" y="399" on="1"/>
        <pt x="519" y="297" on="1"/>
        <pt x="262" y="297" on="1"/>
      </contour>
      <contour>
        <pt x="186" y="347" on="1"/>
        <pt x="186" y="290" on="0"/>
        <pt x="214" y="197" on="0"/>
        <pt x="267" y="132" on="0"/>
        <pt x="343" y="96" on="0"/>
        <pt x="391" y="96" on="1"/>
        <pt x="438" y="96" on="0"/>
        <pt x="514" y="132" on="0"/>
        <pt x="567" y="197" on="0"/>
        <pt x="595" y="290" on="0"/>
        <pt x="595" y="347" on="1"/>
        <pt x="595" y="404" on="0"/>
        <pt x="567" y="497" on="0"/>
        <pt x="514" y="562" on="0"/>
        <pt x="438" y="598" on="0"/>
        <pt x="391" y="598" on="1"/>
        <pt x="343" y="598" on="0"/>
        <pt x="267" y="562" on="0"/>
        <pt x="214" y="496" on="0"/>
        <pt x="186" y="404" on="0"/>
      </contour>
      <contour>
        <pt x="727" y="347" on="1"/>
        <pt x="727" y="258" on="0"/>
        <pt x="674" y="122" on="0"/>
        <pt x="583" y="31" on="0"/>
        <pt x="461" y="-15" on="0"/>
        <pt x="392" y="-15" on="1"/>
        <pt x="323" y="-15" on="0"/>
        <pt x="200" y="31" on="0"/>
        <pt x="109" y="122" on="0"/>
        <pt x="55" y="258" on="0"/>
        <pt x="55" y="347" on="1"/>
        <pt x="55" y="436" on="0"/>
        <pt x="109" y="571" on="0"/>
        <pt x="202" y="663" on="0"/>
        <pt x="324" y="709" on="0"/>
        <pt x="392" y="709" on="1"/>
        <pt x="460" y="709" on="0"/>
        <pt x="582" y="663" on="0"/>
        <pt x="673" y="571" on="0"/>
        <pt x="727" y="436" on="0"/>
      </contour>
    </TTGlyph>
    <TTGlyph name="Thorn" xMin="84" yMin="0" xMax="592" yMax="693">
      <contour>
        <pt x="286" y="589" on="1"/>
        <pt x="430" y="589" on="0"/>
        <pt x="592" y="481" on="0"/>
        <pt x="592" y="363" on="1"/>
        <pt x="592" y="302" on="0"/>
        <pt x="549" y="215" on="0"/>
        <pt x="467" y="160" on="0"/>
        <pt x="349" y="135" on="0"/>
        <pt x="273" y="135" on="1"/>
        <pt x="210" y="135" on="1"/>
        <pt x="210" y="0" on="1"/>
        <pt x="84" y="0" on="1"/>
        <pt x="84" y="693" on="1"/>
        <pt x="210" y="693" on="1"/>
        <pt x="210" y="586" on="1"/>
        <pt x="228" y="588" on="0"/>
        <pt x="269" y="589" on="0"/>
      </contour>
      <contour>
        <pt x="279" y="481" on="1"/>
        <pt x="256" y="481" on="0"/>
        <pt x="218" y="480" on="0"/>
        <pt x="210" y="479" on="1"/>
        <pt x="210" y="241" on="1"/>
        <pt x="271" y="241" on="1"/>
        <pt x="316" y="241" on="0"/>
        <pt x="387" y="252" on="0"/>
        <pt x="435" y="281" on="0"/>
        <pt x="460" y="328" on="0"/>
        <pt x="460" y="364" on="1"/>
        <pt x="460" y="398" on="0"/>
        <pt x="434" y="444" on="0"/>
        <pt x="386" y="470" on="0"/>
        <pt x="319" y="481" on="0"/>
      </contour>
    </TTGlyph>
    <TTGlyph name="U" xMin="78" yMin="-15" xMax="625" yMax="693">
      <contour>
        <pt x="350" y="-15" on="1"/>
        <pt x="279" y="-15" on="0"/>
        <pt x="177" y="26" on="0"/>
        <pt x="110" y="100" on="0"/>
        <pt x="78" y="200" on="0"/>
        <pt x="78" y="260" on="1"/>
        <pt x="78" y="693" on="1"/>
        <pt x="205" y="693" on="1"/>
        <pt x="205" y="272" on="1"/>
        <pt x="205" y="225" on="0"/>
        <pt x="226" y="158" on="0"/>
        <pt x="265" y="116" on="0"/>
        <pt x="318" y="96" on="0"/>
        <pt x="351" y="96" on="1"/>
        <pt x="384" y="96" on="0"/>
        <pt x="438" y="116" on="0"/>
        <pt x="477" y="158" on="0"/>
        <pt x="498" y="225" on="0"/>
        <pt x="498" y="272" on="1"/>
        <pt x="498" y="693" on="1"/>
        <pt x="625" y="693" on="1"/>
        <pt x="625" y="260" on="1"/>
        <pt x="625" y="200" on="0"/>
        <pt x="592" y="100" on="0"/>
        <pt x="525" y="26" on="0"/>
        <pt x="421" y="-15" on="0"/>
      </contour>
    </TTGlyph>
    <TTGlyph name="Uacute" xMin="78" yMin="-15" xMax="625" yMax="970">
      <component glyphName="U" x="0" y="0" flags="0x204"/>
      <component glyphName="acute" x="203" y="162" flags="0x4"/>
    </TTGlyph>
    <TTGlyph name="Ubreve" xMin="78" yMin="-15" xMax="625" yMax="910">
      <component glyphName="U" x="0" y="0" flags="0x204"/>
      <component glyphName="breve" x="148" y="154" flags="0x4"/>
    </TTGlyph>
    <TTGlyph name="Ucircumflex" xMin="78" yMin="-15" xMax="625" yMax="936">
      <component glyphName="U" x="0" y="0" flags="0x204"/>
      <component glyphName="circumflex" x="156" y="161" flags="0x4"/>
    </TTGlyph>
    <TTGlyph name="Udieresis" xMin="78" yMin="-15" xMax="625" yMax="902">
      <component glyphName="U" x="0" y="0" flags="0x204"/>
      <component glyphName="dieresis" x="149" y="158" flags="0x4"/>
    </TTGlyph>
    <TTGlyph name="Ugrave" xMin="78" yMin="-15" xMax="625" yMax="970">
      <component glyphName="U" x="0" y="0" flags="0x204"/>
      <component glyphName="grave" x="104" y="162" flags="0x4"/>
    </TTGlyph>
    <TTGlyph name="Uhorn" xMin="78" yMin="-15" xMax="748" yMax="801">
      <contour>
        <pt x="350" y="-15" on="1"/>
        <pt x="279" y="-15" on="0"/>
        <pt x="177" y="26" on="0"/>
        <pt x="110" y="100" on="0"/>
        <pt x="78" y="200" on="0"/>
        <pt x="78" y="260" on="1"/>
        <pt x="78" y="693" on="1"/>
        <pt x="205" y="693" on="1"/>
        <pt x="205" y="272" on="1"/>
        <pt x="205" y="225" on="0"/>
        <pt x="226" y="158" on="0"/>
        <pt x="265" y="116" on="0"/>
        <pt x="318" y="96" on="0"/>
        <pt x="351" y="96" on="1"/>
        <pt x="384" y="96" on="0"/>
        <pt x="438" y="116" on="0"/>
        <pt x="477" y="158" on="0"/>
        <pt x="498" y="225" on="0"/>
        <pt x="498" y="272" on="1"/>
        <pt x="498" y="693" on="1"/>
        <pt x="563" y="693" on="1"/>
        <pt x="598" y="693" on="0"/>
        <pt x="634" y="729" on="0"/>
        <pt x="634" y="759" on="1"/>
        <pt x="634" y="772" on="0"/>
        <pt x="633" y="793" on="0"/>
        <pt x="632" y="801" on="1"/>
        <pt x="746" y="801" on="1"/>
        <pt x="747" y="794" on="0"/>
        <pt x="748" y="766" on="0"/>
        <pt x="748" y="756" on="1"/>
        <pt x="748" y="733" on="0"/>
        <pt x="737" y="686" on="0"/>
        <pt x="709" y="647" on="0"/>
        <pt x="661" y="618" on="0"/>
        <pt x="625" y="612" on="1"/>
        <pt x="625" y="260" on="1"/>
        <pt x="625" y="200" on="0"/>
        <pt x="592" y="100" on="0"/>
        <pt x="525" y="26" on="0"/>
        <pt x="421" y="-15" on="0"/>
      </contour>
    </TTGlyph>
    <TTGlyph name="Uhungarumlaut" xMin="78" yMin="-15" xMax="625" yMax="946">
      <component glyphName="U" x="0" y="0" flags="0x204"/>
      <component glyphName="hungarumlaut" x="173" y="159" flags="0x4"/>
    </TTGlyph>
    <TTGlyph name="Umacron" xMin="78" yMin="-15" xMax="625" yMax="872">
      <component glyphName="U" x="0" y="0" flags="0x204"/>
      <component glyphName="macron" x="156" y="154" flags="0x4"/>
    </TTGlyph>
    <TTGlyph name="Uogonek" xMin="78" yMin="-204" xMax="625" yMax="693">
      <contour>
        <pt x="406" y="-204" on="1"/>
        <pt x="344" y="-204" on="0"/>
        <pt x="288" y="-159" on="0"/>
        <pt x="288" y="-121" on="1"/>
        <pt x="288" y="-92" on="0"/>
        <pt x="326" y="-38" on="0"/>
        <pt x="347" y="-15" on="1"/>
        <pt x="277" y="-14" on="0"/>
        <pt x="175" y="28" on="0"/>
        <pt x="109" y="101" on="0"/>
        <pt x="78" y="201" on="0"/>
        <pt x="78" y="260" on="1"/>
        <pt x="78" y="693" on="1"/>
        <pt x="205" y="693" on="1"/>
        <pt x="205" y="272" on="1"/>
        <pt x="205" y="225" on="0"/>
        <pt x="226" y="158" on="0"/>
        <pt x="265" y="116" on="0"/>
        <pt x="318" y="96" on="0"/>
        <pt x="351" y="96" on="1"/>
        <pt x="384" y="96" on="0"/>
        <pt x="438" y="116" on="0"/>
        <pt x="477" y="158" on="0"/>
        <pt x="498" y="225" on="0"/>
        <pt x="498" y="272" on="1"/>
        <pt x="498" y="693" on="1"/>
        <pt x="625" y="693" on="1"/>
        <pt x="625" y="260" on="1"/>
        <pt x="625" y="179" on="0"/>
        <pt x="568" y="57" on="0"/>
        <pt x="505" y="20" on="1"/>
        <pt x="480" y="4" on="0"/>
        <pt x="445" y="-21" on="0"/>
        <pt x="426" y="-40" on="1"/>
        <pt x="412" y="-54" on="0"/>
        <pt x="398" y="-78" on="0"/>
        <pt x="398" y="-91" on="1"/>
        <pt x="398" y="-118" on="0"/>
        <pt x="433" y="-118" on="1"/>
        <pt x="441" y="-118" on="0"/>
        <pt x="465" y="-115" on="0"/>
        <pt x="479" y="-110" on="1"/>
        <pt x="488" y="-191" on="1"/>
        <pt x="473" y="-197" on="0"/>
        <pt x="427" y="-204" on="0"/>
      </contour>
    </TTGlyph>
    <TTGlyph name="Upsilon" xMin="3" yMin="0" xMax="622" yMax="693">
      <component glyphName="Y" x="0" y="0" flags="0x204"/>
    </TTGlyph>
    <TTGlyph name="Upsilondieresis" xMin="3" yMin="0" xMax="622" yMax="905">
      <component glyphName="Y" x="0" y="0" flags="0x204"/>
      <component glyphName="dieresis" x="106" y="161" flags="0x4"/>
    </TTGlyph>
    <TTGlyph name="Upsilontonos" xMin="-32" yMin="0" xMax="771" yMax="712">
      <component glyphName="Y" x="149" y="0" flags="0x4"/>
      <component glyphName="tonos.cap" x="-148" y="0" flags="0x4"/>
    </TTGlyph>
    <TTGlyph name="Uring" xMin="78" yMin="-15" xMax="625" yMax="949">
      <component glyphName="U" x="0" y="0" flags="0x204"/>
      <component glyphName="ring" x="158" y="153" flags="0x4"/>
    </TTGlyph>
    <TTGlyph name="Utilde" xMin="78" yMin="-15" xMax="625" yMax="905">
      <component glyphName="U" x="0" y="0" flags="0x204"/>
      <component glyphName="tilde" x="158" y="159" flags="0x4"/>
    </TTGlyph>
    <TTGlyph name="V" xMin="7" yMin="0" xMax="676" yMax="693">
      <contour>
        <pt x="281" y="0" on="1"/>
        <pt x="206" y="162" on="0"/>
        <pt x="67" y="516" on="0"/>
        <pt x="7" y="693" on="1"/>
        <pt x="146" y="693" on="1"/>
        <pt x="170" y="623" on="0"/>
        <pt x="220" y="477" on="0"/>
        <pt x="270" y="336" on="0"/>
        <pt x="320" y="204" on="0"/>
        <pt x="344" y="149" on="1"/>
        <pt x="367" y="204" on="0"/>
        <pt x="417" y="335" on="0"/>
        <pt x="468" y="477" on="0"/>
        <pt x="518" y="623" on="0"/>
        <pt x="541" y="693" on="1"/>
        <pt x="676" y="693" on="1"/>
        <pt x="615" y="516" on="0"/>
        <pt x="477" y="162" on="0"/>
        <pt x="402" y="0" on="1"/>
      </contour>
    </TTGlyph>
    <TTGlyph name="W" xMin="25" yMin="0" xMax="915" yMax="693">
      <contour>
        <pt x="527" y="615" on="1"/>
        <pt x="543" y="561" on="0"/>
        <pt x="579" y="444" on="0"/>
        <pt x="618" y="327" on="0"/>
        <pt x="657" y="214" on="0"/>
        <pt x="675" y="164" on="1"/>
        <pt x="690" y="218" on="0"/>
        <pt x="718" y="345" on="0"/>
        <pt x="746" y="482" on="0"/>
        <pt x="773" y="624" on="0"/>
        <pt x="785" y="693" on="1"/>
        <pt x="915" y="693" on="1"/>
        <pt x="880" y="505" on="0"/>
        <pt x="794" y="158" on="0"/>
        <pt x="741" y="0" on="1"/>
        <pt x="621" y="0" on="1"/>
        <pt x="543" y="202" on="0"/>
        <pt x="470" y="441" on="1"/>
        <pt x="433" y="320" on="0"/>
        <pt x="357" y="102" on="0"/>
        <pt x="319" y="0" on="1"/>
        <pt x="199" y="0" on="1"/>
        <pt x="145" y="158" on="0"/>
        <pt x="60" y="505" on="0"/>
        <pt x="25" y="693" on="1"/>
        <pt x="160" y="693" on="1"/>
        <pt x="172" y="625" on="0"/>
        <pt x="199" y="483" on="0"/>
        <pt x="228" y="346" on="0"/>
        <pt x="258" y="218" on="0"/>
        <pt x="273" y="164" on="1"/>
        <pt x="292" y="215" on="0"/>
        <pt x="331" y="328" on="0"/>
        <pt x="369" y="445" on="0"/>
        <pt x="404" y="561" on="0"/>
        <pt x="419" y="615" on="1"/>
      </contour>
    </TTGlyph>
    <TTGlyph name="Wacute" xMin="25" yMin="0" xMax="915" yMax="965">
      <component glyphName="W" x="0" y="0" flags="0x204"/>
      <component glyphName="acute" x="291" y="157" flags="0x4"/>
    </TTGlyph>
    <TTGlyph name="Wcircumflex" xMin="25" yMin="0" xMax="915" yMax="931">
      <component glyphName="W" x="0" y="0" flags="0x204"/>
      <component glyphName="circumflex" x="275" y="156" flags="0x4"/>
    </TTGlyph>
    <TTGlyph name="Wdieresis" xMin="25" yMin="0" xMax="915" yMax="897">
      <component glyphName="W" x="0" y="0" flags="0x204"/>
      <component glyphName="dieresis" x="267" y="153" flags="0x4"/>
    </TTGlyph>
    <TTGlyph name="Wgrave" xMin="25" yMin="0" xMax="915" yMax="965">
      <component glyphName="W" x="0" y="0" flags="0x204"/>
      <component glyphName="grave" x="253" y="157" flags="0x4"/>
    </TTGlyph>
    <TTGlyph name="X" xMin="20" yMin="0" xMax="642" yMax="693">
      <contour>
        <pt x="494" y="0" on="1"/>
        <pt x="465" y="59" on="0"/>
        <pt x="377" y="201" on="0"/>
        <pt x="329" y="267" on="1"/>
        <pt x="309" y="241" on="0"/>
        <pt x="262" y="169" on="0"/>
        <pt x="215" y="94" on="0"/>
        <pt x="175" y="24" on="0"/>
        <pt x="163" y="0" on="1"/>
        <pt x="20" y="0" on="1"/>
        <pt x="65" y="85" on="0"/>
        <pt x="183" y="264" on="0"/>
        <pt x="252" y="362" on="1"/>
        <pt x="30" y="693" on="1"/>
        <pt x="180" y="693" on="1"/>
        <pt x="333" y="456" on="1"/>
        <pt x="484" y="693" on="1"/>
        <pt x="628" y="693" on="1"/>
        <pt x="409" y="363" on="1"/>
        <pt x="485" y="260" on="0"/>
        <pt x="602" y="76" on="0"/>
        <pt x="642" y="0" on="1"/>
      </contour>
    </TTGlyph>
    <TTGlyph name="Xi" xMin="34" yMin="0" xMax="517" yMax="693">
      <contour>
        <pt x="517" y="108" on="1"/>
        <pt x="517" y="0" on="1"/>
        <pt x="34" y="0" on="1"/>
        <pt x="34" y="108" on="1"/>
      </contour>
      <contour>
        <pt x="82" y="416" on="1"/>
        <pt x="468" y="416" on="1"/>
        <pt x="468" y="309" on="1"/>
        <pt x="82" y="309" on="1"/>
      </contour>
      <contour>
        <pt x="512" y="693" on="1"/>
        <pt x="512" y="584" on="1"/>
        <pt x="39" y="584" on="1"/>
        <pt x="39" y="693" on="1"/>
      </contour>
    </TTGlyph>
    <TTGlyph name="Y" xMin="3" yMin="0" xMax="622" yMax="693">
      <contour>
        <pt x="316" y="386" on="1"/>
        <pt x="361" y="461" on="0"/>
        <pt x="447" y="615" on="0"/>
        <pt x="482" y="693" on="1"/>
        <pt x="622" y="693" on="1"/>
        <pt x="566" y="587" on="0"/>
        <pt x="445" y="378" on="0"/>
        <pt x="376" y="272" on="1"/>
        <pt x="376" y="0" on="1"/>
        <pt x="250" y="0" on="1"/>
        <pt x="250" y="270" on="1"/>
        <pt x="181" y="377" on="0"/>
        <pt x="59" y="587" on="0"/>
        <pt x="3" y="693" on="1"/>
        <pt x="151" y="693" on="1"/>
        <pt x="186" y="615" on="0"/>
        <pt x="270" y="461" on="0"/>
      </contour>
    </TTGlyph>
    <TTGlyph name="Yacute" xMin="3" yMin="0" xMax="622" yMax="970">
      <component glyphName="Y" x="0" y="0" flags="0x204"/>
      <component glyphName="acute" x="147" y="162" flags="0x4"/>
    </TTGlyph>
    <TTGlyph name="Ycircumflex" xMin="3" yMin="0" xMax="622" yMax="936">
      <component glyphName="Y" x="0" y="0" flags="0x204"/>
      <component glyphName="circumflex" x="118" y="161" flags="0x4"/>
    </TTGlyph>
    <TTGlyph name="Ydieresis" xMin="3" yMin="0" xMax="622" yMax="902">
      <component glyphName="Y" x="0" y="0" flags="0x204"/>
      <component glyphName="dieresis" x="110" y="158" flags="0x4"/>
    </TTGlyph>
    <TTGlyph name="Ygrave" xMin="3" yMin="0" xMax="622" yMax="970">
      <component glyphName="Y" x="0" y="0" flags="0x204"/>
      <component glyphName="grave" x="85" y="162" flags="0x4"/>
    </TTGlyph>
    <TTGlyph name="Z" xMin="30" yMin="0" xMax="554" yMax="693">
      <contour>
        <pt x="543" y="600" on="1"/>
        <pt x="510" y="564" on="0"/>
        <pt x="416" y="449" on="0"/>
        <pt x="316" y="314" on="0"/>
        <pt x="219" y="171" on="0"/>
        <pt x="182" y="107" on="1"/>
        <pt x="554" y="107" on="1"/>
        <pt x="554" y="0" on="1"/>
        <pt x="30" y="0" on="1"/>
        <pt x="30" y="79" on="1"/>
        <pt x="50" y="116" on="0"/>
        <pt x="103" y="203" on="0"/>
        <pt x="163" y="295" on="0"/>
        <pt x="228" y="389" on="0"/>
        <pt x="292" y="476" on="0"/>
        <pt x="353" y="555" on="0"/>
        <pt x="380" y="586" on="1"/>
        <pt x="47" y="586" on="1"/>
        <pt x="47" y="693" on="1"/>
        <pt x="543" y="693" on="1"/>
      </contour>
    </TTGlyph>
    <TTGlyph name="Zacute" xMin="30" yMin="0" xMax="554" yMax="970">
      <component glyphName="Z" x="0" y="0" flags="0x204"/>
      <component glyphName="acute" x="116" y="162" flags="0x4"/>
    </TTGlyph>
    <TTGlyph name="Zcaron" xMin="30" yMin="0" xMax="554" yMax="937">
      <component glyphName="Z" x="0" y="0" flags="0x204"/>
      <component glyphName="caron" x="102" y="158" flags="0x4"/>
    </TTGlyph>
    <TTGlyph name="Zdotaccent" xMin="30" yMin="0" xMax="554" yMax="909">
      <component glyphName="Z" x="0" y="0" flags="0x204"/>
      <component glyphName="dotaccent" x="94" y="158" flags="0x4"/>
    </TTGlyph>
    <TTGlyph name="Zeta" xMin="30" yMin="0" xMax="554" yMax="693">
      <component glyphName="Z" x="0" y="0" flags="0x204"/>
    </TTGlyph>
    <TTGlyph name="a" xMin="40" yMin="-11" xMax="463" yMax="536">
      <contour>
        <pt x="261" y="85" on="1"/>
        <pt x="317" y="85" on="0"/>
        <pt x="346" y="91" on="1"/>
        <pt x="346" y="225" on="1"/>
        <pt x="336" y="228" on="0"/>
        <pt x="298" y="234" on="0"/>
        <pt x="275" y="234" on="1"/>
        <pt x="255" y="234" on="0"/>
        <pt x="214" y="228" on="0"/>
        <pt x="181" y="212" on="0"/>
        <pt x="161" y="183" on="0"/>
        <pt x="161" y="161" on="1"/>
        <pt x="161" y="118" on="0"/>
        <pt x="215" y="85" on="0"/>
      </contour>
      <contour>
        <pt x="251" y="536" on="1"/>
        <pt x="311" y="536" on="0"/>
        <pt x="393" y="506" on="0"/>
        <pt x="442" y="452" on="0"/>
        <pt x="463" y="375" on="0"/>
        <pt x="463" y="329" on="1"/>
        <pt x="463" y="12" on="1"/>
        <pt x="435" y="6" on="0"/>
        <pt x="322" y="-11" on="0"/>
        <pt x="251" y="-11" on="1"/>
        <pt x="204" y="-11" on="0"/>
        <pt x="126" y="7" on="0"/>
        <pt x="71" y="47" on="0"/>
        <pt x="40" y="111" on="0"/>
        <pt x="40" y="158" on="1"/>
        <pt x="40" y="203" on="0"/>
        <pt x="75" y="265" on="0"/>
        <pt x="135" y="304" on="0"/>
        <pt x="214" y="321" on="0"/>
        <pt x="257" y="321" on="1"/>
        <pt x="277" y="321" on="0"/>
        <pt x="321" y="316" on="0"/>
        <pt x="346" y="310" on="1"/>
        <pt x="346" y="330" on="1"/>
        <pt x="346" y="351" on="0"/>
        <pt x="336" y="389" on="0"/>
        <pt x="311" y="418" on="0"/>
        <pt x="270" y="434" on="0"/>
        <pt x="239" y="434" on="1"/>
        <pt x="197" y="434" on="0"/>
        <pt x="127" y="422" on="0"/>
        <pt x="105" y="414" on="1"/>
        <pt x="90" y="512" on="1"/>
        <pt x="113" y="520" on="0"/>
        <pt x="201" y="536" on="0"/>
      </contour>
    </TTGlyph>
    <TTGlyph name="aacute" xMin="40" yMin="-11" xMax="463" yMax="808">
      <component glyphName="a" x="0" y="0" flags="0x204"/>
      <component glyphName="acute" x="86" y="0" flags="0x4"/>
    </TTGlyph>
    <TTGlyph name="abreve" xMin="40" yMin="-11" xMax="463" yMax="756">
      <component glyphName="a" x="0" y="0" flags="0x204"/>
      <component glyphName="breve" x="70" y="0" flags="0x4"/>
    </TTGlyph>
    <TTGlyph name="acircumflex" xMin="40" yMin="-11" xMax="463" yMax="775">
      <component glyphName="a" x="0" y="0" flags="0x204"/>
      <component glyphName="circumflex" x="74" y="0" flags="0x4"/>
    </TTGlyph>
    <TTGlyph name="acute" xMin="93" yMin="579" xMax="316" yMax="808">
      <contour>
        <pt x="316" y="737" on="1"/>
        <pt x="153" y="579" on="1"/>
        <pt x="93" y="633" on="1"/>
        <pt x="240" y="808" on="1"/>
      </contour>
    </TTGlyph>
    <TTGlyph name="acute.asc" xMin="90" yMin="814" xMax="320" yMax="977">
      <contour>
        <pt x="121" y="814" on="1"/>
        <pt x="90" y="883" on="1"/>
        <pt x="280" y="977" on="1"/>
        <pt x="320" y="888" on="1"/>
      </contour>
    </TTGlyph>
    <TTGlyph name="adieresis" xMin="40" yMin="-11" xMax="463" yMax="744">
      <component glyphName="a" x="0" y="0" flags="0x204"/>
      <component glyphName="dieresis" x="63" y="0" flags="0x4"/>
    </TTGlyph>
    <TTGlyph name="ae" xMin="40" yMin="-13" xMax="818" yMax="536">
      <contour>
        <pt x="253" y="536" on="1"/>
        <pt x="319" y="536" on="0"/>
        <pt x="397" y="496" on="0"/>
        <pt x="421" y="456" on="1"/>
        <pt x="455" y="498" on="0"/>
        <pt x="543" y="536" on="0"/>
        <pt x="592" y="536" on="1"/>
        <pt x="698" y="536" on="0"/>
        <pt x="818" y="402" on="0"/>
        <pt x="818" y="269" on="1"/>
        <pt x="818" y="257" on="0"/>
        <pt x="816" y="235" on="0"/>
        <pt x="816" y="224" on="1"/>
        <pt x="471" y="224" on="1"/>
        <pt x="476" y="161" on="0"/>
        <pt x="555" y="92" on="0"/>
        <pt x="629" y="92" on="1"/>
        <pt x="674" y="92" on="0"/>
        <pt x="747" y="108" on="0"/>
        <pt x="768" y="117" on="1"/>
        <pt x="784" y="18" on="1"/>
        <pt x="774" y="13" on="0"/>
        <pt x="739" y="2" on="0"/>
        <pt x="694" y="-7" on="0"/>
        <pt x="641" y="-13" on="0"/>
        <pt x="614" y="-13" on="1"/>
        <pt x="556" y="-13" on="0"/>
        <pt x="470" y="15" on="0"/>
        <pt x="438" y="40" on="1"/>
        <pt x="399" y="15" on="0"/>
        <pt x="306" y="-12" on="0"/>
        <pt x="253" y="-12" on="1"/>
        <pt x="205" y="-12" on="0"/>
        <pt x="126" y="7" on="0"/>
        <pt x="70" y="48" on="0"/>
        <pt x="40" y="112" on="0"/>
        <pt x="40" y="158" on="1"/>
        <pt x="40" y="203" on="0"/>
        <pt x="76" y="265" on="0"/>
        <pt x="138" y="304" on="0"/>
        <pt x="217" y="321" on="0"/>
        <pt x="261" y="321" on="1"/>
        <pt x="289" y="321" on="0"/>
        <pt x="341" y="313" on="0"/>
        <pt x="352" y="310" on="1"/>
        <pt x="352" y="332" on="1"/>
        <pt x="352" y="353" on="0"/>
        <pt x="341" y="391" on="0"/>
        <pt x="316" y="418" on="0"/>
        <pt x="273" y="434" on="0"/>
        <pt x="242" y="434" on="1"/>
        <pt x="200" y="434" on="0"/>
        <pt x="129" y="422" on="0"/>
        <pt x="106" y="414" on="1"/>
        <pt x="91" y="512" on="1"/>
        <pt x="114" y="520" on="0"/>
        <pt x="203" y="536" on="0"/>
      </contour>
      <contour>
        <pt x="267" y="85" on="1"/>
        <pt x="309" y="85" on="0"/>
        <pt x="364" y="100" on="0"/>
        <pt x="381" y="110" on="1"/>
        <pt x="367" y="142" on="0"/>
        <pt x="354" y="197" on="0"/>
        <pt x="352" y="226" on="1"/>
        <pt x="339" y="229" on="0"/>
        <pt x="300" y="234" on="0"/>
        <pt x="279" y="234" on="1"/>
        <pt x="258" y="234" on="0"/>
        <pt x="216" y="228" on="0"/>
        <pt x="182" y="212" on="0"/>
        <pt x="161" y="183" on="0"/>
        <pt x="161" y="161" on="1"/>
        <pt x="161" y="118" on="0"/>
        <pt x="217" y="85" on="0"/>
      </contour>
      <contour>
        <pt x="697" y="313" on="1"/>
        <pt x="697" y="338" on="0"/>
        <pt x="683" y="383" on="0"/>
        <pt x="656" y="416" on="0"/>
        <pt x="617" y="435" on="0"/>
        <pt x="590" y="435" on="1"/>
        <pt x="562" y="435" on="0"/>
        <pt x="520" y="414" on="0"/>
        <pt x="491" y="380" on="0"/>
        <pt x="475" y="336" on="0"/>
        <pt x="472" y="313" on="1"/>
      </contour>
    </TTGlyph>
    <TTGlyph name="aeacute" xMin="40" yMin="-13" xMax="818" yMax="808">
      <component glyphName="ae" x="0" y="0" flags="0x204"/>
      <component glyphName="acute" x="264" y="0" flags="0x4"/>
    </TTGlyph>
    <TTGlyph name="afii00208" xMin="0" yMin="250" xMax="1000" yMax="352">
      <contour>
        <pt x="1000" y="352" on="1"/>
        <pt x="1000" y="250" on="1"/>
        <pt x="0" y="250" on="1"/>
        <pt x="0" y="352" on="1"/>
      </contour>
    </TTGlyph>
    <TTGlyph name="afii10017" xMin="5" yMin="0" xMax="679" yMax="693">
      <component glyphName="A" x="0" y="0" flags="0x204"/>
    </TTGlyph>
    <TTGlyph name="afii10018" xMin="83" yMin="-7" xMax="592" yMax="693">
      <component glyphName="uni0182" x="0" y="0" flags="0x204"/>
    </TTGlyph>
    <TTGlyph name="afii10019" xMin="83" yMin="-8" xMax="609" yMax="700">
      <component glyphName="B" x="0" y="0" flags="0x204"/>
    </TTGlyph>
    <TTGlyph name="afii10020" xMin="83" yMin="0" xMax="523" yMax="693">
      <contour>
        <pt x="209" y="0" on="1"/>
        <pt x="83" y="0" on="1"/>
        <pt x="83" y="693" on="1"/>
        <pt x="523" y="693" on="1"/>
        <pt x="523" y="585" on="1"/>
        <pt x="209" y="585" on="1"/>
      </contour>
    </TTGlyph>
    <TTGlyph name="afii10021" xMin="13" yMin="-185" xMax="748" yMax="693">
      <contour>
        <pt x="13" y="107" on="1"/>
        <pt x="99" y="107" on="1"/>
        <pt x="144" y="169" on="0"/>
        <pt x="193" y="306" on="0"/>
        <pt x="216" y="453" on="0"/>
        <pt x="220" y="610" on="0"/>
        <pt x="220" y="693" on="1"/>
        <pt x="645" y="693" on="1"/>
        <pt x="645" y="107" on="1"/>
        <pt x="748" y="107" on="1"/>
        <pt x="748" y="-185" on="1"/>
        <pt x="627" y="-185" on="1"/>
        <pt x="627" y="0" on="1"/>
        <pt x="134" y="0" on="1"/>
        <pt x="134" y="-185" on="1"/>
        <pt x="13" y="-185" on="1"/>
      </contour>
      <contour>
        <pt x="341" y="585" on="1"/>
        <pt x="338" y="525" on="0"/>
        <pt x="330" y="399" on="0"/>
        <pt x="309" y="276" on="0"/>
        <pt x="271" y="159" on="0"/>
        <pt x="238" y="107" on="1"/>
        <pt x="521" y="107" on="1"/>
        <pt x="521" y="585" on="1"/>
      </contour>
    </TTGlyph>
    <TTGlyph name="afii10022" xMin="83" yMin="0" xMax="552" yMax="693">
      <component glyphName="E" x="0" y="0" flags="0x204"/>
    </TTGlyph>
    <TTGlyph name="afii10023" xMin="83" yMin="0" xMax="552" yMax="902">
      <component glyphName="E" x="0" y="0" flags="0x204"/>
      <component glyphName="dieresis" x="101" y="158" flags="0x4"/>
    </TTGlyph>
    <TTGlyph name="afii10024" xMin="20" yMin="0" xMax="930" yMax="693">
      <contour>
        <pt x="20" y="0" on="1"/>
        <pt x="47" y="49" on="0"/>
        <pt x="113" y="150" on="0"/>
        <pt x="185" y="246" on="0"/>
        <pt x="262" y="331" on="0"/>
        <pt x="300" y="366" on="1"/>
        <pt x="228" y="444" on="0"/>
        <pt x="87" y="615" on="0"/>
        <pt x="27" y="693" on="1"/>
        <pt x="178" y="693" on="1"/>
        <pt x="231" y="623" on="0"/>
        <pt x="352" y="473" on="0"/>
        <pt x="413" y="399" on="1"/>
        <pt x="413" y="693" on="1"/>
        <pt x="536" y="693" on="1"/>
        <pt x="536" y="399" on="1"/>
        <pt x="597" y="474" on="0"/>
        <pt x="722" y="626" on="0"/>
        <pt x="771" y="693" on="1"/>
        <pt x="921" y="693" on="1"/>
        <pt x="857" y="611" on="0"/>
        <pt x="719" y="445" on="0"/>
        <pt x="650" y="367" on="1"/>
        <pt x="731" y="293" on="0"/>
        <pt x="875" y="100" on="0"/>
        <pt x="930" y="0" on="1"/>
        <pt x="788" y="0" on="1"/>
        <pt x="730" y="94" on="0"/>
        <pt x="605" y="255" on="0"/>
        <pt x="536" y="322" on="1"/>
        <pt x="536" y="0" on="1"/>
        <pt x="413" y="0" on="1"/>
        <pt x="413" y="322" on="1"/>
        <pt x="342" y="251" on="0"/>
        <pt x="220" y="94" on="0"/>
        <pt x="161" y="0" on="1"/>
        <pt x="20" y="0" on="1"/>
      </contour>
    </TTGlyph>
    <TTGlyph name="afii10025" xMin="26" yMin="-15" xMax="542" yMax="708">
      <contour>
        <pt x="221" y="414" on="1"/>
        <pt x="250" y="414" on="0"/>
        <pt x="308" y="423" on="0"/>
        <pt x="354" y="446" on="0"/>
        <pt x="382" y="485" on="0"/>
        <pt x="382" y="515" on="1"/>
        <pt x="382" y="554" on="0"/>
        <pt x="317" y="600" on="0"/>
        <pt x="260" y="600" on="1"/>
        <pt x="205" y="600" on="0"/>
        <pt x="120" y="575" on="0"/>
        <pt x="91" y="558" on="1"/>
        <pt x="50" y="659" on="1"/>
        <pt x="82" y="679" on="0"/>
        <pt x="193" y="708" on="0"/>
        <pt x="261" y="708" on="1"/>
        <pt x="315" y="708" on="0"/>
        <pt x="407" y="685" on="0"/>
        <pt x="473" y="637" on="0"/>
        <pt x="511" y="565" on="0"/>
        <pt x="511" y="517" on="1"/>
        <pt x="511" y="473" on="0"/>
        <pt x="461" y="394" on="0"/>
        <pt x="410" y="372" on="1"/>
        <pt x="437" y="362" on="0"/>
        <pt x="485" y="332" on="0"/>
        <pt x="521" y="288" on="0"/>
        <pt x="542" y="231" on="0"/>
        <pt x="542" y="195" on="1"/>
        <pt x="542" y="139" on="0"/>
        <pt x="502" y="60" on="0"/>
        <pt x="428" y="9" on="0"/>
        <pt x="321" y="-15" on="0"/>
        <pt x="255" y="-15" on="1"/>
        <pt x="218" y="-15" on="0"/>
        <pt x="150" y="-5" on="0"/>
        <pt x="90" y="11" on="0"/>
        <pt x="42" y="30" on="0"/>
        <pt x="26" y="38" on="1"/>
        <pt x="63" y="139" on="1"/>
        <pt x="76" y="133" on="0"/>
        <pt x="114" y="118" on="0"/>
        <pt x="162" y="104" on="0"/>
        <pt x="218" y="94" on="0"/>
        <pt x="247" y="94" on="1"/>
        <pt x="325" y="94" on="0"/>
        <pt x="410" y="141" on="0"/>
        <pt x="410" y="199" on="1"/>
        <pt x="410" y="233" on="0"/>
        <pt x="381" y="277" on="0"/>
        <pt x="330" y="301" on="0"/>
        <pt x="260" y="310" on="0"/>
        <pt x="220" y="310" on="1"/>
        <pt x="142" y="310" on="1"/>
        <pt x="142" y="414" on="1"/>
      </contour>
    </TTGlyph>
    <TTGlyph name="afii10026" xMin="83" yMin="0" xMax="657" yMax="693">
      <contour>
        <pt x="83" y="0" on="1"/>
        <pt x="83" y="693" on="1"/>
        <pt x="208" y="693" on="1"/>
        <pt x="208" y="233" on="1"/>
        <pt x="242" y="287" on="0"/>
        <pt x="329" y="412" on="0"/>
        <pt x="422" y="536" on="0"/>
        <pt x="514" y="651" on="0"/>
        <pt x="554" y="693" on="1"/>
        <pt x="657" y="693" on="1"/>
        <pt x="657" y="0" on="1"/>
        <pt x="533" y="0" on="1"/>
        <pt x="533" y="496" on="1"/>
        <pt x="491" y="446" on="0"/>
        <pt x="398" y="321" on="0"/>
        <pt x="308" y="188" on="0"/>
        <pt x="224" y="57" on="0"/>
        <pt x="190" y="0" on="1"/>
      </contour>
    </TTGlyph>
    <TTGlyph name="afii10027" xMin="83" yMin="0" xMax="657" yMax="912">
      <component glyphName="afii10026" x="0" y="0" flags="0x204"/>
      <component glyphName="kratka" x="176" y="156" flags="0x4"/>
    </TTGlyph>
    <TTGlyph name="afii10028" xMin="83" yMin="0" xMax="646" yMax="693">
      <component glyphName="K" x="0" y="0" flags="0x204"/>
    </TTGlyph>
    <TTGlyph name="afii10029" xMin="10" yMin="-12" xMax="659" yMax="693">
      <contour>
        <pt x="347" y="585" on="1"/>
        <pt x="344" y="517" on="0"/>
        <pt x="336" y="376" on="0"/>
        <pt x="315" y="245" on="0"/>
        <pt x="275" y="129" on="0"/>
        <pt x="205" y="42" on="0"/>
        <pt x="100" y="-10" on="0"/>
        <pt x="24" y="-12" on="1"/>
        <pt x="10" y="98" on="1"/>
        <pt x="46" y="102" on="0"/>
        <pt x="100" y="122" on="0"/>
        <pt x="140" y="155" on="0"/>
        <pt x="170" y="204" on="0"/>
        <pt x="181" y="237" on="1"/>
        <pt x="208" y="315" on="0"/>
        <pt x="226" y="549" on="0"/>
        <pt x="226" y="693" on="1"/>
        <pt x="659" y="693" on="1"/>
        <pt x="659" y="0" on="1"/>
        <pt x="532" y="0" on="1"/>
        <pt x="532" y="585" on="1"/>
      </contour>
    </TTGlyph>
    <TTGlyph name="afii10030" xMin="64" yMin="0" xMax="820" yMax="693">
      <component glyphName="M" x="0" y="0" flags="0x204"/>
    </TTGlyph>
    <TTGlyph name="afii10031" xMin="83" yMin="0" xMax="636" yMax="693">
      <component glyphName="H" x="0" y="0" flags="0x204"/>
    </TTGlyph>
    <TTGlyph name="afii10032" xMin="55" yMin="-15" xMax="727" yMax="709">
      <component glyphName="O" x="0" y="0" flags="0x204"/>
    </TTGlyph>
    <TTGlyph name="afii10033" xMin="83" yMin="0" xMax="631" yMax="693">
      <contour>
        <pt x="631" y="693" on="1"/>
        <pt x="631" y="0" on="1"/>
        <pt x="505" y="0" on="1"/>
        <pt x="505" y="585" on="1"/>
        <pt x="209" y="585" on="1"/>
        <pt x="209" y="0" on="1"/>
        <pt x="83" y="0" on="1"/>
        <pt x="83" y="693" on="1"/>
      </contour>
    </TTGlyph>
    <TTGlyph name="afii10034" xMin="83" yMin="0" xMax="591" yMax="700">
      <component glyphName="P" x="0" y="0" flags="0x204"/>
    </TTGlyph>
    <TTGlyph name="afii10035" xMin="57" yMin="-15" xMax="610" yMax="709">
      <component glyphName="C" x="0" y="0" flags="0x204"/>
    </TTGlyph>
    <TTGlyph name="afii10036" xMin="13" yMin="0" xMax="566" yMax="693">
      <component glyphName="T" x="0" y="0" flags="0x204"/>
    </TTGlyph>
    <TTGlyph name="afii10037" xMin="21" yMin="-12" xMax="611" yMax="693">
      <contour>
        <pt x="422" y="207" on="1"/>
        <pt x="397" y="151" on="0"/>
        <pt x="344" y="68" on="0"/>
        <pt x="281" y="14" on="0"/>
        <pt x="204" y="-12" on="0"/>
        <pt x="156" y="-12" on="1"/>
        <pt x="127" y="-12" on="0"/>
        <pt x="64" y="0" on="0"/>
        <pt x="44" y="9" on="1"/>
        <pt x="67" y="113" on="1"/>
        <pt x="86" y="105" on="0"/>
        <pt x="128" y="96" on="0"/>
        <pt x="150" y="96" on="1"/>
        <pt x="196" y="96" on="0"/>
        <pt x="257" y="138" on="0"/>
        <pt x="283" y="186" on="1"/>
        <pt x="241" y="254" on="0"/>
        <pt x="164" y="392" on="0"/>
        <pt x="98" y="523" on="0"/>
        <pt x="43" y="643" on="0"/>
        <pt x="21" y="693" on="1"/>
        <pt x="162" y="693" on="1"/>
        <pt x="178" y="652" on="0"/>
        <pt x="219" y="558" on="0"/>
        <pt x="266" y="458" on="0"/>
        <pt x="318" y="354" on="0"/>
        <pt x="344" y="302" on="1"/>
        <pt x="380" y="391" on="0"/>
        <pt x="446" y="593" on="0"/>
        <pt x="475" y="693" on="1"/>
        <pt x="611" y="693" on="1"/>
        <pt x="587" y="619" on="0"/>
        <pt x="539" y="488" on="0"/>
        <pt x="492" y="369" on="0"/>
        <pt x="445" y="260" on="0"/>
      </contour>
    </TTGlyph>
    <TTGlyph name="afii10038" xMin="50" yMin="0" xMax="815" yMax="738">
      <component glyphName="Phi" x="0" y="0" flags="0x204"/>
    </TTGlyph>
    <TTGlyph name="afii10039" xMin="20" yMin="0" xMax="642" yMax="693">
      <component glyphName="X" x="0" y="0" flags="0x204"/>
    </TTGlyph>
    <TTGlyph name="afii10040" xMin="83" yMin="-185" xMax="735" yMax="693">
      <contour>
        <pt x="735" y="107" on="1"/>
        <pt x="735" y="-185" on="1"/>
        <pt x="614" y="-185" on="1"/>
        <pt x="614" y="0" on="1"/>
        <pt x="83" y="0" on="1"/>
        <pt x="83" y="693" on="1"/>
        <pt x="209" y="693" on="1"/>
        <pt x="209" y="107" on="1"/>
        <pt x="505" y="107" on="1"/>
        <pt x="505" y="693" on="1"/>
        <pt x="631" y="693" on="1"/>
        <pt x="631" y="107" on="1"/>
      </contour>
    </TTGlyph>
    <TTGlyph name="afii10041" xMin="55" yMin="0" xMax="578" yMax="693">
      <contour>
        <pt x="181" y="491" on="1"/>
        <pt x="181" y="408" on="0"/>
        <pt x="253" y="341" on="0"/>
        <pt x="332" y="341" on="1"/>
        <pt x="364" y="341" on="0"/>
        <pt x="429" y="349" on="0"/>
        <pt x="452" y="353" on="1"/>
        <pt x="452" y="693" on="1"/>
        <pt x="578" y="693" on="1"/>
        <pt x="578" y="0" on="1"/>
        <pt x="452" y="0" on="1"/>
        <pt x="452" y="245" on="1"/>
        <pt x="426" y="240" on="0"/>
        <pt x="354" y="233" on="0"/>
        <pt x="317" y="233" on="1"/>
        <pt x="247" y="233" on="0"/>
        <pt x="148" y="262" on="0"/>
        <pt x="85" y="324" on="0"/>
        <pt x="55" y="420" on="0"/>
        <pt x="55" y="487" on="1"/>
        <pt x="55" y="693" on="1"/>
        <pt x="181" y="693" on="1"/>
      </contour>
    </TTGlyph>
    <TTGlyph name="afii10042" xMin="83" yMin="0" xMax="918" yMax="693">
      <contour>
        <pt x="83" y="0" on="1"/>
        <pt x="83" y="693" on="1"/>
        <pt x="209" y="693" on="1"/>
        <pt x="209" y="107" on="1"/>
        <pt x="437" y="107" on="1"/>
        <pt x="437" y="693" on="1"/>
        <pt x="564" y="693" on="1"/>
        <pt x="564" y="107" on="1"/>
        <pt x="792" y="107" on="1"/>
        <pt x="792" y="693" on="1"/>
        <pt x="918" y="693" on="1"/>
        <pt x="918" y="0" on="1"/>
      </contour>
    </TTGlyph>
    <TTGlyph name="afii10043" xMin="83" yMin="-185" xMax="1022" yMax="693">
      <contour>
        <pt x="209" y="693" on="1"/>
        <pt x="209" y="107" on="1"/>
        <pt x="437" y="107" on="1"/>
        <pt x="437" y="693" on="1"/>
        <pt x="564" y="693" on="1"/>
        <pt x="564" y="107" on="1"/>
        <pt x="792" y="107" on="1"/>
        <pt x="792" y="693" on="1"/>
        <pt x="918" y="693" on="1"/>
        <pt x="918" y="107" on="1"/>
        <pt x="1022" y="107" on="1"/>
        <pt x="1022" y="-185" on="1"/>
        <pt x="901" y="-185" on="1"/>
        <pt x="901" y="0" on="1"/>
        <pt x="83" y="0" on="1"/>
        <pt x="83" y="693" on="1"/>
      </contour>
    </TTGlyph>
    <TTGlyph name="afii10044" xMin="13" yMin="-8" xMax="702" yMax="693">
      <contour>
        <pt x="702" y="218" on="1"/>
        <pt x="702" y="107" on="0"/>
        <pt x="535" y="-8" on="0"/>
        <pt x="384" y="-8" on="1"/>
        <pt x="342" y="-8" on="0"/>
        <pt x="237" y="2" on="0"/>
        <pt x="189" y="13" on="1"/>
        <pt x="189" y="585" on="1"/>
        <pt x="13" y="585" on="1"/>
        <pt x="13" y="693" on="1"/>
        <pt x="315" y="693" on="1"/>
        <pt x="315" y="444" on="1"/>
        <pt x="332" y="446" on="0"/>
        <pt x="362" y="446" on="0"/>
        <pt x="378" y="446" on="1"/>
        <pt x="702" y="446" on="0"/>
      </contour>
      <contour>
        <pt x="369" y="338" on="1"/>
        <pt x="357" y="338" on="0"/>
        <pt x="329" y="338" on="0"/>
        <pt x="315" y="336" on="1"/>
        <pt x="315" y="102" on="1"/>
        <pt x="329" y="101" on="0"/>
        <pt x="366" y="100" on="0"/>
        <pt x="392" y="100" on="1"/>
        <pt x="427" y="100" on="0"/>
        <pt x="492" y="111" on="0"/>
        <pt x="541" y="138" on="0"/>
        <pt x="571" y="183" on="0"/>
        <pt x="571" y="218" on="1"/>
        <pt x="571" y="253" on="0"/>
        <pt x="542" y="299" on="0"/>
        <pt x="489" y="327" on="0"/>
        <pt x="415" y="338" on="0"/>
      </contour>
    </TTGlyph>
    <TTGlyph name="afii10045" xMin="83" yMin="-8" xMax="808" yMax="693">
      <contour>
        <pt x="586" y="218" on="1"/>
        <pt x="586" y="162" on="0"/>
        <pt x="543" y="78" on="0"/>
        <pt x="462" y="21" on="0"/>
        <pt x="347" y="-8" on="0"/>
        <pt x="275" y="-8" on="1"/>
        <pt x="233" y="-8" on="0"/>
        <pt x="131" y="2" on="0"/>
        <pt x="83" y="13" on="1"/>
        <pt x="83" y="693" on="1"/>
        <pt x="209" y="693" on="1"/>
        <pt x="209" y="444" on="1"/>
        <pt x="224" y="446" on="0"/>
        <pt x="254" y="446" on="0"/>
        <pt x="268" y="446" on="1"/>
        <pt x="426" y="446" on="0"/>
        <pt x="586" y="333" on="0"/>
      </contour>
      <contour>
        <pt x="682" y="693" on="1"/>
        <pt x="808" y="693" on="1"/>
        <pt x="808" y="0" on="1"/>
        <pt x="682" y="0" on="1"/>
      </contour>
      <contour>
        <pt x="262" y="338" on="1"/>
        <pt x="251" y="338" on="0"/>
        <pt x="222" y="338" on="0"/>
        <pt x="209" y="336" on="1"/>
        <pt x="209" y="102" on="1"/>
        <pt x="223" y="100" on="0"/>
        <pt x="256" y="100" on="0"/>
        <pt x="284" y="100" on="1"/>
        <pt x="318" y="100" on="0"/>
        <pt x="381" y="111" on="0"/>
        <pt x="427" y="138" on="0"/>
        <pt x="455" y="183" on="0"/>
        <pt x="455" y="218" on="1"/>
        <pt x="455" y="253" on="0"/>
        <pt x="428" y="299" on="0"/>
        <pt x="378" y="327" on="0"/>
        <pt x="307" y="338" on="0"/>
      </contour>
    </TTGlyph>
    <TTGlyph name="afii10046" xMin="83" yMin="-8" xMax="596" yMax="693">
      <contour>
        <pt x="596" y="218" on="1"/>
        <pt x="596" y="107" on="0"/>
        <pt x="429" y="-8" on="0"/>
        <pt x="278" y="-8" on="1"/>
        <pt x="236" y="-8" on="0"/>
        <pt x="131" y="2" on="0"/>
        <pt x="83" y="13" on="1"/>
        <pt x="83" y="693" on="1"/>
        <pt x="209" y="693" on="1"/>
        <pt x="209" y="444" on="1"/>
        <pt x="226" y="446" on="0"/>
        <pt x="256" y="446" on="0"/>
        <pt x="272" y="446" on="1"/>
        <pt x="596" y="446" on="0"/>
      </contour>
      <contour>
        <pt x="263" y="338" on="1"/>
        <pt x="251" y="338" on="0"/>
        <pt x="223" y="338" on="0"/>
        <pt x="209" y="336" on="1"/>
        <pt x="209" y="102" on="1"/>
        <pt x="223" y="101" on="0"/>
        <pt x="260" y="100" on="0"/>
        <pt x="286" y="100" on="1"/>
        <pt x="321" y="100" on="0"/>
        <pt x="386" y="111" on="0"/>
        <pt x="435" y="138" on="0"/>
        <pt x="465" y="183" on="0"/>
        <pt x="465" y="218" on="1"/>
        <pt x="465" y="253" on="0"/>
        <pt x="436" y="299" on="0"/>
        <pt x="383" y="327" on="0"/>
        <pt x="309" y="338" on="0"/>
      </contour>
    </TTGlyph>
    <TTGlyph name="afii10047" xMin="22" yMin="-15" xMax="575" yMax="709">
      <contour>
        <pt x="575" y="347" on="1"/>
        <pt x="575" y="256" on="0"/>
        <pt x="526" y="120" on="0"/>
        <pt x="438" y="30" on="0"/>
        <pt x="313" y="-15" on="0"/>
        <pt x="238" y="-15" on="1"/>
        <pt x="168" y="-15" on="0"/>
        <pt x="55" y="13" on="0"/>
        <pt x="22" y="33" on="1"/>
        <pt x="56" y="136" on="1"/>
        <pt x="80" y="124" on="0"/>
        <pt x="163" y="97" on="0"/>
        <pt x="230" y="97" on="1"/>
        <pt x="324" y="97" on="0"/>
        <pt x="430" y="204" on="0"/>
        <pt x="441" y="299" on="1"/>
        <pt x="143" y="299" on="1"/>
        <pt x="143" y="406" on="1"/>
        <pt x="438" y="406" on="1"/>
        <pt x="427" y="498" on="0"/>
        <pt x="324" y="599" on="0"/>
        <pt x="230" y="599" on="1"/>
        <pt x="167" y="599" on="0"/>
        <pt x="82" y="571" on="0"/>
        <pt x="57" y="558" on="1"/>
        <pt x="22" y="658" on="1"/>
        <pt x="57" y="678" on="0"/>
        <pt x="167" y="709" on="0"/>
        <pt x="239" y="709" on="1"/>
        <pt x="312" y="709" on="0"/>
        <pt x="435" y="663" on="0"/>
        <pt x="525" y="572" on="0"/>
        <pt x="575" y="436" on="0"/>
      </contour>
    </TTGlyph>
    <TTGlyph name="afii10048" xMin="83" yMin="-14" xMax="1001" yMax="709">
      <contour>
        <pt x="675" y="709" on="1"/>
        <pt x="741" y="709" on="0"/>
        <pt x="859" y="663" on="0"/>
        <pt x="949" y="571" on="0"/>
        <pt x="1001" y="436" on="0"/>
        <pt x="1001" y="347" on="1"/>
        <pt x="1001" y="258" on="0"/>
        <pt x="949" y="123" on="0"/>
        <pt x="860" y="32" on="0"/>
        <pt x="742" y="-14" on="0"/>
        <pt x="675" y="-14" on="1"/>
        <pt x="612" y="-14" on="0"/>
        <pt x="499" y="27" on="0"/>
        <pt x="412" y="108" on="0"/>
        <pt x="356" y="228" on="0"/>
        <pt x="350" y="308" on="1"/>
        <pt x="209" y="308" on="1"/>
        <pt x="209" y="0" on="1"/>
        <pt x="83" y="0" on="1"/>
        <pt x="83" y="693" on="1"/>
        <pt x="209" y="693" on="1"/>
        <pt x="209" y="415" on="1"/>
        <pt x="353" y="415" on="1"/>
        <pt x="363" y="487" on="0"/>
        <pt x="422" y="597" on="0"/>
        <pt x="508" y="671" on="0"/>
        <pt x="616" y="709" on="0"/>
      </contour>
      <contour>
        <pt x="675" y="96" on="1"/>
        <pt x="768" y="96" on="0"/>
        <pt x="870" y="231" on="0"/>
        <pt x="870" y="347" on="1"/>
        <pt x="870" y="404" on="0"/>
        <pt x="844" y="497" on="0"/>
        <pt x="794" y="563" on="0"/>
        <pt x="721" y="598" on="0"/>
        <pt x="675" y="598" on="1"/>
        <pt x="629" y="598" on="0"/>
        <pt x="556" y="563" on="0"/>
        <pt x="506" y="497" on="0"/>
        <pt x="479" y="404" on="0"/>
        <pt x="479" y="347" on="1"/>
        <pt x="479" y="231" on="0"/>
        <pt x="582" y="96" on="0"/>
      </contour>
    </TTGlyph>
    <TTGlyph name="afii10049" xMin="33" yMin="0" xMax="575" yMax="700">
      <contour>
        <pt x="384" y="700" on="1"/>
        <pt x="425" y="700" on="0"/>
        <pt x="529" y="693" on="0"/>
        <pt x="575" y="683" on="1"/>
        <pt x="575" y="0" on="1"/>
        <pt x="449" y="0" on="1"/>
        <pt x="449" y="260" on="1"/>
        <pt x="376" y="260" on="1"/>
        <pt x="363" y="260" on="0"/>
        <pt x="335" y="261" on="0"/>
        <pt x="323" y="263" on="1"/>
        <pt x="303" y="239" on="0"/>
        <pt x="263" y="178" on="0"/>
        <pt x="224" y="109" on="0"/>
        <pt x="185" y="36" on="0"/>
        <pt x="167" y="0" on="1"/>
        <pt x="33" y="0" on="1"/>
        <pt x="51" y="39" on="0"/>
        <pt x="93" y="119" on="0"/>
        <pt x="136" y="194" on="0"/>
        <pt x="179" y="259" on="0"/>
        <pt x="197" y="282" on="1"/>
        <pt x="129" y="307" on="0"/>
        <pt x="65" y="405" on="0"/>
        <pt x="65" y="477" on="1"/>
        <pt x="65" y="533" on="0"/>
        <pt x="110" y="617" on="0"/>
        <pt x="193" y="672" on="0"/>
        <pt x="311" y="700" on="0"/>
      </contour>
      <contour>
        <pt x="375" y="591" on="1"/>
        <pt x="337" y="591" on="0"/>
        <pt x="272" y="580" on="0"/>
        <pt x="224" y="554" on="0"/>
        <pt x="197" y="510" on="0"/>
        <pt x="197" y="478" on="1"/>
        <pt x="197" y="444" on="0"/>
        <pt x="224" y="400" on="0"/>
        <pt x="275" y="374" on="0"/>
        <pt x="348" y="364" on="0"/>
        <pt x="394" y="364" on="1"/>
        <pt x="449" y="364" on="1"/>
        <pt x="449" y="588" on="1"/>
        <pt x="414" y="591" on="0"/>
      </contour>
    </TTGlyph>
    <TTGlyph name="afii10050" xMin="83" yMin="0" xMax="523" yMax="825">
      <contour>
        <pt x="209" y="0" on="1"/>
        <pt x="83" y="0" on="1"/>
        <pt x="83" y="693" on="1"/>
        <pt x="404" y="693" on="1"/>
        <pt x="404" y="825" on="1"/>
        <pt x="523" y="825" on="1"/>
        <pt x="523" y="585" on="1"/>
        <pt x="209" y="585" on="1"/>
      </contour>
    </TTGlyph>
    <TTGlyph name="afii10051" xMin="13" yMin="-5" xMax="736" yMax="693">
      <contour>
        <pt x="570" y="693" on="1"/>
        <pt x="570" y="584" on="1"/>
        <pt x="335" y="584" on="1"/>
        <pt x="335" y="424" on="1"/>
        <pt x="345" y="426" on="0"/>
        <pt x="374" y="431" on="0"/>
        <pt x="407" y="434" on="0"/>
        <pt x="439" y="436" on="0"/>
        <pt x="453" y="436" on="1"/>
        <pt x="527" y="436" on="0"/>
        <pt x="634" y="404" on="0"/>
        <pt x="703" y="345" on="0"/>
        <pt x="736" y="260" on="0"/>
        <pt x="736" y="207" on="1"/>
        <pt x="736" y="157" on="0"/>
        <pt x="704" y="78" on="0"/>
        <pt x="646" y="24" on="0"/>
        <pt x="566" y="-5" on="0"/>
        <pt x="517" y="-5" on="1"/>
        <pt x="502" y="-5" on="0"/>
        <pt x="465" y="-3" on="0"/>
        <pt x="451" y="0" on="1"/>
        <pt x="455" y="96" on="1"/>
        <pt x="463" y="95" on="0"/>
        <pt x="483" y="94" on="0"/>
        <pt x="497" y="94" on="1"/>
        <pt x="553" y="94" on="0"/>
        <pt x="612" y="149" on="0"/>
        <pt x="612" y="206" on="1"/>
        <pt x="612" y="271" on="0"/>
        <pt x="528" y="330" on="0"/>
        <pt x="443" y="330" on="1"/>
        <pt x="415" y="330" on="0"/>
        <pt x="353" y="323" on="0"/>
        <pt x="335" y="320" on="1"/>
        <pt x="335" y="0" on="1"/>
        <pt x="209" y="0" on="1"/>
        <pt x="209" y="584" on="1"/>
        <pt x="13" y="584" on="1"/>
        <pt x="13" y="693" on="1"/>
      </contour>
    </TTGlyph>
    <TTGlyph name="afii10052" xMin="83" yMin="0" xMax="523" yMax="970">
      <component glyphName="afii10020" x="0" y="0" flags="0x204"/>
      <component glyphName="acute" x="121" y="162" flags="0x4"/>
    </TTGlyph>
    <TTGlyph name="afii10053" xMin="55" yMin="-15" xMax="608" yMax="709">
      <contour>
        <pt x="55" y="347" on="1"/>
        <pt x="55" y="436" on="0"/>
        <pt x="105" y="572" on="0"/>
        <pt x="195" y="663" on="0"/>
        <pt x="318" y="709" on="0"/>
        <pt x="391" y="709" on="1"/>
        <pt x="463" y="709" on="0"/>
        <pt x="573" y="678" on="0"/>
        <pt x="608" y="658" on="1"/>
        <pt x="573" y="558" on="1"/>
        <pt x="548" y="571" on="0"/>
        <pt x="463" y="599" on="0"/>
        <pt x="400" y="599" on="1"/>
        <pt x="306" y="599" on="0"/>
        <pt x="203" y="498" on="0"/>
        <pt x="192" y="406" on="1"/>
        <pt x="487" y="406" on="1"/>
        <pt x="487" y="299" on="1"/>
        <pt x="189" y="299" on="1"/>
        <pt x="200" y="204" on="0"/>
        <pt x="306" y="97" on="0"/>
        <pt x="400" y="97" on="1"/>
        <pt x="467" y="97" on="0"/>
        <pt x="550" y="124" on="0"/>
        <pt x="574" y="136" on="1"/>
        <pt x="608" y="33" on="1"/>
        <pt x="575" y="13" on="0"/>
        <pt x="462" y="-15" on="0"/>
        <pt x="392" y="-15" on="1"/>
        <pt x="317" y="-15" on="0"/>
        <pt x="192" y="30" on="0"/>
        <pt x="104" y="120" on="0"/>
        <pt x="55" y="256" on="0"/>
      </contour>
    </TTGlyph>
    <TTGlyph name="afii10054" xMin="30" yMin="-15" xMax="512" yMax="709">
      <component glyphName="S" x="0" y="0" flags="0x204"/>
    </TTGlyph>
    <TTGlyph name="afii10055" xMin="83" yMin="0" xMax="209" yMax="693">
      <component glyphName="I" x="0" y="0" flags="0x204"/>
    </TTGlyph>
    <TTGlyph name="afii10056" xMin="-23" yMin="0" xMax="318" yMax="902">
      <component glyphName="I" x="0" y="0" flags="0x204"/>
      <component glyphName="dieresis" x="-55" y="158" flags="0x4"/>
    </TTGlyph>
    <TTGlyph name="afii10057" xMin="5" yMin="-15" xMax="435" yMax="693">
      <component glyphName="J" x="0" y="0" flags="0x204"/>
    </TTGlyph>
    <TTGlyph name="afii10058" xMin="10" yMin="-12" xMax="1039" yMax="693">
      <contour>
        <pt x="659" y="693" on="1"/>
        <pt x="659" y="444" on="1"/>
        <pt x="674" y="445" on="0"/>
        <pt x="707" y="445" on="0"/>
        <pt x="723" y="445" on="1"/>
        <pt x="876" y="445" on="0"/>
        <pt x="1039" y="338" on="0"/>
        <pt x="1039" y="219" on="1"/>
        <pt x="1039" y="106" on="0"/>
        <pt x="875" y="-7" on="0"/>
        <pt x="727" y="-7" on="1"/>
        <pt x="685" y="-7" on="0"/>
        <pt x="580" y="2" on="0"/>
        <pt x="532" y="13" on="1"/>
        <pt x="532" y="585" on="1"/>
        <pt x="347" y="585" on="1"/>
        <pt x="344" y="516" on="0"/>
        <pt x="336" y="375" on="0"/>
        <pt x="315" y="244" on="0"/>
        <pt x="275" y="129" on="0"/>
        <pt x="205" y="42" on="0"/>
        <pt x="100" y="-10" on="0"/>
        <pt x="24" y="-12" on="1"/>
        <pt x="10" y="98" on="1"/>
        <pt x="46" y="102" on="0"/>
        <pt x="100" y="122" on="0"/>
        <pt x="140" y="155" on="0"/>
        <pt x="170" y="204" on="0"/>
        <pt x="181" y="237" on="1"/>
        <pt x="208" y="315" on="0"/>
        <pt x="226" y="549" on="0"/>
        <pt x="226" y="693" on="1"/>
      </contour>
      <contour>
        <pt x="735" y="102" on="1"/>
        <pt x="769" y="102" on="0"/>
        <pt x="832" y="112" on="0"/>
        <pt x="880" y="138" on="0"/>
        <pt x="909" y="183" on="0"/>
        <pt x="909" y="218" on="1"/>
        <pt x="909" y="254" on="0"/>
        <pt x="882" y="301" on="0"/>
        <pt x="832" y="328" on="0"/>
        <pt x="762" y="339" on="0"/>
        <pt x="719" y="339" on="1"/>
        <pt x="705" y="339" on="0"/>
        <pt x="673" y="339" on="0"/>
        <pt x="659" y="338" on="1"/>
        <pt x="659" y="104" on="1"/>
        <pt x="673" y="103" on="0"/>
        <pt x="712" y="102" on="0"/>
      </contour>
    </TTGlyph>
    <TTGlyph name="afii10059" xMin="83" yMin="-7" xMax="1009" yMax="693">
      <contour>
        <pt x="629" y="693" on="1"/>
        <pt x="629" y="440" on="1"/>
        <pt x="644" y="441" on="0"/>
        <pt x="677" y="441" on="0"/>
        <pt x="693" y="441" on="1"/>
        <pt x="846" y="441" on="0"/>
        <pt x="1009" y="335" on="0"/>
        <pt x="1009" y="219" on="1"/>
        <pt x="1009" y="106" on="0"/>
        <pt x="845" y="-7" on="0"/>
        <pt x="697" y="-7" on="1"/>
        <pt x="655" y="-7" on="0"/>
        <pt x="550" y="2" on="0"/>
        <pt x="502" y="13" on="1"/>
        <pt x="502" y="318" on="1"/>
        <pt x="209" y="318" on="1"/>
        <pt x="209" y="0" on="1"/>
        <pt x="83" y="0" on="1"/>
        <pt x="83" y="693" on="1"/>
        <pt x="209" y="693" on="1"/>
        <pt x="209" y="427" on="1"/>
        <pt x="502" y="427" on="1"/>
        <pt x="502" y="693" on="1"/>
      </contour>
      <contour>
        <pt x="705" y="102" on="1"/>
        <pt x="739" y="102" on="0"/>
        <pt x="802" y="112" on="0"/>
        <pt x="850" y="138" on="0"/>
        <pt x="879" y="183" on="0"/>
        <pt x="879" y="218" on="1"/>
        <pt x="879" y="253" on="0"/>
        <pt x="852" y="298" on="0"/>
        <pt x="802" y="325" on="0"/>
        <pt x="732" y="335" on="0"/>
        <pt x="689" y="335" on="1"/>
        <pt x="675" y="335" on="0"/>
        <pt x="643" y="335" on="0"/>
        <pt x="629" y="334" on="1"/>
        <pt x="629" y="104" on="1"/>
        <pt x="643" y="103" on="0"/>
        <pt x="682" y="102" on="0"/>
      </contour>
    </TTGlyph>
    <TTGlyph name="afii10060" xMin="13" yMin="0" xMax="701" yMax="693">
      <contour>
        <pt x="570" y="693" on="1"/>
        <pt x="570" y="584" on="1"/>
        <pt x="335" y="584" on="1"/>
        <pt x="335" y="424" on="1"/>
        <pt x="355" y="429" on="0"/>
        <pt x="419" y="436" on="0"/>
        <pt x="447" y="436" on="1"/>
        <pt x="520" y="436" on="0"/>
        <pt x="618" y="403" on="0"/>
        <pt x="676" y="342" on="0"/>
        <pt x="701" y="256" on="0"/>
        <pt x="701" y="203" on="1"/>
        <pt x="701" y="0" on="1"/>
        <pt x="575" y="0" on="1"/>
        <pt x="575" y="203" on="1"/>
        <pt x="575" y="267" on="0"/>
        <pt x="514" y="328" on="0"/>
        <pt x="437" y="328" on="1"/>
        <pt x="409" y="328" on="0"/>
        <pt x="353" y="321" on="0"/>
        <pt x="335" y="318" on="1"/>
        <pt x="335" y="0" on="1"/>
        <pt x="209" y="0" on="1"/>
        <pt x="209" y="584" on="1"/>
        <pt x="13" y="584" on="1"/>
        <pt x="13" y="693" on="1"/>
      </contour>
    </TTGlyph>
    <TTGlyph name="afii10061" xMin="83" yMin="0" xMax="646" yMax="970">
      <component glyphName="K" x="0" y="0" flags="0x204"/>
      <component glyphName="acute" x="181" y="162" flags="0x4"/>
    </TTGlyph>
    <TTGlyph name="afii10062" xMin="21" yMin="-12" xMax="611" yMax="910">
      <component glyphName="afii10037" x="0" y="0" flags="0x204"/>
      <component glyphName="kratka" x="128" y="154" flags="0x4"/>
    </TTGlyph>
    <TTGlyph name="afii10065" xMin="40" yMin="-11" xMax="463" yMax="536">
      <component glyphName="a" x="0" y="0" flags="0x204"/>
    </TTGlyph>
    <TTGlyph name="afii10066" xMin="59" yMin="-14" xMax="555" yMax="776">
      <contour>
        <pt x="526" y="670" on="1"/>
        <pt x="516" y="668" on="0"/>
        <pt x="493" y="664" on="0"/>
        <pt x="461" y="660" on="0"/>
        <pt x="418" y="655" on="0"/>
        <pt x="390" y="652" on="1"/>
        <pt x="347" y="647" on="0"/>
        <pt x="279" y="624" on="0"/>
        <pt x="229" y="581" on="0"/>
        <pt x="197" y="515" on="0"/>
        <pt x="190" y="468" on="1"/>
        <pt x="221" y="488" on="0"/>
        <pt x="294" y="510" on="0"/>
        <pt x="329" y="510" on="1"/>
        <pt x="433" y="510" on="0"/>
        <pt x="555" y="378" on="0"/>
        <pt x="555" y="253" on="1"/>
        <pt x="555" y="193" on="0"/>
        <pt x="521" y="95" on="0"/>
        <pt x="457" y="25" on="0"/>
        <pt x="367" y="-14" on="0"/>
        <pt x="310" y="-14" on="1"/>
        <pt x="239" y="-14" on="0"/>
        <pt x="143" y="33" on="0"/>
        <pt x="85" y="120" on="0"/>
        <pt x="59" y="242" on="0"/>
        <pt x="59" y="317" on="1"/>
        <pt x="59" y="415" on="0"/>
        <pt x="92" y="566" on="0"/>
        <pt x="167" y="674" on="0"/>
        <pt x="288" y="741" on="0"/>
        <pt x="375" y="754" on="1"/>
        <pt x="420" y="761" on="0"/>
        <pt x="481" y="769" on="0"/>
        <pt x="512" y="776" on="1"/>
      </contour>
      <contour>
        <pt x="186" y="362" on="1"/>
        <pt x="184" y="349" on="0"/>
        <pt x="184" y="312" on="0"/>
        <pt x="184" y="296" on="1"/>
        <pt x="184" y="251" on="0"/>
        <pt x="196" y="175" on="0"/>
        <pt x="226" y="121" on="0"/>
        <pt x="274" y="91" on="0"/>
        <pt x="310" y="91" on="1"/>
        <pt x="341" y="91" on="0"/>
        <pt x="387" y="115" on="0"/>
        <pt x="417" y="159" on="0"/>
        <pt x="432" y="218" on="0"/>
        <pt x="432" y="253" on="1"/>
        <pt x="432" y="283" on="0"/>
        <pt x="419" y="338" on="0"/>
        <pt x="390" y="381" on="0"/>
        <pt x="342" y="407" on="0"/>
        <pt x="307" y="407" on="1"/>
        <pt x="273" y="407" on="0"/>
        <pt x="206" y="383" on="0"/>
      </contour>
    </TTGlyph>
    <TTGlyph name="afii10066.locl" xMin="47" yMin="-14" xMax="548" yMax="775">
      <contour>
        <pt x="47" y="243" on="1"/>
        <pt x="47" y="328" on="0"/>
        <pt x="131" y="455" on="0"/>
        <pt x="200" y="493" on="1"/>
        <pt x="168" y="516" on="0"/>
        <pt x="126" y="577" on="0"/>
        <pt x="126" y="622" on="1"/>
        <pt x="126" y="689" on="0"/>
        <pt x="218" y="771" on="0"/>
        <pt x="306" y="771" on="1"/>
        <pt x="355" y="771" on="0"/>
        <pt x="444" y="772" on="0"/>
        <pt x="479" y="775" on="1"/>
        <pt x="489" y="678" on="1"/>
        <pt x="470" y="676" on="0"/>
        <pt x="427" y="674" on="0"/>
        <pt x="383" y="673" on="0"/>
        <pt x="343" y="673" on="0"/>
        <pt x="328" y="673" on="1"/>
        <pt x="292" y="673" on="0"/>
        <pt x="246" y="655" on="0"/>
        <pt x="246" y="624" on="1"/>
        <pt x="246" y="609" on="0"/>
        <pt x="264" y="583" on="0"/>
        <pt x="296" y="559" on="0"/>
        <pt x="338" y="535" on="0"/>
        <pt x="361" y="521" on="1"/>
        <pt x="400" y="497" on="0"/>
        <pt x="468" y="448" on="0"/>
        <pt x="519" y="387" on="0"/>
        <pt x="548" y="309" on="0"/>
        <pt x="548" y="255" on="1"/>
        <pt x="548" y="198" on="0"/>
        <pt x="516" y="100" on="0"/>
        <pt x="453" y="27" on="0"/>
        <pt x="359" y="-14" on="0"/>
        <pt x="297" y="-14" on="1"/>
        <pt x="238" y="-14" on="0"/>
        <pt x="145" y="24" on="0"/>
        <pt x="81" y="92" on="0"/>
        <pt x="47" y="187" on="0"/>
      </contour>
      <contour>
        <pt x="424" y="256" on="1"/>
        <pt x="424" y="293" on="0"/>
        <pt x="402" y="350" on="0"/>
        <pt x="365" y="394" on="0"/>
        <pt x="317" y="428" on="0"/>
        <pt x="292" y="441" on="1"/>
        <pt x="234" y="415" on="0"/>
        <pt x="171" y="313" on="0"/>
        <pt x="171" y="250" on="1"/>
        <pt x="171" y="216" on="0"/>
        <pt x="186" y="158" on="0"/>
        <pt x="218" y="115" on="0"/>
        <pt x="266" y="91" on="0"/>
        <pt x="298" y="91" on="1"/>
        <pt x="360" y="91" on="0"/>
        <pt x="424" y="179" on="0"/>
      </contour>
    </TTGlyph>
    <TTGlyph name="afii10067" xMin="77" yMin="-10" xMax="532" yMax="535">
      <contour>
        <pt x="285" y="-10" on="1"/>
        <pt x="256" y="-10" on="0"/>
        <pt x="196" y="-6" on="0"/>
        <pt x="141" y="0" on="0"/>
        <pt x="93" y="7" on="0"/>
        <pt x="77" y="11" on="1"/>
        <pt x="77" y="516" on="1"/>
        <pt x="93" y="520" on="0"/>
        <pt x="141" y="527" on="0"/>
        <pt x="196" y="532" on="0"/>
        <pt x="256" y="535" on="0"/>
        <pt x="285" y="535" on="1"/>
        <pt x="391" y="535" on="0"/>
        <pt x="509" y="458" on="0"/>
        <pt x="509" y="389" on="1"/>
        <pt x="509" y="353" on="0"/>
        <pt x="473" y="297" on="0"/>
        <pt x="444" y="283" on="1"/>
        <pt x="480" y="269" on="0"/>
        <pt x="532" y="209" on="0"/>
        <pt x="532" y="154" on="1"/>
        <pt x="532" y="75" on="0"/>
        <pt x="408" y="-10" on="0"/>
      </contour>
      <contour>
        <pt x="288" y="313" on="1"/>
        <pt x="333" y="313" on="0"/>
        <pt x="392" y="339" on="0"/>
        <pt x="392" y="378" on="1"/>
        <pt x="392" y="397" on="0"/>
        <pt x="373" y="421" on="0"/>
        <pt x="341" y="435" on="0"/>
        <pt x="299" y="440" on="0"/>
        <pt x="276" y="440" on="1"/>
        <pt x="258" y="440" on="0"/>
        <pt x="211" y="438" on="0"/>
        <pt x="197" y="436" on="1"/>
        <pt x="197" y="313" on="1"/>
      </contour>
      <contour>
        <pt x="197" y="90" on="1"/>
        <pt x="209" y="88" on="0"/>
        <pt x="264" y="85" on="0"/>
        <pt x="288" y="85" on="1"/>
        <pt x="342" y="85" on="0"/>
        <pt x="413" y="115" on="0"/>
        <pt x="413" y="157" on="1"/>
        <pt x="413" y="198" on="0"/>
        <pt x="348" y="229" on="0"/>
        <pt x="296" y="229" on="1"/>
        <pt x="197" y="229" on="1"/>
      </contour>
    </TTGlyph>
    <TTGlyph name="afii10068" xMin="77" yMin="0" xMax="424" yMax="523">
      <contour>
        <pt x="424" y="423" on="1"/>
        <pt x="198" y="423" on="1"/>
        <pt x="198" y="0" on="1"/>
        <pt x="77" y="0" on="1"/>
        <pt x="77" y="523" on="1"/>
        <pt x="424" y="523" on="1"/>
      </contour>
    </TTGlyph>
    <TTGlyph name="afii10069" xMin="13" yMin="-148" xMax="615" yMax="523">
      <contour>
        <pt x="13" y="99" on="1"/>
        <pt x="73" y="99" on="1"/>
        <pt x="104" y="140" on="0"/>
        <pt x="139" y="241" on="0"/>
        <pt x="155" y="352" on="0"/>
        <pt x="159" y="468" on="0"/>
        <pt x="160" y="523" on="1"/>
        <pt x="535" y="523" on="1"/>
        <pt x="535" y="99" on="1"/>
        <pt x="615" y="99" on="1"/>
        <pt x="615" y="-148" on="1"/>
        <pt x="507" y="-148" on="1"/>
        <pt x="507" y="0" on="1"/>
        <pt x="120" y="0" on="1"/>
        <pt x="120" y="-148" on="1"/>
        <pt x="13" y="-148" on="1"/>
      </contour>
      <contour>
        <pt x="414" y="99" on="1"/>
        <pt x="414" y="423" on="1"/>
        <pt x="272" y="423" on="1"/>
        <pt x="270" y="382" on="0"/>
        <pt x="264" y="297" on="0"/>
        <pt x="248" y="214" on="0"/>
        <pt x="221" y="135" on="0"/>
        <pt x="199" y="99" on="1"/>
      </contour>
    </TTGlyph>
    <TTGlyph name="afii10070" xMin="48" yMin="-13" xMax="520" yMax="536">
      <component glyphName="e" x="0" y="0" flags="0x204"/>
    </TTGlyph>
    <TTGlyph name="afii10071" xMin="48" yMin="-13" xMax="520" yMax="744">
      <component glyphName="e" x="0" y="0" flags="0x204"/>
      <component glyphName="dieresis" x="88" y="0" flags="0x4"/>
    </TTGlyph>
    <TTGlyph name="afii10072" xMin="10" yMin="0" xMax="792" yMax="523">
      <contour>
        <pt x="10" y="0" on="1"/>
        <pt x="56" y="77" on="0"/>
        <pt x="174" y="220" on="0"/>
        <pt x="234" y="281" on="1"/>
        <pt x="177" y="342" on="0"/>
        <pt x="69" y="469" on="0"/>
        <pt x="28" y="523" on="1"/>
        <pt x="167" y="523" on="1"/>
        <pt x="198" y="481" on="0"/>
        <pt x="281" y="379" on="0"/>
        <pt x="342" y="305" on="1"/>
        <pt x="342" y="523" on="1"/>
        <pt x="459" y="523" on="1"/>
        <pt x="459" y="305" on="1"/>
        <pt x="522" y="378" on="0"/>
        <pt x="604" y="482" on="0"/>
        <pt x="635" y="523" on="1"/>
        <pt x="772" y="523" on="1"/>
        <pt x="734" y="469" on="0"/>
        <pt x="627" y="343" on="0"/>
        <pt x="568" y="282" on="1"/>
        <pt x="634" y="216" on="0"/>
        <pt x="745" y="78" on="0"/>
        <pt x="792" y="0" on="1"/>
        <pt x="657" y="0" on="1"/>
        <pt x="637" y="30" on="0"/>
        <pt x="590" y="96" on="0"/>
        <pt x="539" y="161" on="0"/>
        <pt x="485" y="221" on="0"/>
        <pt x="459" y="247" on="1"/>
        <pt x="459" y="0" on="1"/>
        <pt x="342" y="0" on="1"/>
        <pt x="342" y="247" on="1"/>
        <pt x="316" y="220" on="0"/>
        <pt x="262" y="158" on="0"/>
        <pt x="211" y="93" on="0"/>
        <pt x="164" y="29" on="0"/>
        <pt x="145" y="0" on="1"/>
      </contour>
    </TTGlyph>
    <TTGlyph name="afii10073" xMin="41" yMin="-13" xMax="454" yMax="535">
      <contour>
        <pt x="54" y="507" on="1"/>
        <pt x="67" y="512" on="0"/>
        <pt x="105" y="522" on="0"/>
        <pt x="149" y="530" on="0"/>
        <pt x="198" y="535" on="0"/>
        <pt x="223" y="535" on="1"/>
        <pt x="266" y="535" on="0"/>
        <pt x="344" y="519" on="0"/>
        <pt x="402" y="483" on="0"/>
        <pt x="437" y="427" on="0"/>
        <pt x="437" y="388" on="1"/>
        <pt x="437" y="346" on="0"/>
        <pt x="391" y="288" on="0"/>
        <pt x="361" y="274" on="1"/>
        <pt x="406" y="257" on="0"/>
        <pt x="454" y="191" on="0"/>
        <pt x="454" y="140" on="1"/>
        <pt x="454" y="99" on="0"/>
        <pt x="419" y="41" on="0"/>
        <pt x="358" y="4" on="0"/>
        <pt x="276" y="-13" on="0"/>
        <pt x="228" y="-13" on="1"/>
        <pt x="170" y="-13" on="0"/>
        <pt x="70" y="6" on="0"/>
        <pt x="41" y="19" on="1"/>
        <pt x="62" y="117" on="1"/>
        <pt x="81" y="109" on="0"/>
        <pt x="165" y="88" on="0"/>
        <pt x="222" y="88" on="1"/>
        <pt x="332" y="88" on="0"/>
        <pt x="332" y="152" on="1"/>
        <pt x="332" y="175" on="0"/>
        <pt x="312" y="203" on="0"/>
        <pt x="282" y="218" on="0"/>
        <pt x="244" y="223" on="0"/>
        <pt x="226" y="223" on="1"/>
        <pt x="126" y="223" on="1"/>
        <pt x="126" y="313" on="1"/>
        <pt x="225" y="313" on="1"/>
        <pt x="262" y="313" on="0"/>
        <pt x="315" y="340" on="0"/>
        <pt x="315" y="374" on="1"/>
        <pt x="315" y="402" on="0"/>
        <pt x="264" y="435" on="0"/>
        <pt x="218" y="435" on="1"/>
        <pt x="198" y="435" on="0"/>
        <pt x="156" y="430" on="0"/>
        <pt x="117" y="422" on="0"/>
        <pt x="85" y="413" on="0"/>
        <pt x="76" y="409" on="1"/>
      </contour>
    </TTGlyph>
    <TTGlyph name="afii10074" xMin="77" yMin="0" xMax="535" yMax="523">
      <contour>
        <pt x="535" y="523" on="1"/>
        <pt x="535" y="0" on="1"/>
        <pt x="415" y="0" on="1"/>
        <pt x="415" y="57" on="0"/>
        <pt x="416" y="169" on="0"/>
        <pt x="417" y="265" on="0"/>
        <pt x="418" y="336" on="0"/>
        <pt x="418" y="353" on="1"/>
        <pt x="388" y="314" on="0"/>
        <pt x="324" y="220" on="0"/>
        <pt x="261" y="126" on="0"/>
        <pt x="205" y="36" on="0"/>
        <pt x="184" y="0" on="1"/>
        <pt x="77" y="0" on="1"/>
        <pt x="77" y="523" on="1"/>
        <pt x="196" y="523" on="1"/>
        <pt x="196" y="465" on="0"/>
        <pt x="195" y="360" on="0"/>
        <pt x="195" y="274" on="0"/>
        <pt x="194" y="210" on="0"/>
        <pt x="194" y="193" on="1"/>
        <pt x="222" y="236" on="0"/>
        <pt x="282" y="327" on="0"/>
        <pt x="343" y="414" on="0"/>
        <pt x="403" y="492" on="0"/>
        <pt x="431" y="523" on="1"/>
      </contour>
    </TTGlyph>
    <TTGlyph name="afii10075" xMin="77" yMin="0" xMax="535" yMax="756">
      <component glyphName="afii10074" x="0" y="0" flags="0x204"/>
      <component glyphName="kratka" x="106" y="0" flags="0x4"/>
    </TTGlyph>
    <TTGlyph name="afii10076" xMin="77" yMin="0" xMax="549" yMax="523">
      <component glyphName="kgreenlandic" x="0" y="0" flags="0x204"/>
    </TTGlyph>
    <TTGlyph name="afii10077" xMin="10" yMin="-10" xMax="536" yMax="523">
      <contour>
        <pt x="282" y="423" on="1"/>
        <pt x="281" y="379" on="0"/>
        <pt x="277" y="284" on="0"/>
        <pt x="262" y="192" on="0"/>
        <pt x="230" y="108" on="0"/>
        <pt x="173" y="41" on="0"/>
        <pt x="88" y="-4" on="0"/>
        <pt x="27" y="-10" on="1"/>
        <pt x="10" y="91" on="1"/>
        <pt x="61" y="101" on="0"/>
        <pt x="117" y="146" on="0"/>
        <pt x="132" y="181" on="1"/>
        <pt x="144" y="207" on="0"/>
        <pt x="157" y="273" on="0"/>
        <pt x="164" y="346" on="0"/>
        <pt x="166" y="422" on="0"/>
        <pt x="166" y="458" on="1"/>
        <pt x="166" y="523" on="1"/>
        <pt x="536" y="523" on="1"/>
        <pt x="536" y="0" on="1"/>
        <pt x="415" y="0" on="1"/>
        <pt x="415" y="423" on="1"/>
      </contour>
    </TTGlyph>
    <TTGlyph name="afii10078" xMin="64" yMin="0" xMax="683" yMax="523">
      <contour>
        <pt x="199" y="343" on="1"/>
        <pt x="196" y="301" on="0"/>
        <pt x="190" y="210" on="0"/>
        <pt x="186" y="120" on="0"/>
        <pt x="182" y="36" on="0"/>
        <pt x="181" y="0" on="1"/>
        <pt x="64" y="0" on="1"/>
        <pt x="66" y="58" on="0"/>
        <pt x="74" y="193" on="0"/>
        <pt x="85" y="332" on="0"/>
        <pt x="97" y="466" on="0"/>
        <pt x="104" y="523" on="1"/>
        <pt x="209" y="523" on="1"/>
        <pt x="247" y="462" on="0"/>
        <pt x="325" y="297" on="0"/>
        <pt x="373" y="192" on="1"/>
        <pt x="423" y="299" on="0"/>
        <pt x="505" y="472" on="0"/>
        <pt x="537" y="523" on="1"/>
        <pt x="643" y="523" on="1"/>
        <pt x="650" y="466" on="0"/>
        <pt x="663" y="332" on="0"/>
        <pt x="673" y="193" on="0"/>
        <pt x="681" y="58" on="0"/>
        <pt x="683" y="0" on="1"/>
        <pt x="563" y="0" on="1"/>
        <pt x="561" y="82" on="0"/>
        <pt x="552" y="257" on="0"/>
        <pt x="546" y="343" on="1"/>
        <pt x="531" y="313" on="0"/>
        <pt x="496" y="239" on="0"/>
        <pt x="462" y="163" on="0"/>
        <pt x="430" y="92" on="0"/>
        <pt x="418" y="65" on="1"/>
        <pt x="328" y="65" on="1"/>
        <pt x="316" y="92" on="0"/>
        <pt x="283" y="164" on="0"/>
        <pt x="249" y="240" on="0"/>
        <pt x="214" y="313" on="0"/>
      </contour>
    </TTGlyph>
    <TTGlyph name="afii10079" xMin="77" yMin="0" xMax="516" yMax="523">
      <contour>
        <pt x="516" y="0" on="1"/>
        <pt x="395" y="0" on="1"/>
        <pt x="395" y="219" on="1"/>
        <pt x="198" y="219" on="1"/>
        <pt x="198" y="0" on="1"/>
        <pt x="77" y="0" on="1"/>
        <pt x="77" y="523" on="1"/>
        <pt x="198" y="523" on="1"/>
        <pt x="198" y="319" on="1"/>
        <pt x="395" y="319" on="1"/>
        <pt x="395" y="523" on="1"/>
        <pt x="516" y="523" on="1"/>
      </contour>
    </TTGlyph>
    <TTGlyph name="afii10080" xMin="48" yMin="-14" xMax="550" yMax="536">
      <component glyphName="o" x="0" y="0" flags="0x204"/>
    </TTGlyph>
    <TTGlyph name="afii10081" xMin="77" yMin="0" xMax="512" yMax="523">
      <contour>
        <pt x="512" y="523" on="1"/>
        <pt x="512" y="0" on="1"/>
        <pt x="391" y="0" on="1"/>
        <pt x="391" y="422" on="1"/>
        <pt x="198" y="422" on="1"/>
        <pt x="198" y="0" on="1"/>
        <pt x="77" y="0" on="1"/>
        <pt x="77" y="523" on="1"/>
      </contour>
    </TTGlyph>
    <TTGlyph name="afii10082" xMin="77" yMin="-185" xMax="548" yMax="534">
      <component glyphName="p" x="0" y="0" flags="0x204"/>
    </TTGlyph>
    <TTGlyph name="afii10083" xMin="48" yMin="-13" xMax="455" yMax="536">
      <component glyphName="c" x="0" y="0" flags="0x204"/>
    </TTGlyph>
    <TTGlyph name="afii10084" xMin="13" yMin="0" xMax="471" yMax="523">
      <contour>
        <pt x="471" y="422" on="1"/>
        <pt x="302" y="422" on="1"/>
        <pt x="302" y="0" on="1"/>
        <pt x="181" y="0" on="1"/>
        <pt x="181" y="422" on="1"/>
        <pt x="13" y="422" on="1"/>
        <pt x="13" y="523" on="1"/>
        <pt x="471" y="523" on="1"/>
      </contour>
    </TTGlyph>
    <TTGlyph name="afii10085" xMin="-1" yMin="-187" xMax="504" yMax="523">
      <component glyphName="y" x="0" y="0" flags="0x204"/>
    </TTGlyph>
    <TTGlyph name="afii10086" xMin="47" yMin="-185" xMax="732" yMax="776">
      <contour>
        <pt x="331" y="421" on="1"/>
        <pt x="260" y="417" on="0"/>
        <pt x="170" y="336" on="0"/>
        <pt x="170" y="259" on="1"/>
        <pt x="170" y="182" on="0"/>
        <pt x="259" y="104" on="0"/>
        <pt x="331" y="99" on="1"/>
      </contour>
      <contour>
        <pt x="448" y="99" on="1"/>
        <pt x="480" y="100" on="0"/>
        <pt x="539" y="119" on="0"/>
        <pt x="583" y="159" on="0"/>
        <pt x="609" y="219" on="0"/>
        <pt x="609" y="260" on="1"/>
        <pt x="609" y="301" on="0"/>
        <pt x="583" y="361" on="0"/>
        <pt x="539" y="400" on="0"/>
        <pt x="480" y="420" on="0"/>
        <pt x="448" y="421" on="1"/>
      </contour>
      <contour>
        <pt x="448" y="-185" on="1"/>
        <pt x="331" y="-185" on="1"/>
        <pt x="331" y="-3" on="1"/>
        <pt x="267" y="0" on="0"/>
        <pt x="162" y="40" on="0"/>
        <pt x="88" y="109" on="0"/>
        <pt x="47" y="203" on="0"/>
        <pt x="47" y="260" on="1"/>
        <pt x="47" y="316" on="0"/>
        <pt x="87" y="408" on="0"/>
        <pt x="160" y="476" on="0"/>
        <pt x="265" y="517" on="0"/>
        <pt x="331" y="522" on="1"/>
        <pt x="331" y="755" on="1"/>
        <pt x="448" y="776" on="1"/>
        <pt x="448" y="522" on="1"/>
        <pt x="505" y="519" on="0"/>
        <pt x="608" y="483" on="0"/>
        <pt x="686" y="417" on="0"/>
        <pt x="732" y="322" on="0"/>
        <pt x="732" y="260" on="1"/>
        <pt x="732" y="197" on="0"/>
        <pt x="687" y="101" on="0"/>
        <pt x="609" y="36" on="0"/>
        <pt x="506" y="0" on="0"/>
        <pt x="448" y="-3" on="1"/>
      </contour>
    </TTGlyph>
    <TTGlyph name="afii10087" xMin="13" yMin="0" xMax="516" yMax="523">
      <component glyphName="x" x="0" y="0" flags="0x204"/>
    </TTGlyph>
    <TTGlyph name="afii10088" xMin="77" yMin="-148" xMax="590" yMax="523">
      <contour>
        <pt x="590" y="99" on="1"/>
        <pt x="590" y="-148" on="1"/>
        <pt x="483" y="-148" on="1"/>
        <pt x="483" y="0" on="1"/>
        <pt x="77" y="0" on="1"/>
        <pt x="77" y="523" on="1"/>
        <pt x="198" y="523" on="1"/>
        <pt x="198" y="99" on="1"/>
        <pt x="390" y="99" on="1"/>
        <pt x="390" y="523" on="1"/>
        <pt x="511" y="523" on="1"/>
        <pt x="511" y="99" on="1"/>
      </contour>
    </TTGlyph>
    <TTGlyph name="afii10089" xMin="43" yMin="0" xMax="473" yMax="523">
      <contour>
        <pt x="164" y="361" on="1"/>
        <pt x="164" y="313" on="0"/>
        <pt x="219" y="274" on="0"/>
        <pt x="267" y="274" on="1"/>
        <pt x="290" y="274" on="0"/>
        <pt x="335" y="279" on="0"/>
        <pt x="352" y="283" on="1"/>
        <pt x="352" y="523" on="1"/>
        <pt x="473" y="523" on="1"/>
        <pt x="473" y="0" on="1"/>
        <pt x="352" y="0" on="1"/>
        <pt x="352" y="187" on="1"/>
        <pt x="334" y="184" on="0"/>
        <pt x="276" y="175" on="0"/>
        <pt x="253" y="175" on="1"/>
        <pt x="206" y="175" on="0"/>
        <pt x="129" y="193" on="0"/>
        <pt x="73" y="236" on="0"/>
        <pt x="43" y="307" on="0"/>
        <pt x="43" y="360" on="1"/>
        <pt x="43" y="523" on="1"/>
        <pt x="164" y="523" on="1"/>
      </contour>
    </TTGlyph>
    <TTGlyph name="afii10090" xMin="77" yMin="0" xMax="768" yMax="523">
      <contour>
        <pt x="77" y="523" on="1"/>
        <pt x="198" y="523" on="1"/>
        <pt x="198" y="99" on="1"/>
        <pt x="362" y="99" on="1"/>
        <pt x="362" y="523" on="1"/>
        <pt x="483" y="523" on="1"/>
        <pt x="483" y="99" on="1"/>
        <pt x="647" y="99" on="1"/>
        <pt x="647" y="523" on="1"/>
        <pt x="768" y="523" on="1"/>
        <pt x="768" y="0" on="1"/>
        <pt x="77" y="0" on="1"/>
      </contour>
    </TTGlyph>
    <TTGlyph name="afii10091" xMin="77" yMin="-148" xMax="848" yMax="523">
      <contour>
        <pt x="77" y="0" on="1"/>
        <pt x="77" y="523" on="1"/>
        <pt x="198" y="523" on="1"/>
        <pt x="198" y="99" on="1"/>
        <pt x="362" y="99" on="1"/>
        <pt x="362" y="523" on="1"/>
        <pt x="483" y="523" on="1"/>
        <pt x="483" y="99" on="1"/>
        <pt x="647" y="99" on="1"/>
        <pt x="647" y="523" on="1"/>
        <pt x="768" y="523" on="1"/>
        <pt x="768" y="99" on="1"/>
        <pt x="848" y="99" on="1"/>
        <pt x="848" y="-148" on="1"/>
        <pt x="740" y="-148" on="1"/>
        <pt x="740" y="0" on="1"/>
      </contour>
    </TTGlyph>
    <TTGlyph name="afii10092" xMin="19" yMin="-11" xMax="587" yMax="523">
      <contour>
        <pt x="269" y="330" on="1"/>
        <pt x="284" y="334" on="0"/>
        <pt x="342" y="340" on="0"/>
        <pt x="371" y="340" on="1"/>
        <pt x="416" y="340" on="0"/>
        <pt x="495" y="320" on="0"/>
        <pt x="553" y="277" on="0"/>
        <pt x="587" y="210" on="0"/>
        <pt x="587" y="164" on="1"/>
        <pt x="587" y="117" on="0"/>
        <pt x="555" y="51" on="0"/>
        <pt x="495" y="9" on="0"/>
        <pt x="412" y="-11" on="0"/>
        <pt x="361" y="-11" on="1"/>
        <pt x="302" y="-11" on="0"/>
        <pt x="200" y="1" on="0"/>
        <pt x="148" y="13" on="1"/>
        <pt x="148" y="422" on="1"/>
        <pt x="19" y="422" on="1"/>
        <pt x="19" y="523" on="1"/>
        <pt x="269" y="523" on="1"/>
      </contour>
      <contour>
        <pt x="358" y="84" on="1"/>
        <pt x="409" y="84" on="0"/>
        <pt x="466" y="123" on="0"/>
        <pt x="466" y="166" on="1"/>
        <pt x="466" y="188" on="0"/>
        <pt x="447" y="218" on="0"/>
        <pt x="416" y="237" on="0"/>
        <pt x="374" y="245" on="0"/>
        <pt x="351" y="245" on="1"/>
        <pt x="330" y="245" on="0"/>
        <pt x="284" y="242" on="0"/>
        <pt x="269" y="238" on="1"/>
        <pt x="269" y="89" on="1"/>
        <pt x="282" y="87" on="0"/>
        <pt x="333" y="84" on="0"/>
      </contour>
    </TTGlyph>
    <TTGlyph name="afii10093" xMin="77" yMin="-11" xMax="714" yMax="523">
      <contour>
        <pt x="714" y="0" on="1"/>
        <pt x="593" y="0" on="1"/>
        <pt x="593" y="523" on="1"/>
        <pt x="714" y="523" on="1"/>
      </contour>
      <contour>
        <pt x="198" y="330" on="1"/>
        <pt x="213" y="334" on="0"/>
        <pt x="270" y="340" on="0"/>
        <pt x="297" y="340" on="1"/>
        <pt x="340" y="340" on="0"/>
        <pt x="417" y="320" on="0"/>
        <pt x="474" y="277" on="0"/>
        <pt x="507" y="210" on="0"/>
        <pt x="507" y="164" on="1"/>
        <pt x="507" y="117" on="0"/>
        <pt x="475" y="51" on="0"/>
        <pt x="417" y="9" on="0"/>
        <pt x="336" y="-11" on="0"/>
        <pt x="287" y="-11" on="1"/>
        <pt x="230" y="-11" on="0"/>
        <pt x="129" y="1" on="0"/>
        <pt x="77" y="13" on="1"/>
        <pt x="77" y="523" on="1"/>
        <pt x="198" y="523" on="1"/>
      </contour>
      <contour>
        <pt x="284" y="84" on="1"/>
        <pt x="331" y="84" on="0"/>
        <pt x="386" y="123" on="0"/>
        <pt x="386" y="166" on="1"/>
        <pt x="386" y="188" on="0"/>
        <pt x="368" y="218" on="0"/>
        <pt x="337" y="237" on="0"/>
        <pt x="298" y="245" on="0"/>
        <pt x="277" y="245" on="1"/>
        <pt x="258" y="245" on="0"/>
        <pt x="213" y="242" on="0"/>
        <pt x="198" y="238" on="1"/>
        <pt x="198" y="89" on="1"/>
        <pt x="211" y="87" on="0"/>
        <pt x="261" y="84" on="0"/>
      </contour>
    </TTGlyph>
    <TTGlyph name="afii10094" xMin="77" yMin="-11" xMax="516" yMax="523">
      <contour>
        <pt x="198" y="330" on="1"/>
        <pt x="213" y="334" on="0"/>
        <pt x="271" y="340" on="0"/>
        <pt x="300" y="340" on="1"/>
        <pt x="345" y="340" on="0"/>
        <pt x="424" y="320" on="0"/>
        <pt x="482" y="277" on="0"/>
        <pt x="516" y="210" on="0"/>
        <pt x="516" y="164" on="1"/>
        <pt x="516" y="117" on="0"/>
        <pt x="484" y="51" on="0"/>
        <pt x="424" y="9" on="0"/>
        <pt x="341" y="-11" on="0"/>
        <pt x="290" y="-11" on="1"/>
        <pt x="231" y="-11" on="0"/>
        <pt x="129" y="1" on="0"/>
        <pt x="77" y="13" on="1"/>
        <pt x="77" y="523" on="1"/>
        <pt x="198" y="523" on="1"/>
      </contour>
      <contour>
        <pt x="287" y="84" on="1"/>
        <pt x="338" y="84" on="0"/>
        <pt x="395" y="123" on="0"/>
        <pt x="395" y="166" on="1"/>
        <pt x="395" y="188" on="0"/>
        <pt x="376" y="218" on="0"/>
        <pt x="345" y="237" on="0"/>
        <pt x="303" y="245" on="0"/>
        <pt x="280" y="245" on="1"/>
        <pt x="259" y="245" on="0"/>
        <pt x="213" y="242" on="0"/>
        <pt x="198" y="238" on="1"/>
        <pt x="198" y="89" on="1"/>
        <pt x="211" y="87" on="0"/>
        <pt x="262" y="84" on="0"/>
      </contour>
    </TTGlyph>
    <TTGlyph name="afii10095" xMin="31" yMin="-12" xMax="466" yMax="536">
      <contour>
        <pt x="466" y="264" on="1"/>
        <pt x="466" y="201" on="0"/>
        <pt x="431" y="99" on="0"/>
        <pt x="363" y="27" on="0"/>
        <pt x="266" y="-12" on="0"/>
        <pt x="204" y="-12" on="1"/>
        <pt x="150" y="-12" on="0"/>
        <pt x="64" y="4" on="0"/>
        <pt x="31" y="18" on="1"/>
        <pt x="52" y="116" on="1"/>
        <pt x="75" y="106" on="0"/>
        <pt x="153" y="91" on="0"/>
        <pt x="191" y="91" on="1"/>
        <pt x="257" y="91" on="0"/>
        <pt x="336" y="155" on="0"/>
        <pt x="343" y="221" on="1"/>
        <pt x="137" y="221" on="1"/>
        <pt x="137" y="312" on="1"/>
        <pt x="342" y="312" on="1"/>
        <pt x="334" y="374" on="0"/>
        <pt x="259" y="434" on="0"/>
        <pt x="196" y="434" on="1"/>
        <pt x="157" y="434" on="0"/>
        <pt x="96" y="421" on="0"/>
        <pt x="70" y="412" on="1"/>
        <pt x="46" y="507" on="1"/>
        <pt x="79" y="521" on="0"/>
        <pt x="163" y="536" on="0"/>
        <pt x="202" y="536" on="1"/>
        <pt x="264" y="536" on="0"/>
        <pt x="362" y="496" on="0"/>
        <pt x="430" y="424" on="0"/>
        <pt x="466" y="324" on="0"/>
      </contour>
    </TTGlyph>
    <TTGlyph name="afii10096" xMin="77" yMin="-14" xMax="795" yMax="536">
      <contour>
        <pt x="550" y="-14" on="1"/>
        <pt x="502" y="-14" on="0"/>
        <pt x="419" y="19" on="0"/>
        <pt x="355" y="80" on="0"/>
        <pt x="314" y="166" on="0"/>
        <pt x="308" y="219" on="1"/>
        <pt x="198" y="219" on="1"/>
        <pt x="198" y="0" on="1"/>
        <pt x="77" y="0" on="1"/>
        <pt x="77" y="523" on="1"/>
        <pt x="198" y="523" on="1"/>
        <pt x="198" y="317" on="1"/>
        <pt x="310" y="317" on="1"/>
        <pt x="317" y="367" on="0"/>
        <pt x="360" y="448" on="0"/>
        <pt x="423" y="505" on="0"/>
        <pt x="504" y="536" on="0"/>
        <pt x="550" y="536" on="1"/>
        <pt x="602" y="536" on="0"/>
        <pt x="692" y="497" on="0"/>
        <pt x="758" y="425" on="0"/>
        <pt x="795" y="324" on="0"/>
        <pt x="795" y="262" on="1"/>
        <pt x="795" y="199" on="0"/>
        <pt x="758" y="97" on="0"/>
        <pt x="692" y="25" on="0"/>
        <pt x="602" y="-14" on="0"/>
      </contour>
      <contour>
        <pt x="550" y="431" on="1"/>
        <pt x="494" y="431" on="0"/>
        <pt x="429" y="340" on="0"/>
        <pt x="429" y="262" on="1"/>
        <pt x="429" y="184" on="0"/>
        <pt x="494" y="91" on="0"/>
        <pt x="550" y="91" on="1"/>
        <pt x="606" y="91" on="0"/>
        <pt x="671" y="184" on="0"/>
        <pt x="671" y="262" on="1"/>
        <pt x="671" y="340" on="0"/>
        <pt x="606" y="431" on="0"/>
      </contour>
    </TTGlyph>
    <TTGlyph name="afii10097" xMin="28" yMin="0" xMax="489" yMax="535">
      <contour>
        <pt x="308" y="194" on="1"/>
        <pt x="296" y="194" on="0"/>
        <pt x="272" y="194" on="0"/>
        <pt x="261" y="195" on="1"/>
        <pt x="229" y="147" on="0"/>
        <pt x="175" y="46" on="0"/>
        <pt x="152" y="0" on="1"/>
        <pt x="28" y="0" on="1"/>
        <pt x="55" y="62" on="0"/>
        <pt x="121" y="176" on="0"/>
        <pt x="150" y="216" on="1"/>
        <pt x="101" y="237" on="0"/>
        <pt x="56" y="308" on="0"/>
        <pt x="56" y="356" on="1"/>
        <pt x="56" y="400" on="0"/>
        <pt x="89" y="467" on="0"/>
        <pt x="149" y="512" on="0"/>
        <pt x="233" y="535" on="0"/>
        <pt x="284" y="535" on="1"/>
        <pt x="343" y="535" on="0"/>
        <pt x="454" y="521" on="0"/>
        <pt x="489" y="512" on="1"/>
        <pt x="489" y="0" on="1"/>
        <pt x="368" y="0" on="1"/>
        <pt x="368" y="194" on="1"/>
      </contour>
      <contour>
        <pt x="368" y="435" on="1"/>
        <pt x="357" y="437" on="0"/>
        <pt x="311" y="440" on="0"/>
        <pt x="287" y="440" on="1"/>
        <pt x="176" y="440" on="0"/>
        <pt x="176" y="358" on="1"/>
        <pt x="176" y="336" on="0"/>
        <pt x="193" y="307" on="0"/>
        <pt x="223" y="289" on="0"/>
        <pt x="263" y="282" on="0"/>
        <pt x="286" y="282" on="1"/>
        <pt x="368" y="282" on="1"/>
      </contour>
    </TTGlyph>
    <TTGlyph name="afii10098" xMin="77" yMin="0" xMax="429" yMax="650">
      <contour>
        <pt x="429" y="423" on="1"/>
        <pt x="198" y="423" on="1"/>
        <pt x="198" y="0" on="1"/>
        <pt x="77" y="0" on="1"/>
        <pt x="77" y="523" on="1"/>
        <pt x="324" y="523" on="1"/>
        <pt x="324" y="650" on="1"/>
        <pt x="429" y="650" on="1"/>
      </contour>
    </TTGlyph>
    <TTGlyph name="afii10099" xMin="3" yMin="-186" xMax="508" yMax="776">
      <contour>
        <pt x="387" y="266" on="1"/>
        <pt x="387" y="308" on="0"/>
        <pt x="376" y="367" on="0"/>
        <pt x="351" y="404" on="0"/>
        <pt x="309" y="421" on="0"/>
        <pt x="278" y="421" on="1"/>
        <pt x="254" y="421" on="0"/>
        <pt x="204" y="411" on="0"/>
        <pt x="192" y="407" on="1"/>
        <pt x="192" y="0" on="1"/>
        <pt x="71" y="0" on="1"/>
        <pt x="71" y="605" on="1"/>
        <pt x="3" y="605" on="1"/>
        <pt x="3" y="686" on="1"/>
        <pt x="71" y="686" on="1"/>
        <pt x="71" y="756" on="1"/>
        <pt x="192" y="776" on="1"/>
        <pt x="192" y="686" on="1"/>
        <pt x="352" y="686" on="1"/>
        <pt x="352" y="605" on="1"/>
        <pt x="192" y="605" on="1"/>
        <pt x="192" y="508" on="1"/>
        <pt x="212" y="515" on="0"/>
        <pt x="265" y="525" on="0"/>
        <pt x="291" y="525" on="1"/>
        <pt x="353" y="525" on="0"/>
        <pt x="436" y="491" on="0"/>
        <pt x="486" y="429" on="0"/>
        <pt x="508" y="342" on="0"/>
        <pt x="508" y="290" on="1"/>
        <pt x="508" y="1" on="1"/>
        <pt x="508" y="-46" on="0"/>
        <pt x="491" y="-116" on="0"/>
        <pt x="452" y="-163" on="0"/>
        <pt x="388" y="-186" on="0"/>
        <pt x="340" y="-186" on="1"/>
        <pt x="326" y="-186" on="0"/>
        <pt x="286" y="-181" on="0"/>
        <pt x="269" y="-176" on="1"/>
        <pt x="282" y="-86" on="1"/>
        <pt x="292" y="-89" on="0"/>
        <pt x="315" y="-92" on="0"/>
        <pt x="326" y="-92" on="1"/>
        <pt x="359" y="-92" on="0"/>
        <pt x="387" y="-51" on="0"/>
        <pt x="387" y="-10" on="1"/>
      </contour>
    </TTGlyph>
    <TTGlyph name="afii10100" xMin="77" yMin="0" xMax="424" yMax="808">
      <component glyphName="afii10068" x="0" y="0" flags="0x204"/>
      <component glyphName="acute" x="90" y="0" flags="0x4"/>
    </TTGlyph>
    <TTGlyph name="afii10101" xMin="48" yMin="-12" xMax="483" yMax="536">
      <contour>
        <pt x="48" y="264" on="1"/>
        <pt x="48" y="324" on="0"/>
        <pt x="84" y="424" on="0"/>
        <pt x="152" y="496" on="0"/>
        <pt x="250" y="536" on="0"/>
        <pt x="312" y="536" on="1"/>
        <pt x="351" y="536" on="0"/>
        <pt x="435" y="521" on="0"/>
        <pt x="468" y="507" on="1"/>
        <pt x="444" y="412" on="1"/>
        <pt x="418" y="421" on="0"/>
        <pt x="357" y="434" on="0"/>
        <pt x="318" y="434" on="1"/>
        <pt x="255" y="434" on="0"/>
        <pt x="180" y="374" on="0"/>
        <pt x="172" y="312" on="1"/>
        <pt x="377" y="312" on="1"/>
        <pt x="377" y="221" on="1"/>
        <pt x="171" y="221" on="1"/>
        <pt x="178" y="155" on="0"/>
        <pt x="257" y="91" on="0"/>
        <pt x="323" y="91" on="1"/>
        <pt x="361" y="91" on="0"/>
        <pt x="439" y="106" on="0"/>
        <pt x="462" y="116" on="1"/>
        <pt x="483" y="18" on="1"/>
        <pt x="450" y="4" on="0"/>
        <pt x="364" y="-12" on="0"/>
        <pt x="310" y="-12" on="1"/>
        <pt x="248" y="-12" on="0"/>
        <pt x="151" y="27" on="0"/>
        <pt x="83" y="99" on="0"/>
        <pt x="48" y="201" on="0"/>
      </contour>
    </TTGlyph>
    <TTGlyph name="afii10102" xMin="37" yMin="-13" xMax="421" yMax="536">
      <component glyphName="s" x="0" y="0" flags="0x204"/>
    </TTGlyph>
    <TTGlyph name="afii10103" xMin="63" yMin="0" xMax="212" yMax="751">
      <component glyphName="i" x="0" y="0" flags="0x204"/>
    </TTGlyph>
    <TTGlyph name="afii10104" xMin="-28" yMin="0" xMax="313" yMax="744">
      <component glyphName="dotlessi" x="0" y="0" flags="0x204"/>
      <component glyphName="dieresis" x="-60" y="0" flags="0x4"/>
    </TTGlyph>
    <TTGlyph name="afii10105" xMin="-68" yMin="-186" xMax="211" yMax="751">
      <component glyphName="j" x="0" y="0" flags="0x204"/>
    </TTGlyph>
    <TTGlyph name="afii10106" xMin="10" yMin="-11" xMax="845" yMax="523">
      <contour>
        <pt x="282" y="423" on="1"/>
        <pt x="281" y="379" on="0"/>
        <pt x="277" y="284" on="0"/>
        <pt x="262" y="192" on="0"/>
        <pt x="230" y="108" on="0"/>
        <pt x="173" y="41" on="0"/>
        <pt x="88" y="-4" on="0"/>
        <pt x="27" y="-10" on="1"/>
        <pt x="10" y="91" on="1"/>
        <pt x="61" y="101" on="0"/>
        <pt x="117" y="146" on="0"/>
        <pt x="132" y="181" on="1"/>
        <pt x="144" y="207" on="0"/>
        <pt x="157" y="275" on="0"/>
        <pt x="164" y="350" on="0"/>
        <pt x="166" y="428" on="0"/>
        <pt x="166" y="464" on="1"/>
        <pt x="166" y="523" on="1"/>
        <pt x="536" y="523" on="1"/>
        <pt x="536" y="330" on="1"/>
        <pt x="551" y="334" on="0"/>
        <pt x="607" y="340" on="0"/>
        <pt x="636" y="340" on="1"/>
        <pt x="676" y="340" on="0"/>
        <pt x="751" y="321" on="0"/>
        <pt x="810" y="279" on="0"/>
        <pt x="845" y="213" on="0"/>
        <pt x="845" y="167" on="1"/>
        <pt x="845" y="120" on="0"/>
        <pt x="814" y="52" on="0"/>
        <pt x="756" y="9" on="0"/>
        <pt x="675" y="-11" on="0"/>
        <pt x="625" y="-11" on="1"/>
        <pt x="568" y="-11" on="0"/>
        <pt x="466" y="1" on="0"/>
        <pt x="415" y="13" on="1"/>
        <pt x="415" y="423" on="1"/>
      </contour>
      <contour>
        <pt x="622" y="84" on="1"/>
        <pt x="669" y="84" on="0"/>
        <pt x="724" y="123" on="0"/>
        <pt x="724" y="166" on="1"/>
        <pt x="724" y="188" on="0"/>
        <pt x="706" y="218" on="0"/>
        <pt x="675" y="237" on="0"/>
        <pt x="636" y="245" on="0"/>
        <pt x="615" y="245" on="1"/>
        <pt x="596" y="245" on="0"/>
        <pt x="551" y="242" on="0"/>
        <pt x="536" y="238" on="1"/>
        <pt x="536" y="89" on="1"/>
        <pt x="549" y="87" on="0"/>
        <pt x="599" y="84" on="0"/>
      </contour>
    </TTGlyph>
    <TTGlyph name="afii10107" xMin="77" yMin="-11" xMax="825" yMax="523">
      <contour>
        <pt x="516" y="523" on="1"/>
        <pt x="516" y="330" on="1"/>
        <pt x="531" y="334" on="0"/>
        <pt x="587" y="340" on="0"/>
        <pt x="616" y="340" on="1"/>
        <pt x="656" y="340" on="0"/>
        <pt x="731" y="321" on="0"/>
        <pt x="790" y="279" on="0"/>
        <pt x="825" y="213" on="0"/>
        <pt x="825" y="167" on="1"/>
        <pt x="825" y="120" on="0"/>
        <pt x="794" y="52" on="0"/>
        <pt x="736" y="9" on="0"/>
        <pt x="655" y="-11" on="0"/>
        <pt x="605" y="-11" on="1"/>
        <pt x="548" y="-11" on="0"/>
        <pt x="446" y="1" on="0"/>
        <pt x="395" y="13" on="1"/>
        <pt x="395" y="220" on="1"/>
        <pt x="198" y="220" on="1"/>
        <pt x="198" y="0" on="1"/>
        <pt x="77" y="0" on="1"/>
        <pt x="77" y="523" on="1"/>
        <pt x="198" y="523" on="1"/>
        <pt x="198" y="320" on="1"/>
        <pt x="395" y="320" on="1"/>
        <pt x="395" y="523" on="1"/>
      </contour>
      <contour>
        <pt x="602" y="84" on="1"/>
        <pt x="649" y="84" on="0"/>
        <pt x="704" y="123" on="0"/>
        <pt x="704" y="166" on="1"/>
        <pt x="704" y="188" on="0"/>
        <pt x="686" y="218" on="0"/>
        <pt x="655" y="237" on="0"/>
        <pt x="616" y="245" on="0"/>
        <pt x="595" y="245" on="1"/>
        <pt x="576" y="245" on="0"/>
        <pt x="531" y="242" on="0"/>
        <pt x="516" y="238" on="1"/>
        <pt x="516" y="89" on="1"/>
        <pt x="529" y="87" on="0"/>
        <pt x="579" y="84" on="0"/>
      </contour>
    </TTGlyph>
    <TTGlyph name="afii10108" xMin="9" yMin="0" xMax="514" yMax="776">
      <component glyphName="hbar" x="0" y="0" flags="0x204"/>
    </TTGlyph>
    <TTGlyph name="afii10109" xMin="77" yMin="0" xMax="549" yMax="808">
      <component glyphName="kgreenlandic" x="0" y="0" flags="0x204"/>
      <component glyphName="acute" x="120" y="0" flags="0x4"/>
    </TTGlyph>
    <TTGlyph name="afii10110" xMin="-1" yMin="-187" xMax="504" yMax="756">
      <component glyphName="y" x="0" y="0" flags="0x204"/>
      <component glyphName="kratka" x="62" y="0" flags="0x4"/>
    </TTGlyph>
    <TTGlyph name="afii10145" xMin="83" yMin="-185" xMax="631" yMax="693">
      <contour>
        <pt x="505" y="107" on="1"/>
        <pt x="505" y="693" on="1"/>
        <pt x="631" y="693" on="1"/>
        <pt x="631" y="0" on="1"/>
        <pt x="418" y="0" on="1"/>
        <pt x="418" y="-185" on="1"/>
        <pt x="297" y="-185" on="1"/>
        <pt x="297" y="0" on="1"/>
        <pt x="83" y="0" on="1"/>
        <pt x="83" y="693" on="1"/>
        <pt x="209" y="693" on="1"/>
        <pt x="209" y="107" on="1"/>
      </contour>
    </TTGlyph>
    <TTGlyph name="afii10193" xMin="77" yMin="-148" xMax="511" yMax="523">
      <contour>
        <pt x="347" y="0" on="1"/>
        <pt x="347" y="-148" on="1"/>
        <pt x="239" y="-148" on="1"/>
        <pt x="239" y="0" on="1"/>
        <pt x="77" y="0" on="1"/>
        <pt x="77" y="523" on="1"/>
        <pt x="198" y="523" on="1"/>
        <pt x="198" y="99" on="1"/>
        <pt x="390" y="99" on="1"/>
        <pt x="390" y="523" on="1"/>
        <pt x="511" y="523" on="1"/>
        <pt x="511" y="0" on="1"/>
      </contour>
    </TTGlyph>
    <TTGlyph name="afii61289" xMin="3" yMin="-15" xMax="453" yMax="776">
      <contour>
        <pt x="453" y="47" on="1"/>
        <pt x="421" y="18" on="0"/>
        <pt x="337" y="-15" on="0"/>
        <pt x="283" y="-15" on="1"/>
        <pt x="236" y="-15" on="0"/>
        <pt x="169" y="11" on="0"/>
        <pt x="125" y="57" on="0"/>
        <pt x="103" y="123" on="0"/>
        <pt x="100" y="164" on="1"/>
        <pt x="45" y="125" on="1"/>
        <pt x="3" y="187" on="1"/>
        <pt x="28" y="206" on="0"/>
        <pt x="76" y="241" on="0"/>
        <pt x="99" y="259" on="1"/>
        <pt x="99" y="524" on="1"/>
        <pt x="99" y="593" on="0"/>
        <pt x="127" y="689" on="0"/>
        <pt x="175" y="749" on="0"/>
        <pt x="240" y="776" on="0"/>
        <pt x="278" y="776" on="1"/>
        <pt x="320" y="776" on="0"/>
        <pt x="377" y="745" on="0"/>
        <pt x="412" y="695" on="0"/>
        <pt x="427" y="630" on="0"/>
        <pt x="427" y="597" on="1"/>
        <pt x="427" y="498" on="0"/>
        <pt x="312" y="325" on="0"/>
        <pt x="214" y="241" on="1"/>
        <pt x="214" y="203" on="1"/>
        <pt x="214" y="89" on="0"/>
        <pt x="306" y="89" on="1"/>
        <pt x="336" y="89" on="0"/>
        <pt x="385" y="114" on="0"/>
        <pt x="404" y="130" on="1"/>
      </contour>
      <contour>
        <pt x="214" y="349" on="1"/>
        <pt x="272" y="406" on="0"/>
        <pt x="341" y="532" on="0"/>
        <pt x="341" y="599" on="1"/>
        <pt x="341" y="635" on="0"/>
        <pt x="317" y="686" on="0"/>
        <pt x="283" y="686" on="1"/>
        <pt x="269" y="686" on="0"/>
        <pt x="245" y="673" on="0"/>
        <pt x="225" y="639" on="0"/>
        <pt x="214" y="580" on="0"/>
        <pt x="214" y="534" on="1"/>
      </contour>
    </TTGlyph>
    <TTGlyph name="afii61352" xMin="83" yMin="0" xMax="1097" yMax="708">
      <contour>
        <pt x="532" y="0" on="1"/>
        <pt x="498" y="57" on="0"/>
        <pt x="417" y="188" on="0"/>
        <pt x="332" y="321" on="0"/>
        <pt x="246" y="446" on="0"/>
        <pt x="207" y="496" on="1"/>
        <pt x="207" y="0" on="1"/>
        <pt x="83" y="0" on="1"/>
        <pt x="83" y="693" on="1"/>
        <pt x="186" y="693" on="1"/>
        <pt x="222" y="651" on="0"/>
        <pt x="308" y="536" on="0"/>
        <pt x="396" y="412" on="0"/>
        <pt x="480" y="287" on="0"/>
        <pt x="514" y="233" on="1"/>
        <pt x="514" y="693" on="1"/>
        <pt x="639" y="693" on="1"/>
        <pt x="639" y="0" on="1"/>
      </contour>
      <contour>
        <pt x="740" y="232" on="1"/>
        <pt x="1080" y="232" on="1"/>
        <pt x="1080" y="144" on="1"/>
        <pt x="740" y="144" on="1"/>
      </contour>
      <contour>
        <pt x="1097" y="512" on="1"/>
        <pt x="1097" y="467" on="0"/>
        <pt x="1069" y="395" on="0"/>
        <pt x="1020" y="344" on="0"/>
        <pt x="951" y="317" on="0"/>
        <pt x="910" y="317" on="1"/>
        <pt x="869" y="317" on="0"/>
        <pt x="800" y="344" on="0"/>
        <pt x="750" y="395" on="0"/>
        <pt x="722" y="467" on="0"/>
        <pt x="722" y="512" on="1"/>
        <pt x="722" y="557" on="0"/>
        <pt x="750" y="630" on="0"/>
        <pt x="800" y="681" on="0"/>
        <pt x="869" y="708" on="0"/>
        <pt x="910" y="708" on="1"/>
        <pt x="951" y="708" on="0"/>
        <pt x="1020" y="681" on="0"/>
        <pt x="1069" y="630" on="0"/>
        <pt x="1097" y="557" on="0"/>
      </contour>
      <contour>
        <pt x="1003" y="512" on="1"/>
        <pt x="1003" y="564" on="0"/>
        <pt x="955" y="625" on="0"/>
        <pt x="910" y="625" on="1"/>
        <pt x="865" y="625" on="0"/>
        <pt x="816" y="564" on="0"/>
        <pt x="816" y="512" on="1"/>
        <pt x="816" y="461" on="0"/>
        <pt x="865" y="400" on="0"/>
        <pt x="910" y="400" on="1"/>
        <pt x="955" y="400" on="0"/>
        <pt x="1003" y="461" on="0"/>
      </contour>
    </TTGlyph>
    <TTGlyph name="agrave" xMin="40" yMin="-11" xMax="463" yMax="808">
      <component glyphName="a" x="0" y="0" flags="0x204"/>
      <component glyphName="grave" x="45" y="0" flags="0x4"/>
    </TTGlyph>
    <TTGlyph name="alpha" xMin="48" yMin="-11" xMax="594" yMax="534">
      <contour>
        <pt x="577" y="-11" on="1"/>
        <pt x="527" y="-11" on="0"/>
        <pt x="460" y="16" on="0"/>
        <pt x="438" y="40" on="1"/>
        <pt x="415" y="23" on="0"/>
        <pt x="338" y="-11" on="0"/>
        <pt x="284" y="-11" on="1"/>
        <pt x="227" y="-11" on="0"/>
        <pt x="139" y="28" on="0"/>
        <pt x="79" y="99" on="0"/>
        <pt x="48" y="199" on="0"/>
        <pt x="48" y="261" on="1"/>
        <pt x="48" y="323" on="0"/>
        <pt x="85" y="424" on="0"/>
        <pt x="154" y="495" on="0"/>
        <pt x="253" y="534" on="0"/>
        <pt x="315" y="534" on="1"/>
        <pt x="371" y="534" on="0"/>
        <pt x="481" y="515" on="0"/>
        <pt x="515" y="504" on="1"/>
        <pt x="515" y="181" on="1"/>
        <pt x="515" y="154" on="0"/>
        <pt x="523" y="121" on="0"/>
        <pt x="542" y="102" on="0"/>
        <pt x="572" y="93" on="0"/>
        <pt x="594" y="90" on="1"/>
      </contour>
      <contour>
        <pt x="298" y="92" on="1"/>
        <pt x="331" y="92" on="0"/>
        <pt x="384" y="112" on="0"/>
        <pt x="400" y="124" on="1"/>
        <pt x="394" y="154" on="0"/>
        <pt x="394" y="191" on="1"/>
        <pt x="394" y="421" on="1"/>
        <pt x="383" y="423" on="0"/>
        <pt x="344" y="429" on="0"/>
        <pt x="317" y="429" on="1"/>
        <pt x="248" y="429" on="0"/>
        <pt x="172" y="339" on="0"/>
        <pt x="172" y="259" on="1"/>
        <pt x="172" y="183" on="0"/>
        <pt x="233" y="92" on="0"/>
      </contour>
    </TTGlyph>
    <TTGlyph name="alphatonos" xMin="48" yMin="-11" xMax="594" yMax="800">
      <component glyphName="alpha" x="0" y="0" flags="0x204"/>
      <component glyphName="tonos" x="95" y="0" flags="0x4"/>
    </TTGlyph>
    <TTGlyph name="amacron" xMin="40" yMin="-11" xMax="463" yMax="718">
      <component glyphName="a" x="0" y="0" flags="0x204"/>
      <component glyphName="macron" x="74" y="0" flags="0x4"/>
    </TTGlyph>
    <TTGlyph name="ampersand" xMin="43" yMin="-9" xMax="676" yMax="709">
      <contour>
        <pt x="43" y="184" on="1"/>
        <pt x="43" y="222" on="0"/>
        <pt x="66" y="284" on="0"/>
        <pt x="105" y="334" on="0"/>
        <pt x="156" y="372" on="0"/>
        <pt x="184" y="387" on="1"/>
        <pt x="154" y="419" on="0"/>
        <pt x="117" y="491" on="0"/>
        <pt x="117" y="531" on="1"/>
        <pt x="117" y="615" on="0"/>
        <pt x="220" y="709" on="0"/>
        <pt x="304" y="709" on="1"/>
        <pt x="347" y="709" on="0"/>
        <pt x="414" y="685" on="0"/>
        <pt x="458" y="643" on="0"/>
        <pt x="481" y="586" on="0"/>
        <pt x="481" y="554" on="1"/>
        <pt x="481" y="522" on="0"/>
        <pt x="460" y="466" on="0"/>
        <pt x="424" y="419" on="0"/>
        <pt x="377" y="380" on="0"/>
        <pt x="350" y="365" on="1"/>
        <pt x="487" y="227" on="1"/>
        <pt x="501" y="253" on="0"/>
        <pt x="519" y="318" on="0"/>
        <pt x="524" y="349" on="1"/>
        <pt x="625" y="336" on="1"/>
        <pt x="620" y="296" on="0"/>
        <pt x="588" y="199" on="0"/>
        <pt x="562" y="155" on="1"/>
        <pt x="595" y="118" on="0"/>
        <pt x="656" y="39" on="0"/>
        <pt x="676" y="0" on="1"/>
        <pt x="550" y="0" on="1"/>
        <pt x="540" y="17" on="0"/>
        <pt x="509" y="57" on="0"/>
        <pt x="492" y="74" on="1"/>
        <pt x="451" y="37" on="0"/>
        <pt x="345" y="-9" on="0"/>
        <pt x="278" y="-9" on="1"/>
        <pt x="211" y="-9" on="0"/>
        <pt x="121" y="27" on="0"/>
        <pt x="66" y="83" on="0"/>
        <pt x="43" y="151" on="0"/>
      </contour>
      <contour>
        <pt x="159" y="192" on="1"/>
        <pt x="159" y="175" on="0"/>
        <pt x="172" y="139" on="0"/>
        <pt x="201" y="108" on="0"/>
        <pt x="248" y="88" on="0"/>
        <pt x="281" y="88" on="1"/>
        <pt x="326" y="88" on="0"/>
        <pt x="399" y="116" on="0"/>
        <pt x="425" y="142" on="1"/>
        <pt x="249" y="321" on="1"/>
        <pt x="234" y="313" on="0"/>
        <pt x="202" y="291" on="0"/>
        <pt x="176" y="260" on="0"/>
        <pt x="159" y="219" on="0"/>
      </contour>
      <contour>
        <pt x="376" y="549" on="1"/>
        <pt x="376" y="578" on="0"/>
        <pt x="338" y="619" on="0"/>
        <pt x="302" y="619" on="1"/>
        <pt x="264" y="619" on="0"/>
        <pt x="224" y="573" on="0"/>
        <pt x="224" y="538" on="1"/>
        <pt x="224" y="509" on="0"/>
        <pt x="256" y="452" on="0"/>
        <pt x="284" y="426" on="1"/>
        <pt x="303" y="436" on="0"/>
        <pt x="336" y="460" on="0"/>
        <pt x="361" y="490" on="0"/>
        <pt x="376" y="526" on="0"/>
      </contour>
    </TTGlyph>
    <TTGlyph name="aogonek" xMin="40" yMin="-204" xMax="464" yMax="536">
      <contour>
        <pt x="251" y="536" on="1"/>
        <pt x="311" y="536" on="0"/>
        <pt x="393" y="506" on="0"/>
        <pt x="442" y="452" on="0"/>
        <pt x="463" y="375" on="0"/>
        <pt x="463" y="329" on="1"/>
        <pt x="463" y="12" on="1"/>
        <pt x="452" y="3" on="0"/>
        <pt x="419" y="-23" on="0"/>
        <pt x="403" y="-40" on="1"/>
        <pt x="389" y="-54" on="0"/>
        <pt x="373" y="-78" on="0"/>
        <pt x="373" y="-91" on="1"/>
        <pt x="373" y="-118" on="0"/>
        <pt x="408" y="-118" on="1"/>
        <pt x="416" y="-118" on="0"/>
        <pt x="440" y="-115" on="0"/>
        <pt x="454" y="-110" on="1"/>
        <pt x="464" y="-191" on="1"/>
        <pt x="448" y="-197" on="0"/>
        <pt x="403" y="-204" on="0"/>
        <pt x="381" y="-204" on="1"/>
        <pt x="319" y="-204" on="0"/>
        <pt x="264" y="-159" on="0"/>
        <pt x="264" y="-121" on="1"/>
        <pt x="264" y="-98" on="0"/>
        <pt x="286" y="-57" on="0"/>
        <pt x="303" y="-39" on="1"/>
        <pt x="317" y="-22" on="0"/>
        <pt x="337" y="-7" on="1"/>
        <pt x="317" y="-9" on="0"/>
        <pt x="274" y="-11" on="0"/>
        <pt x="251" y="-11" on="1"/>
        <pt x="204" y="-11" on="0"/>
        <pt x="126" y="7" on="0"/>
        <pt x="71" y="47" on="0"/>
        <pt x="40" y="111" on="0"/>
        <pt x="40" y="158" on="1"/>
        <pt x="40" y="203" on="0"/>
        <pt x="75" y="265" on="0"/>
        <pt x="135" y="304" on="0"/>
        <pt x="214" y="321" on="0"/>
        <pt x="257" y="321" on="1"/>
        <pt x="277" y="321" on="0"/>
        <pt x="321" y="316" on="0"/>
        <pt x="346" y="310" on="1"/>
        <pt x="346" y="330" on="1"/>
        <pt x="346" y="351" on="0"/>
        <pt x="336" y="389" on="0"/>
        <pt x="311" y="418" on="0"/>
        <pt x="270" y="434" on="0"/>
        <pt x="239" y="434" on="1"/>
        <pt x="197" y="434" on="0"/>
        <pt x="127" y="422" on="0"/>
        <pt x="105" y="414" on="1"/>
        <pt x="90" y="512" on="1"/>
        <pt x="113" y="520" on="0"/>
        <pt x="201" y="536" on="0"/>
      </contour>
      <contour>
        <pt x="261" y="85" on="1"/>
        <pt x="317" y="85" on="0"/>
        <pt x="346" y="91" on="1"/>
        <pt x="346" y="225" on="1"/>
        <pt x="336" y="228" on="0"/>
        <pt x="298" y="234" on="0"/>
        <pt x="275" y="234" on="1"/>
        <pt x="255" y="234" on="0"/>
        <pt x="214" y="228" on="0"/>
        <pt x="181" y="212" on="0"/>
        <pt x="161" y="183" on="0"/>
        <pt x="161" y="161" on="1"/>
        <pt x="161" y="118" on="0"/>
        <pt x="215" y="85" on="0"/>
      </contour>
    </TTGlyph>
    <TTGlyph name="apostrophe" xMin="113" yMin="553" xMax="260" yMax="776">
      <contour>
        <pt x="260" y="739" on="0"/>
        <pt x="251" y="678" on="0"/>
        <pt x="235" y="625" on="0"/>
        <pt x="211" y="577" on="0"/>
        <pt x="195" y="553" on="1"/>
        <pt x="113" y="578" on="1"/>
        <pt x="133" y="620" on="0"/>
        <pt x="150" y="693" on="0"/>
        <pt x="150" y="734" on="1"/>
        <pt x="150" y="745" on="0"/>
        <pt x="149" y="769" on="0"/>
        <pt x="147" y="776" on="1"/>
        <pt x="260" y="776" on="1"/>
      </contour>
    </TTGlyph>
    <TTGlyph name="approxequal" xMin="33" yMin="78" xMax="534" yMax="491">
      <contour>
        <pt x="385" y="307" on="1"/>
        <pt x="354" y="307" on="0"/>
        <pt x="301" y="332" on="0"/>
        <pt x="252" y="362" on="0"/>
        <pt x="205" y="387" on="0"/>
        <pt x="181" y="387" on="1"/>
        <pt x="157" y="387" on="0"/>
        <pt x="127" y="350" on="0"/>
        <pt x="116" y="312" on="1"/>
        <pt x="33" y="335" on="1"/>
        <pt x="38" y="359" on="0"/>
        <pt x="57" y="413" on="0"/>
        <pt x="92" y="460" on="0"/>
        <pt x="144" y="491" on="0"/>
        <pt x="181" y="491" on="1"/>
        <pt x="212" y="491" on="0"/>
        <pt x="265" y="466" on="0"/>
        <pt x="315" y="436" on="0"/>
        <pt x="361" y="411" on="0"/>
        <pt x="385" y="411" on="1"/>
        <pt x="410" y="411" on="0"/>
        <pt x="440" y="448" on="0"/>
        <pt x="450" y="486" on="1"/>
        <pt x="533" y="463" on="1"/>
        <pt x="528" y="439" on="0"/>
        <pt x="509" y="385" on="0"/>
        <pt x="474" y="338" on="0"/>
        <pt x="422" y="307" on="0"/>
      </contour>
      <contour>
        <pt x="386" y="78" on="1"/>
        <pt x="355" y="78" on="0"/>
        <pt x="302" y="103" on="0"/>
        <pt x="252" y="133" on="0"/>
        <pt x="206" y="158" on="0"/>
        <pt x="182" y="158" on="1"/>
        <pt x="157" y="158" on="0"/>
        <pt x="127" y="120" on="0"/>
        <pt x="117" y="82" on="1"/>
        <pt x="34" y="105" on="1"/>
        <pt x="38" y="129" on="0"/>
        <pt x="58" y="183" on="0"/>
        <pt x="93" y="230" on="0"/>
        <pt x="145" y="261" on="0"/>
        <pt x="182" y="261" on="1"/>
        <pt x="213" y="261" on="0"/>
        <pt x="266" y="236" on="0"/>
        <pt x="315" y="206" on="0"/>
        <pt x="362" y="181" on="0"/>
        <pt x="386" y="181" on="1"/>
        <pt x="410" y="181" on="0"/>
        <pt x="440" y="219" on="0"/>
        <pt x="451" y="257" on="1"/>
        <pt x="534" y="234" on="1"/>
        <pt x="529" y="210" on="0"/>
        <pt x="510" y="156" on="0"/>
        <pt x="475" y="109" on="0"/>
        <pt x="423" y="78" on="0"/>
      </contour>
    </TTGlyph>
    <TTGlyph name="aring" xMin="40" yMin="-11" xMax="463" yMax="796">
      <component glyphName="a" x="0" y="0" flags="0x204"/>
      <component glyphName="ring" x="78" y="0" flags="0x4"/>
    </TTGlyph>
    <TTGlyph name="aringacute" xMin="40" yMin="-11" xMax="463" yMax="929">
      <component glyphName="a" x="0" y="0" flags="0x204"/>
      <component glyphName="ring_acute" x="82" y="0" flags="0x4"/>
    </TTGlyph>
    <TTGlyph name="asciicircum" xMin="33" yMin="300" xMax="534" yMax="693">
      <contour>
        <pt x="534" y="349" on="1"/>
        <pt x="435" y="300" on="1"/>
        <pt x="284" y="563" on="1"/>
        <pt x="133" y="300" on="1"/>
        <pt x="33" y="349" on="1"/>
        <pt x="234" y="693" on="1"/>
        <pt x="334" y="693" on="1"/>
      </contour>
    </TTGlyph>
    <TTGlyph name="asciitilde" xMin="33" yMin="207" xMax="533" yMax="393">
      <contour>
        <pt x="385" y="207" on="1"/>
        <pt x="354" y="207" on="0"/>
        <pt x="301" y="232" on="0"/>
        <pt x="251" y="262" on="0"/>
        <pt x="205" y="287" on="0"/>
        <pt x="181" y="287" on="1"/>
        <pt x="157" y="287" on="0"/>
        <pt x="127" y="250" on="0"/>
        <pt x="116" y="212" on="1"/>
        <pt x="33" y="235" on="1"/>
        <pt x="38" y="259" on="0"/>
        <pt x="57" y="314" on="0"/>
        <pt x="92" y="361" on="0"/>
        <pt x="144" y="393" on="0"/>
        <pt x="181" y="393" on="1"/>
        <pt x="212" y="393" on="0"/>
        <pt x="265" y="368" on="0"/>
        <pt x="315" y="337" on="0"/>
        <pt x="361" y="312" on="0"/>
        <pt x="385" y="312" on="1"/>
        <pt x="410" y="312" on="0"/>
        <pt x="440" y="350" on="0"/>
        <pt x="450" y="388" on="1"/>
        <pt x="533" y="365" on="1"/>
        <pt x="528" y="341" on="0"/>
        <pt x="509" y="286" on="0"/>
        <pt x="474" y="239" on="0"/>
        <pt x="422" y="207" on="0"/>
      </contour>
    </TTGlyph>
    <TTGlyph name="asterisk" xMin="34" yMin="301" xMax="448" yMax="693">
      <contour>
        <pt x="268" y="530" on="1"/>
        <pt x="297" y="549" on="0"/>
        <pt x="366" y="591" on="0"/>
        <pt x="399" y="602" on="1"/>
        <pt x="414" y="607" on="1"/>
        <pt x="448" y="503" on="1"/>
        <pt x="432" y="498" on="1"/>
        <pt x="400" y="488" on="0"/>
        <pt x="319" y="481" on="0"/>
        <pt x="284" y="480" on="1"/>
        <pt x="312" y="458" on="0"/>
        <pt x="373" y="407" on="0"/>
        <pt x="394" y="378" on="1"/>
        <pt x="404" y="364" on="1"/>
        <pt x="315" y="301" on="1"/>
        <pt x="305" y="314" on="1"/>
        <pt x="285" y="343" on="0"/>
        <pt x="255" y="417" on="0"/>
        <pt x="241" y="449" on="1"/>
        <pt x="228" y="417" on="0"/>
        <pt x="197" y="343" on="0"/>
        <pt x="177" y="314" on="1"/>
        <pt x="168" y="301" on="1"/>
        <pt x="78" y="364" on="1"/>
        <pt x="89" y="378" on="1"/>
        <pt x="109" y="407" on="0"/>
        <pt x="170" y="458" on="0"/>
        <pt x="199" y="480" on="1"/>
        <pt x="164" y="481" on="0"/>
        <pt x="83" y="486" on="0"/>
        <pt x="50" y="498" on="1"/>
        <pt x="34" y="503" on="1"/>
        <pt x="68" y="607" on="1"/>
        <pt x="83" y="602" on="1"/>
        <pt x="117" y="591" on="0"/>
        <pt x="185" y="549" on="0"/>
        <pt x="214" y="530" on="1"/>
        <pt x="205" y="565" on="0"/>
        <pt x="186" y="641" on="0"/>
        <pt x="186" y="676" on="1"/>
        <pt x="186" y="693" on="1"/>
        <pt x="296" y="693" on="1"/>
        <pt x="296" y="676" on="1"/>
        <pt x="296" y="641" on="0"/>
        <pt x="277" y="565" on="0"/>
      </contour>
    </TTGlyph>
    <TTGlyph name="at" xMin="62" yMin="-159" xMax="909" yMax="713">
      <contour>
        <pt x="700" y="35" on="1"/>
        <pt x="670" y="35" on="0"/>
        <pt x="620" y="52" on="0"/>
        <pt x="603" y="70" on="1"/>
        <pt x="581" y="54" on="0"/>
        <pt x="522" y="38" on="0"/>
        <pt x="490" y="38" on="1"/>
        <pt x="441" y="38" on="0"/>
        <pt x="360" y="68" on="0"/>
        <pt x="301" y="128" on="0"/>
        <pt x="269" y="217" on="0"/>
        <pt x="269" y="276" on="1"/>
        <pt x="269" y="325" on="0"/>
        <pt x="301" y="412" on="0"/>
        <pt x="362" y="476" on="0"/>
        <pt x="451" y="513" on="0"/>
        <pt x="508" y="513" on="1"/>
        <pt x="563" y="513" on="0"/>
        <pt x="651" y="495" on="0"/>
        <pt x="677" y="485" on="1"/>
        <pt x="677" y="175" on="1"/>
        <pt x="677" y="147" on="0"/>
        <pt x="698" y="126" on="0"/>
        <pt x="716" y="126" on="1"/>
        <pt x="759" y="126" on="0"/>
        <pt x="808" y="233" on="0"/>
        <pt x="808" y="333" on="1"/>
        <pt x="808" y="395" on="0"/>
        <pt x="765" y="502" on="0"/>
        <pt x="683" y="580" on="0"/>
        <pt x="566" y="625" on="0"/>
        <pt x="493" y="625" on="1"/>
        <pt x="421" y="625" on="0"/>
        <pt x="300" y="577" on="0"/>
        <pt x="213" y="487" on="0"/>
        <pt x="164" y="357" on="0"/>
        <pt x="164" y="275" on="1"/>
        <pt x="164" y="189" on="0"/>
        <pt x="214" y="60" on="0"/>
        <pt x="305" y="-26" on="0"/>
        <pt x="432" y="-70" on="0"/>
        <pt x="510" y="-70" on="1"/>
        <pt x="564" y="-70" on="0"/>
        <pt x="647" y="-57" on="0"/>
        <pt x="668" y="-52" on="1"/>
        <pt x="680" y="-136" on="1"/>
        <pt x="669" y="-139" on="0"/>
        <pt x="634" y="-147" on="0"/>
        <pt x="589" y="-154" on="0"/>
        <pt x="537" y="-159" on="0"/>
        <pt x="510" y="-159" on="1"/>
        <pt x="417" y="-159" on="0"/>
        <pt x="254" y="-109" on="0"/>
        <pt x="133" y="-3" on="0"/>
        <pt x="62" y="161" on="0"/>
        <pt x="62" y="275" on="1"/>
        <pt x="62" y="384" on="0"/>
        <pt x="134" y="549" on="0"/>
        <pt x="254" y="658" on="0"/>
        <pt x="409" y="713" on="0"/>
        <pt x="493" y="713" on="1"/>
        <pt x="580" y="713" on="0"/>
        <pt x="732" y="661" on="0"/>
        <pt x="844" y="562" on="0"/>
        <pt x="909" y="418" on="0"/>
        <pt x="909" y="326" on="1"/>
        <pt x="909" y="255" on="0"/>
        <pt x="878" y="147" on="0"/>
        <pt x="822" y="73" on="0"/>
        <pt x="746" y="35" on="0"/>
      </contour>
      <contour>
        <pt x="571" y="144" on="1"/>
        <pt x="569" y="155" on="0"/>
        <pt x="566" y="183" on="0"/>
        <pt x="566" y="196" on="1"/>
        <pt x="566" y="416" on="1"/>
        <pt x="546" y="421" on="0"/>
        <pt x="514" y="421" on="1"/>
        <pt x="480" y="421" on="0"/>
        <pt x="431" y="399" on="0"/>
        <pt x="399" y="360" on="0"/>
        <pt x="384" y="307" on="0"/>
        <pt x="384" y="276" on="1"/>
        <pt x="384" y="213" on="0"/>
        <pt x="438" y="131" on="0"/>
        <pt x="495" y="131" on="1"/>
        <pt x="513" y="131" on="0"/>
        <pt x="552" y="136" on="0"/>
      </contour>
    </TTGlyph>
    <TTGlyph name="atilde" xMin="40" yMin="-11" xMax="463" yMax="746">
      <component glyphName="a" x="0" y="0" flags="0x204"/>
      <component glyphName="tilde" x="74" y="0" flags="0x4"/>
    </TTGlyph>
    <TTGlyph name="b" xMin="77" yMin="-13" xMax="548" yMax="776">
      <contour>
        <pt x="424" y="263" on="1"/>
        <pt x="424" y="340" on="0"/>
        <pt x="363" y="430" on="0"/>
        <pt x="297" y="430" on="1"/>
        <pt x="267" y="430" on="0"/>
        <pt x="214" y="412" on="0"/>
        <pt x="198" y="401" on="1"/>
        <pt x="198" y="100" on="1"/>
        <pt x="211" y="97" on="0"/>
        <pt x="252" y="92" on="0"/>
        <pt x="281" y="92" on="1"/>
        <pt x="348" y="92" on="0"/>
        <pt x="424" y="183" on="0"/>
      </contour>
      <contour>
        <pt x="548" y="261" on="1"/>
        <pt x="548" y="198" on="0"/>
        <pt x="511" y="97" on="0"/>
        <pt x="442" y="25" on="0"/>
        <pt x="344" y="-13" on="0"/>
        <pt x="282" y="-13" on="1"/>
        <pt x="222" y="-13" on="0"/>
        <pt x="113" y="5" on="0"/>
        <pt x="77" y="16" on="1"/>
        <pt x="77" y="756" on="1"/>
        <pt x="198" y="776" on="1"/>
        <pt x="198" y="505" on="1"/>
        <pt x="219" y="516" on="0"/>
        <pt x="280" y="534" on="0"/>
        <pt x="317" y="534" on="1"/>
        <pt x="372" y="534" on="0"/>
        <pt x="459" y="495" on="0"/>
        <pt x="517" y="423" on="0"/>
        <pt x="548" y="322" on="0"/>
      </contour>
    </TTGlyph>
    <TTGlyph name="backslash" xMin="-17" yMin="-185" xMax="443" yMax="783">
      <contour>
        <pt x="105" y="783" on="1"/>
        <pt x="443" y="-185" on="1"/>
        <pt x="319" y="-185" on="1"/>
        <pt x="-17" y="783" on="1"/>
      </contour>
    </TTGlyph>
    <TTGlyph name="bar" xMin="93" yMin="-185" xMax="207" yMax="783">
      <contour>
        <pt x="93" y="783" on="1"/>
        <pt x="207" y="783" on="1"/>
        <pt x="207" y="-185" on="1"/>
        <pt x="93" y="-185" on="1"/>
      </contour>
    </TTGlyph>
</ttFont>
